<svg xmlns:dc="http://purl.org/dc/elements/1.1/" xmlns:cc="http://creativecommons.org/ns#" xmlns:rdf="http://www.w3.org/1999/02/22-rdf-syntax-ns#" xmlns:svg="http://www.w3.org/2000/svg" xmlns="http://www.w3.org/2000/svg" viewBox="0 0 666.66669 491.67999" height="491.67999" width="666.66669" xml:space="preserve" id="svg2" version="1.1"><metadata id="metadata8"><rdf:RDF><cc:Work rdf:about=""><dc:format>image/svg+xml</dc:format><dc:type rdf:resource="http://purl.org/dc/dcmitype/StillImage"/></cc:Work></rdf:RDF></metadata><defs id="defs6"><clipPath id="clipPath142" clipPathUnits="userSpaceOnUse"><path id="path140" d="m 3432.46,2060.64 c 0,0.01 0,0.01 -0.01,0.01 -16.49,45.36 -30.42,91.24 -36.24,129.1 5.83,-37.86 19.77,-83.75 36.25,-129.11 m -36.25,129.11 c -0.18,1.18 -0.36,2.34 -0.55,3.49 0.19,-1.15 0.37,-2.31 0.55,-3.49"/></clipPath></defs><g transform="matrix(1.3333333,0,0,-1.3333333,0,491.68)" id="g10"><g transform="scale(0.1)" id="g12"><path id="path32" style="fill:#fcfdfd;fill-opacity:1;fill-rule:nonzero;stroke:none" d="m 3778.32,2085.52 582.85,0.07 c 80.6,0.01 134.52,82.73 102.35,156.63 -38.7,88.92 -121.06,137.08 -195.38,70.37 -111.92,-100.45 -106.68,94.3 -240.54,66.97 -117.14,-23.92 -100.99,-139.2 -172.74,-162.87 -71.76,-23.68 -170.64,-104.65 -76.54,-131.17"/><path id="path34" style="fill:#fcfdfd;fill-opacity:1;fill-rule:nonzero;stroke:none" d="m 2854.85,3133.17 425.4,0.05 c 58.83,0.01 98.18,60.38 74.7,114.32 -28.24,64.9 -88.35,100.05 -142.6,51.36 -81.69,-73.32 -77.86,68.83 -175.56,48.88 -85.5,-17.46 -73.71,-101.6 -126.08,-118.88 -52.37,-17.28 -124.55,-76.37 -55.86,-95.73"/><path id="path36" style="fill:#f4f4f4;fill-opacity:1;fill-rule:nonzero;stroke:none" d="m 3696.75,411.91 h -70 v 2238.54 c 0,125.32 101.95,227.27 227.27,227.27 h 61.84 v -70 h -61.84 c -86.72,0 -157.27,-70.55 -157.27,-157.27 V 411.91"/><path id="path38" style="fill:#eeeeee;fill-opacity:1;fill-rule:nonzero;stroke:none" d="m 4181.29,2487.38 h -265.43 v 749.76 h 265.43 v -749.76"/><path id="path40" style="fill:#e9e9e8;fill-opacity:1;fill-rule:nonzero;stroke:none" d="m 4181.29,2487.38 h -265.43 v -1.39 c 0,-28.55 23.14,-51.69 51.69,-51.69 h 162.04 c 28.55,0 51.7,23.14 51.7,51.69 v 1.39"/><path id="path42" style="fill:#f4f4f4;fill-opacity:1;fill-rule:nonzero;stroke:none" d="m 4130.91,3082.14 c 0,-45.47 -36.86,-82.34 -82.34,-82.34 -45.47,0 -82.34,36.87 -82.34,82.34 0,45.49 36.87,82.35 82.34,82.35 45.48,0 82.34,-36.86 82.34,-82.35"/><path id="path44" style="fill:#fcfdfd;fill-opacity:1;fill-rule:nonzero;stroke:none" d="m 4130.91,3102.14 c 0,-45.47 -36.86,-82.34 -82.34,-82.34 -45.47,0 -82.34,36.87 -82.34,82.34 0,45.49 36.87,82.35 82.34,82.35 45.48,0 82.34,-36.86 82.34,-82.35"/><path id="path46" style="fill:#f4f4f4;fill-opacity:1;fill-rule:nonzero;stroke:none" d="m 4130.91,2857.14 c 0,-45.47 -36.86,-82.34 -82.34,-82.34 -45.47,0 -82.34,36.87 -82.34,82.34 0,45.49 36.87,82.35 82.34,82.35 45.48,0 82.34,-36.86 82.34,-82.35"/><path id="path48" style="fill:#fcfdfd;fill-opacity:1;fill-rule:nonzero;stroke:none" d="m 4130.91,2877.14 c 0,-45.47 -36.86,-82.34 -82.34,-82.34 -45.47,0 -82.34,36.87 -82.34,82.34 0,45.49 36.87,82.35 82.34,82.35 45.48,0 82.34,-36.86 82.34,-82.35"/><path id="path50" style="fill:#f4f4f4;fill-opacity:1;fill-rule:nonzero;stroke:none" d="m 4130.91,2632.15 c 0,-45.48 -36.86,-82.35 -82.34,-82.35 -45.47,0 -82.34,36.87 -82.34,82.35 0,45.47 36.87,82.34 82.34,82.34 45.48,0 82.34,-36.87 82.34,-82.34"/><path id="path52" style="fill:#fcfdfd;fill-opacity:1;fill-rule:nonzero;stroke:none" d="m 4130.91,2652.15 c 0,-45.48 -36.86,-82.35 -82.34,-82.35 -45.47,0 -82.34,36.87 -82.34,82.35 0,45.48 36.87,82.34 82.34,82.34 45.48,0 82.34,-36.86 82.34,-82.34"/><path id="path54" style="fill:#eeeeee;fill-opacity:1;fill-rule:nonzero;stroke:none" d="m 4369.09,865 h -461.92 v 201.61 h 461.92 V 865"/><path id="path56" style="fill:#f8f8f9;fill-opacity:1;fill-rule:nonzero;stroke:none" d="M 3939.34,837.109 H 3875 V 1094.5 h 64.34 V 837.109"/><path id="path58" style="fill:#f8f8f9;fill-opacity:1;fill-rule:nonzero;stroke:none" d="m 4401.27,837.109 h -64.35 V 1094.5 h 64.35 V 837.109"/><path id="path60" style="fill:#f8f8f9;fill-opacity:1;fill-rule:nonzero;stroke:none" d="m 3907.17,933.629 h -43.58 c -11.47,0 -20.77,9.301 -20.77,20.769 v 22.813 c 0,11.469 9.3,20.769 20.77,20.769 h 43.58 v -64.351"/><path id="path62" style="fill:#f8f8f9;fill-opacity:1;fill-rule:nonzero;stroke:none" d="m 4369.09,997.98 h 43.58 c 11.47,0 20.77,-9.3 20.77,-20.769 v -22.813 c 0,-11.468 -9.3,-20.769 -20.76,-20.769 h -43.59 v 64.351"/><path id="path64" style="fill:#f8f8f9;fill-opacity:1;fill-rule:nonzero;stroke:none" d="m 4262.23,497.59 h -248.19 v 696.57 c 0,68.53 55.56,124.1 124.09,124.1 68.54,0 124.1,-55.57 124.1,-124.1 V 497.59"/><path id="path66" style="fill:#eeeeee;fill-opacity:1;fill-rule:nonzero;stroke:none" d="m 4307.04,411.91 h -337.82 v 65.699 c 0,33.961 27.52,61.481 61.48,61.481 h 214.87 c 33.95,0 61.47,-27.52 61.47,-61.481 V 411.91"/><path id="path68" style="fill:#fcfdfd;fill-opacity:1;fill-rule:nonzero;stroke:none" d="m 4244.33,966.199 c 0,-58.648 -47.55,-106.187 -106.2,-106.187 -58.65,0 -106.19,47.539 -106.19,106.187 0,58.651 47.54,106.201 106.19,106.201 58.65,0 106.2,-47.55 106.2,-106.201"/><path id="path70" style="fill:#eeeeee;fill-opacity:1;fill-rule:nonzero;stroke:none" d="m 4163.41,966.199 c 0,-13.961 -11.32,-25.269 -25.28,-25.269 -13.96,0 -25.28,11.308 -25.28,25.269 0,13.961 11.32,25.281 25.28,25.281 13.96,0 25.28,-11.32 25.28,-25.281"/><path id="path72" style="fill:#f4f4f4;fill-opacity:1;fill-rule:nonzero;stroke:none" d="m 3969.22,1158.85 v 0 c 0,17.77 14.4,32.17 32.17,32.17 h 273.48 c 17.77,0 32.17,-14.4 32.17,-32.17 0,-17.77 -14.4,-32.17 -32.17,-32.17 h -273.48 c -17.77,0 -32.17,14.4 -32.17,32.17"/><path id="path74" style="fill:#eeeeee;fill-opacity:1;fill-rule:nonzero;stroke:none" d="m 4084.13,802.281 v 0 c 17.77,0 32.17,-14.402 32.17,-32.172 V 603.852 c 0,-17.774 -14.4,-32.172 -32.17,-32.172 -17.77,0 -32.18,14.398 -32.18,32.172 v 166.257 c 0,17.77 14.41,32.172 32.18,32.172"/><path id="path76" style="fill:#eeeeee;fill-opacity:1;fill-rule:nonzero;stroke:none" d="m 4192.14,802.281 v 0 c 17.77,0 32.17,-14.402 32.17,-32.172 V 603.852 c 0,-17.774 -14.4,-32.172 -32.17,-32.172 -17.77,0 -32.18,14.398 -32.18,32.172 v 166.257 c 0,17.77 14.41,32.172 32.18,32.172"/><path id="path78" style="fill:#f4f4f4;fill-opacity:1;fill-rule:nonzero;stroke:none" d="m 720.48,410.449 h -24.621 c -7.207,0 -12.957,6.012 -12.644,13.211 l 26.527,604.31 h 63.246 l -39.883,-605.7 c -0.433,-6.649 -5.957,-11.821 -12.625,-11.821"/><path id="path80" style="fill:#f4f4f4;fill-opacity:1;fill-rule:nonzero;stroke:none" d="m 823.82,410.449 h -24.621 c -7.207,0 -12.961,6.012 -12.644,13.211 l 26.527,604.31 h 63.246 l -39.883,-605.7 c -0.437,-6.649 -5.961,-11.821 -12.625,-11.821"/><path id="path82" style="fill:#f4f4f4;fill-opacity:1;fill-rule:nonzero;stroke:none" d="m 1110.79,410.449 h 24.62 c 7.21,0 12.96,6.012 12.64,13.211 l -26.52,604.31 h -63.25 l 39.88,-605.7 c 0.44,-6.649 5.96,-11.821 12.63,-11.821"/><path id="path84" style="fill:#f4f4f4;fill-opacity:1;fill-rule:nonzero;stroke:none" d="m 1212.61,410.449 h 24.62 c 7.22,0 12.97,6.012 12.65,13.211 l -26.53,604.31 h -63.25 l 39.89,-605.7 c 0.43,-6.649 5.96,-11.821 12.62,-11.821"/><path id="path86" style="fill:#f4f4f4;fill-opacity:1;fill-rule:nonzero;stroke:none" d="m 879,1100.27 h -53.602 v 283.18 H 879 v -283.18"/><path id="path88" style="fill:#f4f4f4;fill-opacity:1;fill-rule:nonzero;stroke:none" d="m 1115.98,1100.27 h -53.6 v 283.18 h 53.6 v -283.18"/><path id="path90" style="fill:#f8f8f9;fill-opacity:1;fill-rule:nonzero;stroke:none" d="m 1297.53,1039.88 c 0,-62.642 -144.82,-56.771 -323.46,-56.771 -178.644,0 -323.465,-5.871 -323.465,56.771 0,62.63 144.821,113.4 323.465,113.4 178.64,0 323.46,-50.77 323.46,-113.4"/><path id="path92" style="fill:#f8f8f9;fill-opacity:1;fill-rule:nonzero;stroke:none" d="M 1127.93,1352.62 H 820.207 c -48.621,0 -89.062,37.41 -92.859,85.87 l -9.621,122.88 c -4.239,54.15 38.554,100.41 92.863,100.41 h 326.96 c 54.31,0 97.1,-46.26 92.86,-100.41 l -9.62,-122.88 c -3.8,-48.46 -44.24,-85.87 -92.86,-85.87"/><path id="path94" style="fill:#f4f4f4;fill-opacity:1;fill-rule:nonzero;stroke:none" d="m 685.305,2229.48 0.004,286.44 H 1048.57 V 2229.48 H 685.305"/><path id="path96" style="fill:#e3e3e2;fill-opacity:1;fill-rule:nonzero;stroke:none" d="m 685.305,2229.48 0.004,286.44 h -19.567 v -286.44 h 19.563"/><path id="path98" style="fill:#fcfdfd;fill-opacity:1;fill-rule:nonzero;stroke:none" d="m 722.34,2258.68 v 228.04 h 289.19 V 2258.68 H 722.34"/><path id="path100" style="fill:#eeeeee;fill-opacity:1;fill-rule:nonzero;stroke:none" d="m 746.148,2277.45 v 190.49 H 987.727 V 2277.45 H 746.148"/><path id="path102" style="fill:#eeeeee;fill-opacity:1;fill-rule:nonzero;stroke:none" d="m 1123.51,2473.58 h 399.89 v 507.13 h -399.89 v -507.13"/><path id="path104" style="fill:#e3e3e2;fill-opacity:1;fill-rule:nonzero;stroke:none" d="m 1123.51,2473.58 h -19.09 v 507.13 h 19.09 v -507.13"/><path id="path106" style="fill:#f8f8f9;fill-opacity:1;fill-rule:nonzero;stroke:none" d="m 1164.28,2525.28 h 318.35 v 403.73 h -318.35 v -403.73"/><path id="path108" style="fill:#fcfdfd;fill-opacity:1;fill-rule:nonzero;stroke:none" d="m 1190.49,2558.52 h 265.93 l 0.01,337.25 h -265.94 v -337.25"/><path id="path110" style="fill:#eeeeee;fill-opacity:1;fill-rule:nonzero;stroke:none" d="m 1270.84,2776.75 c 0,0 47,-66.48 71.15,-65.43 22.12,0.97 59.7,65.43 59.7,65.43 0,0 -47.01,66.48 -71.15,65.42 -22.12,-0.97 -59.7,-65.42 -59.7,-65.42"/><path id="path112" style="fill:#f4f4f4;fill-opacity:1;fill-rule:nonzero;stroke:none" d="m 1393.83,2629.55 c 13.89,26.82 -58.75,83.1 -88.93,81.77 -27.65,-1.21 -85.37,-56.26 -74.62,-81.77 15.86,-37.69 144.76,-36.32 163.55,0"/><path id="path114" style="fill:#e3e3e2;fill-opacity:1;fill-rule:nonzero;stroke:none" d="m 615.984,2918.77 c 0,-138.99 80.809,-251.66 180.496,-251.66 99.688,0 180.504,112.67 180.504,251.66 0,138.99 -80.816,251.67 -180.504,251.67 -99.687,0 -180.496,-112.68 -180.496,-251.67"/><path id="path116" style="fill:#eeeeee;fill-opacity:1;fill-rule:nonzero;stroke:none" d="m 637.465,2918.77 c 0,-138.99 80.812,-251.66 180.5,-251.66 99.687,0 180.504,112.67 180.504,251.66 0,138.99 -80.817,251.67 -180.504,251.67 -99.688,0 -180.5,-112.68 -180.5,-251.67"/><path id="path118" style="fill:#e9e9e8;fill-opacity:1;fill-rule:nonzero;stroke:none" d="m 664.191,2918.77 c 0,-118.41 68.848,-214.4 153.774,-214.4 84.93,0 153.773,95.99 153.773,214.4 0,118.41 -68.843,214.4 -153.773,214.4 -84.926,0 -153.774,-95.99 -153.774,-214.4"/><path id="path120" style="fill:#fcfdfd;fill-opacity:1;fill-rule:nonzero;stroke:none" d="m 680.527,2918.77 c 0,-105.83 61.536,-191.63 137.438,-191.63 75.91,0 137.441,85.8 137.441,191.63 0,105.83 -61.531,191.63 -137.441,191.63 -75.902,0 -137.438,-85.8 -137.438,-191.63"/><path id="path122" style="fill:#eeeeee;fill-opacity:1;fill-rule:nonzero;stroke:none" d="m 861.109,2814.63 c 0,0 47.364,41.66 42.364,106.66 0,0 -56.664,6.67 -55,-88.33 0,0 -63.891,66.29 -45,108.33 29.476,65.61 29.476,65.61 8.668,106.67 0,0 -55.75,-22.5 -30.332,-98.33 0,0 1.027,-36.67 8.847,-58.34 0,0 -56.097,53.73 -74.14,18.53 0,0 29.875,-56.86 74.14,-33.23 0,0 49.754,-87.15 70.453,-61.96"/><path id="path124" style="fill:#f8f8f9;fill-opacity:1;fill-rule:nonzero;stroke:none" d="M 4390.67,113.238 C 4390.67,50.6992 3522.6,0.0117188 2451.78,0.0117188 1380.96,0.0117188 512.887,50.6992 512.887,113.238 c 0,62.532 868.073,113.231 1938.893,113.231 1070.82,0 1938.89,-50.699 1938.89,-113.231"/><path id="path126" style="fill:#f9b1bd;fill-opacity:1;fill-rule:nonzero;stroke:none" d="m 3217.79,2281.07 c -26.85,27.96 -46.01,80.29 -55.3,113.44 l -42.08,-101.39 c 13.81,-16.34 20.25,-39.54 15.56,-58.17 -0.23,-0.9 -1.5,-17.89 -29.48,-35.31 0,0 5.11,-102.64 66.19,-88.05 61.08,14.58 94.32,136.23 94.32,136.23 l 4.37,34.52 c 0,0 -28.68,-23.37 -53.58,-1.27"/><path id="path128" style="fill:#f9b1bd;fill-opacity:1;fill-rule:nonzero;stroke:none" d="m 2687.11,1824.49 c 0,0 164.86,-6.77 238.13,13.3 73.27,20.08 135.4,148.06 135.4,148.06 l -83.49,46.14 -83.05,-123.54 -206.85,-33.11 -59.4,42.29 c 0,0 -120.1,25.59 -120.1,10.06 0,-15.52 61.87,-28.27 61.87,-28.27 0,0 3.64,-73.81 29.12,-76.03 25.48,-2.22 88.37,1.1 88.37,1.1"/><path id="path130" style="fill:#4870c0;fill-opacity:1;fill-rule:nonzero;stroke:none" d="m 3090.7,2177.31 c 0,0 -71.39,-9.99 -118.08,-96.51 -46.69,-86.52 -6.87,-89.92 32.67,-114.41 39.55,-24.48 59.35,-29.67 77.51,23.41 18.16,53.09 54.08,192.82 7.9,187.51"/><path id="path132" style="fill:#1d2a30;fill-opacity:1;fill-rule:nonzero;stroke:none" d="m 2948.31,2521.76 c 0,0 -51.99,-18.41 -17.66,-71.36 34.33,-52.96 -34.92,-88.83 81.55,-103.46 116.47,-14.63 4.11,196.07 4.11,196.07 l -68,-21.25"/><path id="path134" style="fill:#4870c0;fill-opacity:1;fill-rule:nonzero;stroke:none" d="m 3396.21,2189.75 c -17.39,113.23 -83.34,111.24 -147.55,85.94 4.5,-42.67 4.63,-97.09 -57.02,-130.94 -55.51,-30.48 -77.16,19.55 -78.37,62.25 -58.14,-33.12 -106.81,-75.6 -90.87,-159.62 9.12,-48.08 51.47,-100.77 94.89,-167.66 51.89,-79.94 105.29,-170.83 105.29,-170.83 l 296.64,151.06 c 0,0 -104.14,207.05 -123.01,329.8"/><g id="g136"><g clip-path="url(#clipPath142)" id="g138"><path id="path144" style="fill:#cecdcc;fill-opacity:1;fill-rule:nonzero;stroke:none" d="m 3395.66,2060.64 h 36.8008 v 132.598 H 3395.66 Z"/></g></g><path id="path146" style="fill:#395eb4;fill-opacity:1;fill-rule:nonzero;stroke:none" d="m 3432.45,2060.65 c -65.77,55.12 -115.27,142.26 -115.27,142.26 l 23.39,37.26 44.92,-7.6 c 4.19,-11.14 7.64,-24.14 10.17,-39.33 0.19,-1.15 0.37,-2.31 0.55,-3.49 v 0 0 c 5.82,-37.86 19.75,-83.74 36.24,-129.1"/><path id="path148" style="fill:#f9b1bd;fill-opacity:1;fill-rule:nonzero;stroke:none" d="m 3475.53,2225.73 c 0,0 101.78,-69.64 132.86,-96.45 46.27,-39.94 171.06,-174.71 171.06,-174.71 l 76.43,-41.85 v -48.34 l -36.14,-25 c -11.15,-7.7 -26.44,-4.79 -33.98,6.47 l -46.35,69.27 c 0,0 -114.42,104.56 -156.5,134.36 -35.57,25.2 -151.05,87.08 -151.05,87.08 l 43.67,89.17"/><path id="path150" style="fill:#4870c0;fill-opacity:1;fill-rule:nonzero;stroke:none" d="m 3287.64,2286.18 c 0,0 65.51,29.51 121.47,0 55.96,-29.51 80.55,-45.76 75.07,-81.38 -5.46,-35.49 -25.93,-109.19 -62.78,-96.9 -36.86,12.28 -154.24,128.63 -133.76,178.28"/><path id="path152" style="fill:#f9b1bd;fill-opacity:1;fill-rule:nonzero;stroke:none" d="m 3178.03,2478.93 c 7.57,-76.64 12.45,-108.9 -19.58,-154.01 -48.18,-67.89 -143.92,-60.47 -174.29,12.35 -27.31,65.54 -35.14,179.77 34.21,221.96 49.4,30.4 114.08,15 144.48,-34.4 8.56,-13.91 13.76,-29.62 15.18,-45.9"/><path id="path154" style="fill:#f5782f;fill-opacity:1;fill-rule:nonzero;stroke:none" d="m 3016.89,2420.31 c -3.21,-14.98 -8.47,-29.46 -15.63,-43.01 7.08,-3.56 15.38,-3.8 22.65,-0.66 l -7.02,43.67"/><path id="path156" style="fill:#1d2a30;fill-opacity:1;fill-rule:nonzero;stroke:none" d="m 3068.07,2471.5 1.12,1.12 c 0.84,1.46 0.33,3.32 -1.13,4.16 l -0.06,0.03 c -9.95,6.01 -22.21,6.79 -32.84,2.09 -1.46,-0.81 -2.02,-2.62 -1.29,-4.12 0.77,-1.47 2.56,-2.06 4.05,-1.33 8.84,3.74 18.94,3 27.15,-1.98 0.94,-0.51 2.07,-0.5 3,0.03"/><path id="path158" style="fill:#1d2a30;fill-opacity:1;fill-rule:nonzero;stroke:none" d="m 2953.58,2452.2 1.28,0.92 c 6.01,7.43 15.21,11.54 24.75,11.05 1.67,-0.24 3.21,0.93 3.44,2.59 l 0.01,0.04 c 0.17,1.69 -1.03,3.21 -2.72,3.43 -11.59,0.74 -22.84,-4.16 -30.19,-13.16 -1.14,-1.24 -1.06,-3.17 0.18,-4.31 0.88,-0.81 2.15,-1.03 3.25,-0.56"/><path id="path160" style="fill:#1d2a30;fill-opacity:1;fill-rule:nonzero;stroke:none" d="m 3058.86,2437.56 c 1,-6.14 -1.47,-11.66 -5.55,-12.36 -4.08,-0.69 -8.09,3.79 -9.05,10.03 -0.95,6.25 1.47,11.66 5.48,12.33 4,0.67 8.08,-3.79 9.12,-10"/><path id="path162" style="fill:#1d2a30;fill-opacity:1;fill-rule:nonzero;stroke:none" d="m 2989.01,2426.27 c 1.01,-6.13 -1.46,-11.66 -5.47,-12.32 -4,-0.67 -8.08,3.78 -9.12,10 -1.03,6.21 1.47,11.66 5.47,12.33 4,0.66 8.17,-3.76 9.12,-10.01"/><path id="path164" style="fill:#1d2a30;fill-opacity:1;fill-rule:nonzero;stroke:none" d="m 2981.72,2436.23 -15.51,1.85 c 0,0 9.51,-10.31 15.51,-1.85"/><path id="path166" style="fill:#1d2a30;fill-opacity:1;fill-rule:nonzero;stroke:none" d="m 3051.56,2447.51 -15.51,1.86 c 0,0 9.51,-10.31 15.51,-1.86"/><path id="path168" style="fill:#1d2a30;fill-opacity:1;fill-rule:nonzero;stroke:none" d="m 3073.77,2348.2 c 3.81,1.89 7.43,4.12 10.84,6.66 0.99,0.72 1.21,2.11 0.49,3.09 l -0.04,0.06 c -0.72,0.97 -2.08,1.19 -3.06,0.49 -15.11,-11.65 -34.84,-15.48 -53.21,-10.31 -1.15,0.45 -2.45,-0.13 -2.9,-1.28 -0.44,-1.16 0.13,-2.45 1.28,-2.9 15.49,-4.68 32.2,-3.18 46.6,4.19"/><path id="path170" style="fill:#1d2a30;fill-opacity:1;fill-rule:nonzero;stroke:none" d="m 3012.58,2520.92 c -29.76,-3.54 -110.02,-26.39 -97.28,48.23 12.73,74.61 155.59,111.92 222.02,63.69 66.42,-48.22 117.38,-44.59 170.15,-5.46 52.78,39.13 78.25,23.66 145.59,-12.74 0,0 -36.4,-62.78 -19.11,-101 0,0 -40.04,40.04 -114.65,-2.73 0,0 86.44,22.96 119.2,-36.75 0,0 -9.1,-65.92 22.75,-105.12 31.84,-39.2 -0.91,-85.61 -122.84,-38.29 -71.35,27.69 -105.4,24.31 -127,20.93 -15.31,-2.4 -24.36,-4.8 -36.01,3.87 -28.08,20.9 -49.24,77.48 -53.55,118.61 -3.1,29.55 -16.31,57.82 -109.27,46.76"/><path id="path172" style="fill:#f9b1bd;fill-opacity:1;fill-rule:nonzero;stroke:none" d="m 3188.49,2426.21 c -1.93,-14.77 -9.65,-28.16 -21.47,-37.22 -15.76,-11.89 -30.81,0.44 -32.46,19.08 -1.48,16.71 4.93,43.12 23.66,47.7 13.73,2.92 27.24,-5.85 30.16,-19.59 0.69,-3.28 0.73,-6.67 0.11,-9.97"/><path id="path174" style="fill:#f9b1bd;fill-opacity:1;fill-rule:nonzero;stroke:none" d="m 3590.16,307.16 c 2.68,-63.941 4.54,-114.582 4.54,-114.582 l -70.97,-8.109 c 0,0 -6.81,43.222 -17.05,109.492 l 83.48,13.199"/><path id="path176" style="fill:#4870c0;fill-opacity:1;fill-rule:nonzero;stroke:none" d="m 3480.15,212.891 c -1.09,-0.051 -2.16,-0.27 -3.19,-0.629 -1.38,-0.321 -2.54,-1.274 -3.14,-2.563 -1.12,-2.16 -0.62,-3.148 -0.1,-3.687 3.59,-4.41 21.49,-3.383 34.58,-0.903 -8.81,4.352 -18.36,6.993 -28.15,7.782 z m 12.17,-13.09 c -8.82,-0.551 -18.04,0.469 -21.21,4.07 -1.65,2.129 -1.79,5.059 -0.34,7.328 1.07,2.02 2.87,3.551 5.05,4.27 11.63,4.011 37.29,-8.551 38.42,-9.11 l 0.92,-1.691 -1.27,-1.469 c -7.08,-1.758 -14.3,-2.898 -21.57,-3.398"/><path id="path178" style="fill:#4870c0;fill-opacity:1;fill-rule:nonzero;stroke:none" d="m 3494.45,230.84 -0.98,0.019 c -3,-0.449 -3.12,-1.679 -3.22,-2.121 -0.13,-4.84 11.82,-16.148 20.94,-20.789 -1.35,7.992 -5.12,15.371 -10.81,21.141 -1.7,1.281 -3.81,1.898 -5.93,1.742 z m 19.17,-27.629 -0.7,0.019 c -8.72,3.219 -26.75,17.52 -25.75,25.59 0.05,1.942 1.35,4.371 5.95,5.129 3.35,0.571 6.8,-0.25 9.53,-2.269 9.51,-6.86 12.63,-25.871 12.78,-26.75 l -0.66,-1.571 -1.15,-0.148"/><path id="path180" style="fill:#1d2a30;fill-opacity:1;fill-rule:nonzero;stroke:none" d="m 3520.5,213.602 77.44,4.937 c 2.92,0.191 5.58,-1.668 6.4,-4.48 l 18.02,-62.098 c 1.64,-5.5 -1.49,-11.293 -6.99,-12.93 l -2.16,-0.402 c -27.95,-1.301 -52.87,-1.348 -87.62,-3.617 -41.01,-2.633 -30.3,-6.871 -78.47,-10.641 -29.03,-2.23 -36.45,30.449 -24.24,32.859 55.93,10.7 60.7,28.098 81.16,49.661 4.48,4.179 10.34,6.558 16.46,6.711"/><path id="path182" style="fill:#1d2a30;fill-opacity:1;fill-rule:nonzero;stroke:none" d="m 3547.01,1815.36 -13.52,48.49 c -1.65,5.92 -8.31,8.86 -13.81,6.1 l -302.57,-152.6 c -5.29,-2.67 -7.01,-9.38 -3.65,-14.26 l 30.68,-44.57 c 0,0 75.08,-511.65 106.25,-681.731 31.77,-173.359 145.64,-691.93 145.64,-691.93 0.75,-3.839 4.41,-6.39 8.27,-5.757 l 88.14,14.296 c 3.45,0.551 6,3.461 6.08,6.954 1.02,44.207 0.32,323.617 -27.84,521.277 -10.06,70.601 -33.79,127.18 -41.86,166.082 -8.91,42.929 4.87,71.719 10.31,175.069 10.24,194.61 22.47,501.38 7.88,652.58"/><path id="path184" style="fill:#7a7b7c;fill-opacity:1;fill-rule:nonzero;stroke:none" d="m 3538.39,1149.91 c 0.26,4.16 0.5,8.45 0.74,12.87 1.83,34.79 3.72,73.15 5.52,113.58 -1.8,-40.43 -3.69,-78.8 -5.52,-113.58 -0.23,-4.43 -0.48,-8.72 -0.74,-12.87"/><path id="path186" style="fill:#151717;fill-opacity:1;fill-rule:nonzero;stroke:none" d="m 3536.35,1122.74 c -85.87,172.84 -151.26,447.95 -151.26,447.95 l 37,50.32 39.16,-87.35 87.74,-148.03 c -1.3,-37.3 -2.78,-74.07 -4.34,-109.27 -1.8,-40.43 -3.69,-78.79 -5.52,-113.58 -0.24,-4.42 -0.48,-8.71 -0.74,-12.87 -0.62,-9.74 -1.31,-18.73 -2.04,-27.17"/><path id="path188" style="fill:#f9b1bd;fill-opacity:1;fill-rule:nonzero;stroke:none" d="m 4204.95,551.75 c 36.86,-52.309 60.78,-86.68 60.78,-86.68 l -55.29,-45.23 c 0,0 -29.12,32.66 -73.59,82.84 l 68.1,49.07"/><path id="path190" style="fill:#4870c0;fill-opacity:1;fill-rule:nonzero;stroke:none" d="m 4154.29,420.762 -2.34,-2.25 c -1,-1.024 -1.46,-2.453 -1.27,-3.852 0.24,-2.441 1.2,-2.988 1.92,-3.172 5.4,-1.769 19.9,8.793 29.57,17.961 -9.76,-1.109 -19.22,-4.058 -27.88,-8.687 z m 17.3,-4.422 c -7.11,-5.25 -15.42,-9.371 -20.03,-8.051 -2.54,0.891 -4.24,3.281 -4.24,5.973 -0.2,2.277 0.48,4.547 1.92,6.316 7.62,9.672 35.98,13 37.24,13.141 l 1.69,-0.93 -0.27,-1.91 c -5,-5.32 -10.46,-10.18 -16.31,-14.539"/><path id="path192" style="fill:#4870c0;fill-opacity:1;fill-rule:nonzero;stroke:none" d="m 4156.59,443.578 -0.83,-0.5 c -2.28,-2.008 -1.72,-3.098 -1.56,-3.527 2.51,-4.129 18.68,-7.192 28.87,-6.153 -5.47,5.981 -12.63,10.153 -20.54,11.93 -2.12,0.16 -4.24,-0.457 -5.94,-1.75 z m 31.08,-12.84 -0.6,-0.367 c -9.08,-2.012 -31.98,0.25 -35.51,7.59 -1,1.648 -1.23,4.398 2.23,7.527 2.51,2.293 5.85,3.461 9.25,3.25 11.7,-0.617 24.61,-14.918 25.22,-15.578 l 0.3,-1.68 -0.89,-0.742"/><path id="path194" style="fill:#1d2a30;fill-opacity:1;fill-rule:nonzero;stroke:none" d="m 4187.83,443.191 62.45,46.079 c 2.34,1.718 5.59,1.609 7.8,-0.321 l 48.76,-42.469 c 4.36,-3.73 4.86,-10.289 1.12,-14.652 l -1.6,-1.5 c -22.8,-16.219 -43.73,-29.758 -71.72,-50.469 -33.07,-24.398 -21.75,-22.168 -60.23,-51.418 -23.2,-17.582 -47.13,5.879 -38.16,14.52 41.24,39.258 35.83,56.469 41.36,85.68 1.51,5.949 5.15,11.121 10.22,14.55"/><path id="path196" style="fill:#1d2a30;fill-opacity:1;fill-rule:nonzero;stroke:none" d="m 3325.4,1691.99 c 0,0 231.73,-534.19 341.22,-693.361 97.23,-141.348 466.65,-503.16 466.65,-503.16 5.67,-6.117 15.16,-6.68 21.52,-1.27 l 51.28,43.582 c 5.85,4.969 7.22,13.457 3.2,20 -31.44,51.289 -164.11,264.559 -280.43,403.34 -46.39,55.359 -91.05,95.889 -112.99,126.439 -28.94,40.28 -22.16,72.62 -45.07,184.51 -42.59,208.04 -125.53,514.04 -251.56,563.01 L 3325.4,1691.99"/><path id="path198" style="fill:#c0d2ef;fill-opacity:1;fill-rule:nonzero;stroke:none" d="m 2878.12,182.809 v 0 c 32.66,0 63.38,13.242 86.66,34.64 -23.27,-21.398 -54,-34.64 -86.66,-34.64"/><path id="path200" style="fill:#c7d9f2;fill-opacity:1;fill-rule:nonzero;stroke:none" d="m 2882.71,235.309 h -943.9 c -30.2,0 -53.92,20.453 -59.18,48.23 h 371.84 v 2.5 h -372.26 c -0.44,2.981 -0.67,6.043 -0.67,9.16 -0.01,1.942 0.08,3.903 0.25,5.879 l 9.59,109.582 h 1075.44 l -9.58,-109.582 c -3.18,-36.269 -35.26,-65.769 -71.53,-65.769 m 81.33,177.851 H 1888.6 l 39.02,445.988 h 241.58 c 7.82,-14.449 23.07,-24.039 41.39,-24.039 h 204.74 c 28.36,0 53.36,22.981 55.84,51.34 l 17.91,204.741 c 2.48,28.36 -18.5,51.35 -46.86,51.35 h -15.01 v 100.32 c 9.2,-5.92 20.31,-9.33 32.52,-9.33 h 85.32 v -317.3 c 0,-31.48 25.61,-57.082 57.07,-57.082 h 400.94 L 2964.04,413.16 m 39.24,448.488 h -401.16 c -30.09,0 -54.57,24.481 -54.57,54.582 v 317.3 h 168.1 c 35.45,0 66.7,28.74 69.8,64.19 l 22.39,255.92 c 3.1,35.45 -23.12,64.19 -58.57,64.19 h -201.72 v 69.75 c 35.59,3.04 65.89,32.67 69.05,68.78 l 5.8,66.26 c 0.31,0 0.61,0 0.92,0 28.44,0 63.79,1.87 63.79,1.87 0,0 26.75,-1.1 63.49,-1.1 54.46,0 130.88,2.41 174.64,14.4 47.84,13.11 90.92,72.21 115.07,111.66 2.51,-0.56 4.91,-0.85 7.21,-0.85 6.78,0 12.73,2.53 18.2,8.31 9.12,-14.01 19.12,-28.64 29.53,-44.03 L 3003.28,861.648 m 30.97,494.892 c -0.01,-3.73 3.06,-5.74 6.08,-5.74 2.79,0 5.54,1.7 5.85,5.3 1.32,15.02 2.63,30.04 3.94,45.06 0.02,0.21 0.03,0.41 0.03,0.61 0.01,3.74 -3.05,5.74 -6.08,5.74 -2.78,0 -5.54,-1.69 -5.85,-5.3 -1.31,-15.01 -2.63,-30.03 -3.95,-45.05 -0.01,-0.21 -0.02,-0.42 -0.02,-0.62 m 8.97,102.5 c -0.01,-3.73 3.05,-5.74 6.08,-5.74 2.78,0 5.54,1.7 5.85,5.3 4.57,52.28 9.15,104.54 13.72,156.82 0.02,0.21 0.03,0.41 0.03,0.61 0,3.73 -3.06,5.73 -6.08,5.73 -2.79,0 -5.54,-1.69 -5.86,-5.3 -4.57,-52.26 -9.14,-104.54 -13.72,-156.8 -0.01,-0.21 -0.02,-0.42 -0.02,-0.62 M 2167.94,861.648 h -240.11 l 158.34,1809.842 c 3.18,36.26 35.26,65.76 71.53,65.76 h 267.01 v -242.47 c -18.31,-9.94 -31.72,-28.7 -33.6,-50.22 l -20.15,-230.33 c -2.79,-31.9 20.8,-57.77 52.71,-57.77 h 1.04 v -55.8 h -122.28 c -38.13,0 -71.74,-30.91 -75.07,-69.04 l -24.09,-275.26 c -3.33,-38.13 24.87,-69.04 63,-69.04 h 158.44 v -125.83 c -0.54,-2.57 -0.93,-5.19 -1.16,-7.85 l -22.39,-255.92 c -1.94,-22.11 7.54,-41.62 23.55,-53.16 v -102.02 h -187.22 c -28.36,0 -53.36,-22.99 -55.84,-51.35 l -17.91,-204.741 c -0.79,-8.988 0.78,-17.449 4.2,-24.801 m 259.27,708.712 v 116.96 h 114.32 c 1.18,0 2.35,0.03 3.52,0.09 v -69.58 h -51.7 c -29.67,0 -56.39,-20.13 -66.14,-47.47 m 260.04,304.98 -56.71,40.37 10.14,115.91 c 3.34,38.13 -24.86,69.04 -62.99,69.04 h -30.14 v 55.8 H 2654 c 31.91,0 60.03,25.87 62.82,57.77 l 20.15,230.33 c 2.79,31.91 -20.81,57.77 -52.71,57.77 h -136.71 v 234.92 h 554.05 c 34.29,0 60.22,-26.36 60.27,-59.88 0.01,-1.94 -0.08,-3.9 -0.25,-5.88 l -4.53,-51.75 c -6.44,3.84 -13.03,8.2 -19.77,13.1 -20.52,14.89 -48.31,21.63 -77.32,21.63 -64.93,0 -135.9,-33.75 -144.7,-85.32 -5.55,-32.51 6.56,-46.52 24.45,-51.69 -8.68,-5.34 -20.83,-15.99 -20.82,-33.79 0,-9.13 3.21,-20.14 11.72,-33.27 8.95,-13.81 10.86,-26.46 10.86,-37.87 0,-8.54 -1.08,-16.4 -1.08,-23.53 0.01,-15.56 5.18,-27.67 37.87,-36.01 1.83,-5.49 3.79,-10.75 5.86,-15.72 16.25,-38.97 51.21,-59.2 87.59,-59.2 16.96,0 34.23,4.4 50.05,13.35 2.14,-2.71 4.09,-5.6 5.81,-8.6 l -6.29,-71.94 c -2.27,-2.14 -4.91,-4.35 -7.95,-6.59 -0.04,0.91 -0.08,1.81 -0.1,2.71 -21.44,-12.22 -41.59,-25.71 -57.69,-42.08 -24.59,-12.44 -57.46,-36.86 -82.96,-84.12 -23.04,-42.69 -25.01,-65.14 -16.35,-79.88 l -62.17,-92.47 -206.85,-33.11 m -142.2,225.32 h -117.84 v 55.8 h 117.84 v -55.8 m -117.84,395.41 v 241.18 h 117.84 v -234.92 h -91.12 c -9.42,0 -18.51,-2.26 -26.72,-6.26"/><path id="path202" style="fill:#b7caec;fill-opacity:1;fill-rule:nonzero;stroke:none" d="m 2251.47,283.539 h -371.84 c -0.16,0.832 -0.3,1.66 -0.42,2.5 h 372.26 v -2.5"/><path id="path204" style="fill:#b7caec;fill-opacity:1;fill-rule:nonzero;stroke:none" d="m 2169.2,859.148 h -241.58 l 0.21,2.5 h 240.11 c 0.4,-0.847 0.82,-1.679 1.26,-2.5 m 258.01,283.392 h -2.5 v 102.02 c 0.82,-0.59 1.65,-1.16 2.5,-1.7 v -100.32 m -2.5,418.95 v 125.83 h 2.5 v -116.96 c -1.03,-2.88 -1.87,-5.84 -2.5,-8.87 m 2.5,539.17 h -2.5 v 55.8 h 2.5 v -55.8 m -2.5,394.12 v 242.47 h 2.5 v -241.18 c -0.84,-0.41 -1.68,-0.84 -2.5,-1.29"/><path id="path206" style="fill:#b7caec;fill-opacity:1;fill-rule:nonzero;stroke:none" d="m 3003.06,859.148 h -400.94 c -31.46,0 -57.07,25.602 -57.07,57.082 v 317.3 h 2.5 v -317.3 c 0,-30.101 24.48,-54.582 54.57,-54.582 h 401.16 l -0.22,-2.5 m -455.51,758.682 h -2.5 v 69.58 c 0.84,0.04 1.67,0.1 2.5,0.17 v -69.75 m 0,482.83 h -2.5 v 55.8 h 2.5 v -55.8 m 0,401.67 h -2.5 v 234.92 h 2.5 v -234.92"/><path id="path210" style="fill:#d2a5d8;fill-opacity:1;fill-rule:nonzero;stroke:none" d="m 3118.19,2175.07 c -2.79,9.33 -4.34,19.42 -4.82,29.22 3.04,2.24 5.68,4.45 7.95,6.59 l -3.13,-35.81"/><path id="path212" style="fill:#b3c6ea;fill-opacity:1;fill-rule:nonzero;stroke:none" d="m 3127.61,2282.82 c -1.72,3 -3.67,5.89 -5.81,8.6 v 0 c 2.14,-2.7 4.08,-5.57 5.82,-8.56 l -0.01,-0.04"/><path id="path214" style="fill:#bd97cc;fill-opacity:1;fill-rule:nonzero;stroke:none" d="m 3127.62,2282.86 c -1.74,2.99 -3.68,5.86 -5.82,8.56 2.34,1.32 4.66,2.75 6.94,4.28 l -1.12,-12.84"/><path id="path216" style="fill:#d2a5d8;fill-opacity:1;fill-rule:nonzero;stroke:none" d="m 2623.32,1822.62 c -0.31,0 -0.61,0 -0.92,0 l 8.14,93.09 56.71,-40.37 206.85,33.11 62.17,92.47 c 8.89,-15.13 28.99,-22.12 49.02,-34.53 13.83,-8.56 25.25,-14.76 35.02,-16.94 -24.15,-39.45 -67.23,-98.55 -115.07,-111.66 -43.76,-11.99 -120.18,-14.4 -174.64,-14.4 -36.74,0 -63.49,1.1 -63.49,1.1 0,0 -35.35,-1.87 -63.79,-1.87"/><path id="path218" style="fill:#4870c0;fill-opacity:1;fill-rule:nonzero;stroke:none" d="m 3047.52,1948.6 c -2.3,0 -4.7,0.29 -7.21,0.85 -9.77,2.18 -21.19,8.38 -35.02,16.94 -20.03,12.41 -40.13,19.4 -49.02,34.53 -8.66,14.74 -6.69,37.19 16.35,79.88 25.5,47.26 58.37,71.68 82.96,84.12 -23.21,-23.61 -38,-53.2 -36.07,-93.64 -0.2,-3.23 -3.78,-63.31 2.3,-114.42 9.85,-5.15 18.28,-8.2 25.72,-8.21 6.76,0 12.71,2.53 18.17,8.28 0.01,0 0.01,-0.01 0.02,-0.02 -5.47,-5.78 -11.42,-8.31 -18.2,-8.31"/><path id="path220" style="fill:#436abc;fill-opacity:1;fill-rule:nonzero;stroke:none" d="m 3047.53,1948.65 c -7.44,0.01 -15.87,3.06 -25.72,8.21 -6.08,51.11 -2.5,111.19 -2.3,114.42 0.36,-7.57 1.3,-15.53 2.89,-23.9 5.3,-27.96 21.85,-57.48 43.3,-90.45 -5.46,-5.75 -11.41,-8.28 -18.17,-8.28"/><path id="path222" style="fill:#203a69;fill-opacity:1;fill-rule:nonzero;stroke:none" d="m 2978.3,2352.99 c -32.69,8.34 -37.86,20.45 -37.87,36.01 0,7.13 1.08,14.99 1.08,23.53 0,11.41 -1.91,24.06 -10.86,37.87 -8.51,13.13 -11.72,24.14 -11.72,33.27 -0.01,17.8 12.14,28.45 20.82,33.79 6.52,-1.88 13.81,-2.58 21.29,-2.58 6.3,0 12.73,0.5 18.95,1.22 -7.07,-14.51 -11.5,-30.8 -13.78,-47.8 -6.2,-2.16 -11.79,-6 -16.06,-11.23 -1.14,-1.24 -1.06,-3.17 0.18,-4.31 0.58,-0.53 1.31,-0.81 2.06,-0.81 0.4,0 0.81,0.08 1.19,0.25 l 1.28,0.92 c 2.89,3.57 6.51,6.37 10.55,8.27 -3.67,-36.91 2.29,-76.51 12.89,-108.4"/><path id="path224" style="fill:#4870c0;fill-opacity:1;fill-rule:nonzero;stroke:none" d="m 3095.25,1912.88 c -10.41,15.39 -20.41,30.02 -29.53,44.03 -0.01,0.01 -0.01,0.02 -0.02,0.02 -21.45,32.97 -38,62.49 -43.3,90.45 -1.59,8.37 -2.53,16.33 -2.89,23.9 -1.93,40.44 12.86,70.03 36.07,93.64 16.1,16.37 36.25,29.86 57.69,42.08 0.02,-0.9 0.06,-1.8 0.1,-2.71 0.48,-9.8 2.03,-19.89 4.82,-29.22 l -22.94,-262.19"/><path id="path226" style="fill:#d2a5d8;fill-opacity:1;fill-rule:nonzero;stroke:none" d="m 3071.75,2278.07 c -36.38,0 -71.34,20.23 -87.59,59.2 -2.07,4.97 -4.03,10.23 -5.86,15.72 v 0 c -10.6,31.89 -16.56,71.49 -12.89,108.4 3.92,1.84 8.24,2.82 12.67,2.82 0.51,0 1.02,-0.01 1.53,-0.04 0.14,-0.02 0.29,-0.03 0.43,-0.03 1.5,0 2.8,1.1 3.01,2.62 l 0.01,0.04 c 0.17,1.69 -1.03,3.21 -2.72,3.43 -0.77,0.05 -1.54,0.07 -2.3,0.07 -4.07,0 -8.06,-0.69 -11.83,-2 2.28,17 6.71,33.29 13.78,47.8 12.68,1.47 24.5,3.86 32.59,4.82 14.11,1.68 26.39,2.45 37.06,2.45 59.68,0 69.58,-24.14 72.21,-49.21 1.75,-16.68 6.27,-35.91 12.9,-54.26 -0.46,-4.18 -0.51,-8.23 -0.19,-11.83 0.37,-4.2 1.43,-8.08 3.01,-11.43 l -8.83,-100.94 c -2.28,-1.53 -4.6,-2.96 -6.94,-4.28 v 0 c -15.82,-8.95 -33.09,-13.35 -50.05,-13.35 m -43.77,70.27 c -0.9,0 -1.74,-0.54 -2.09,-1.43 -0.44,-1.16 0.13,-2.45 1.28,-2.9 5.92,-1.79 12.02,-2.67 18.1,-2.67 9.83,-0.01 19.6,2.31 28.5,6.86 3.81,1.89 7.43,4.12 10.84,6.66 0.99,0.72 1.21,2.11 0.49,3.09 l -0.04,0.06 c -0.44,0.59 -1.1,0.9 -1.78,0.9 -0.45,0 -0.89,-0.13 -1.28,-0.41 -10.68,-8.24 -23.68,-12.56 -36.87,-12.56 -5.46,0 -10.96,0.74 -16.34,2.25 -0.27,0.1 -0.54,0.15 -0.81,0.15 m -11.09,71.97 c -3.21,-14.98 -8.47,-29.46 -15.63,-43.01 3.78,-1.9 7.9,-2.85 12.03,-2.85 3.61,0 7.23,0.73 10.62,2.19 l -7.02,43.67 m -41.27,12.59 c -1.26,-2.29 -1.77,-5.5 -1.2,-8.95 0.97,-5.8 4.59,-10.07 8.32,-10.07 0.27,0 0.53,0.02 0.8,0.07 4.01,0.66 6.48,6.19 5.47,12.32 -0.88,5.8 -4.53,10.02 -8.25,10.07 l -14.55,1.74 c 0,0 4.59,-4.98 9.41,-5.18 m 69.87,11.29 c -1.24,-2.29 -1.75,-5.49 -1.23,-8.96 0.89,-5.81 4.43,-10.1 8.21,-10.1 0.28,0 0.56,0.02 0.84,0.07 4.08,0.7 6.55,6.22 5.55,12.36 -0.96,5.77 -4.55,10.02 -8.26,10.07 l -14.55,1.74 c 0,0 4.61,-5 9.44,-5.18 m 4.07,31.62 c 5.4,0 10.77,-1.46 15.51,-4.34 0.46,-0.25 0.97,-0.38 1.48,-0.38 0.52,0 1.05,0.14 1.52,0.41 l 1.12,1.12 c 0.84,1.46 0.33,3.32 -1.13,4.16 l -0.06,0.03 c -5.63,3.41 -12.02,5.13 -18.42,5.13 -4.9,0 -9.81,-1.01 -14.42,-3.04 -1.46,-0.81 -2.02,-2.62 -1.29,-4.12 0.55,-1.04 1.61,-1.64 2.71,-1.64 0.45,0 0.91,0.1 1.34,0.31 3.74,1.58 7.7,2.36 11.64,2.36"/><path id="path228" style="fill:#ca776f;fill-opacity:1;fill-rule:nonzero;stroke:none" d="m 3013.29,2374.45 c -4.13,0 -8.25,0.95 -12.03,2.85 7.16,13.55 12.42,28.03 15.63,43.01 l 7.02,-43.67 c -3.39,-1.46 -7.01,-2.19 -10.62,-2.19"/><path id="path230" style="fill:#234377;fill-opacity:1;fill-rule:nonzero;stroke:none" d="m 3066.55,2471.09 c -0.51,0 -1.02,0.13 -1.48,0.38 -4.74,2.88 -10.11,4.34 -15.51,4.34 -3.94,0 -7.9,-0.78 -11.64,-2.36 -0.43,-0.21 -0.89,-0.31 -1.34,-0.31 -1.1,0 -2.16,0.6 -2.71,1.64 -0.73,1.5 -0.17,3.31 1.29,4.12 4.61,2.03 9.52,3.04 14.42,3.04 6.4,0 12.79,-1.72 18.42,-5.13 l 0.06,-0.03 c 1.46,-0.84 1.97,-2.7 1.13,-4.16 l -1.12,-1.12 c -0.47,-0.27 -1,-0.41 -1.52,-0.41"/><path id="path232" style="fill:#234377;fill-opacity:1;fill-rule:nonzero;stroke:none" d="m 2952.39,2451.95 c -0.75,0 -1.48,0.28 -2.06,0.81 -1.24,1.14 -1.32,3.07 -0.18,4.31 4.27,5.23 9.86,9.07 16.06,11.23 3.77,1.31 7.76,2 11.83,2 0.76,0 1.53,-0.02 2.3,-0.07 1.69,-0.22 2.89,-1.74 2.72,-3.43 l -0.01,-0.04 c -0.21,-1.52 -1.51,-2.62 -3.01,-2.62 -0.14,0 -0.29,0.01 -0.43,0.03 -0.51,0.03 -1.02,0.04 -1.53,0.04 -4.43,0 -8.75,-0.98 -12.67,-2.82 -4.04,-1.9 -7.66,-4.7 -10.55,-8.27 l -1.28,-0.92 c -0.38,-0.17 -0.79,-0.25 -1.19,-0.25"/><path id="path234" style="fill:#234377;fill-opacity:1;fill-rule:nonzero;stroke:none" d="m 3052.47,2425.13 c -3.78,0 -7.32,4.29 -8.21,10.1 -0.52,3.47 -0.01,6.67 1.23,8.96 0.09,-0.01 0.18,-0.01 0.27,-0.01 2.02,0 4.06,0.87 5.8,3.33 l -0.96,0.12 c 3.71,-0.05 7.3,-4.3 8.26,-10.07 1,-6.14 -1.47,-11.66 -5.55,-12.36 -0.28,-0.05 -0.56,-0.07 -0.84,-0.07"/><path id="path236" style="fill:#234377;fill-opacity:1;fill-rule:nonzero;stroke:none" d="m 2982.74,2413.88 c -3.73,0 -7.35,4.27 -8.32,10.07 -0.57,3.45 -0.06,6.66 1.2,8.95 0.1,0 0.2,0 0.29,0 2.02,0 4.06,0.87 5.81,3.33 l -0.96,0.11 c 3.72,-0.05 7.37,-4.27 8.25,-10.07 1.01,-6.13 -1.46,-11.66 -5.47,-12.32 -0.27,-0.05 -0.53,-0.07 -0.8,-0.07"/><path id="path238" style="fill:#234377;fill-opacity:1;fill-rule:nonzero;stroke:none" d="m 2975.91,2432.9 c -0.09,0 -0.19,0 -0.29,0 -4.82,0.2 -9.41,5.18 -9.41,5.18 l 14.55,-1.74 0.96,-0.11 c -1.75,-2.46 -3.79,-3.33 -5.81,-3.33"/><path id="path240" style="fill:#234377;fill-opacity:1;fill-rule:nonzero;stroke:none" d="m 3045.76,2444.18 c -0.09,0 -0.18,0 -0.27,0.01 -4.83,0.18 -9.44,5.18 -9.44,5.18 l 14.55,-1.74 0.96,-0.12 c -1.74,-2.46 -3.78,-3.33 -5.8,-3.33"/><path id="path242" style="fill:#234377;fill-opacity:1;fill-rule:nonzero;stroke:none" d="m 3045.27,2341.34 c -6.08,0 -12.18,0.88 -18.1,2.67 -1.15,0.45 -1.72,1.74 -1.28,2.9 0.35,0.89 1.19,1.43 2.09,1.43 0.27,0 0.54,-0.05 0.81,-0.15 5.38,-1.51 10.88,-2.25 16.34,-2.25 13.19,0 26.19,4.32 36.87,12.56 0.39,0.28 0.83,0.41 1.28,0.41 0.68,0 1.34,-0.31 1.78,-0.9 l 0.04,-0.06 c 0.72,-0.98 0.5,-2.37 -0.49,-3.09 -3.41,-2.54 -7.03,-4.77 -10.84,-6.66 -8.9,-4.55 -18.67,-6.87 -28.5,-6.86"/><path id="path244" style="fill:#234377;fill-opacity:1;fill-rule:nonzero;stroke:none" d="m 3134.75,2419.9 c -6.63,18.35 -11.15,37.58 -12.9,54.26 -2.63,25.07 -12.53,49.21 -72.21,49.21 -10.67,0 -22.95,-0.77 -37.06,-2.45 -8.09,-0.96 -19.91,-3.35 -32.59,-4.82 -6.22,-0.72 -12.65,-1.22 -18.95,-1.22 -7.48,0 -14.77,0.7 -21.29,2.58 v 0 c -17.89,5.17 -30,19.18 -24.45,51.69 8.8,51.57 79.77,85.32 144.7,85.32 29.01,0 56.8,-6.74 77.32,-21.63 6.74,-4.9 13.33,-9.26 19.77,-13.1 l -15.54,-177.61 c -3.79,-6.6 -5.98,-14.64 -6.8,-22.23"/><path id="path246" style="fill:#d2a5d8;fill-opacity:1;fill-rule:nonzero;stroke:none" d="m 3137.57,2396.64 c -1.58,3.35 -2.64,7.23 -3.01,11.43 -0.32,3.6 -0.27,7.65 0.19,11.83 0.82,7.59 3.01,15.63 6.8,22.23 l -3.98,-45.49"/><path id="path248" style="fill:#c7d9f2;fill-opacity:1;fill-rule:nonzero;stroke:none" d="m 3214.12,2671.49 c 0.32,3.57 0.47,7.1 0.46,10.6 0.01,-3.5 -0.14,-7.03 -0.46,-10.6"/><path id="path250" style="fill:#4870c0;fill-opacity:1;fill-rule:nonzero;stroke:none" d="m 2954.24,301.078 c -3.18,-36.269 -35.26,-65.769 -71.53,-65.769 h -943.9 c -36.27,0 -63.19,29.5 -60.02,65.769 l 207.38,2370.412 c 3.18,36.26 35.26,65.76 71.53,65.76 h 943.9 c 36.27,0 63.19,-29.5 60.02,-65.76 L 2954.24,301.078 M 3106.2,2789.76 h -943.91 c -65.32,0 -122.9,-52.95 -128.62,-118.27 L 1826.29,301.078 c -5.71,-65.308 42.61,-118.269 107.93,-118.269 h 943.9 c 65.32,0 122.9,52.961 128.62,118.269 l 207.38,2370.412 c 5.72,65.32 -42.6,118.27 -107.92,118.27"/><path id="path252" style="fill:#e8effa;fill-opacity:1;fill-rule:nonzero;stroke:none" d="m 2878.12,182.809 v 0 c 32.66,0 63.38,13.242 86.66,34.64 v 0 c -23.28,-21.398 -54,-34.64 -86.66,-34.64"/><path id="path254" style="fill:#b4caec;fill-opacity:1;fill-rule:nonzero;stroke:none" d="m 2878.12,182.809 h -943.9 c -61.75,0 -108.31,47.332 -108.39,107.671 0,3.5 0.15,7.032 0.46,10.598 l 207.38,2370.412 c 5.72,65.32 63.3,118.27 128.62,118.27 h 943.91 c 61.74,0 108.3,-47.32 108.38,-107.67 0.01,-3.5 -0.14,-7.03 -0.46,-10.6 l -6.31,-72.16 -21.79,-249.05 -18.75,-214.38 -25.73,-294.09 -85.76,-980.162 -0.22,-2.5 -39.01,-445.988 -0.22,-2.5 -9.59,-109.582 c -2.86,-32.648 -18.68,-62.219 -41.96,-83.629 -23.28,-21.398 -54,-34.64 -86.66,-34.64 v 0 m -999.58,112.39 c 0.05,-33.527 25.98,-59.89 60.27,-59.89 h 943.9 c 36.27,0 68.35,29.5 71.53,65.769 l 207.38,2370.412 c 0.17,1.98 0.26,3.94 0.25,5.88 -0.05,33.52 -25.98,59.88 -60.27,59.88 h -554.05 -2.5 -117.84 -2.5 -267.01 c -36.27,0 -68.35,-29.5 -71.53,-65.76 l -158.34,-1809.842 -0.21,-2.5 -39.02,-445.988 -0.22,-2.5 -9.59,-109.582 c -0.17,-1.976 -0.26,-3.937 -0.25,-5.879"/><path id="path256" style="fill:#ffffff;fill-opacity:1;fill-rule:nonzero;stroke:none" d="m 2547.87,329.262 c -5.62,0 -254,0 -259.62,0 -8.04,0 -15.13,-6.524 -15.84,-14.571 -0.7,-8.043 5.25,-14.562 13.29,-14.562 5.72,0 253.9,0 259.62,0 8.05,0 15.14,6.519 15.84,14.562 0.71,8.047 -5.25,14.571 -13.29,14.571"/><path id="path258" style="fill:#b1c3e8;fill-opacity:1;fill-rule:nonzero;stroke:none" d="m 2541.53,1687.32 h -114.32 v 413.34 h 117.84 V 1931.4 c -7.74,0.8 -14.89,1.29 -20.81,1.29 -9.99,0 -16.49,-1.39 -16.49,-5 0,-8.83 20.03,-16.77 37.3,-21.97 v -218.31 c -1.17,-0.06 -2.34,-0.09 -3.52,-0.09 m -116.82,0 h -158.44 c -38.13,0 -66.33,30.91 -63,69.04 l 24.09,275.26 c 3.33,38.13 36.94,69.04 75.07,69.04 h 122.28 v -413.34 m 122.84,0.26 v 217.4 c 12.01,-3.49 22.07,-5.56 22.07,-5.56 0,0 3.64,-73.81 29.12,-76.03 6.17,-0.54 14.53,-0.75 23.66,-0.77 l -5.8,-66.26 c -3.16,-36.11 -33.46,-65.74 -69.05,-68.78 m 82.99,228.13 -2.69,1.92 c 0,0 -45.33,9.65 -80.3,13.5 v 169.53 h 30.14 c 38.13,0 66.33,-30.91 62.99,-69.04 l -10.14,-115.91"/><path id="path260" style="fill:#a2b6df;fill-opacity:1;fill-rule:nonzero;stroke:none" d="m 2424.71,1687.32 h 2.5 v 413.34 h -2.5 z"/><path id="path262" style="fill:#a2b6df;fill-opacity:1;fill-rule:nonzero;stroke:none" d="m 2545.05,1687.41 v 218.31 c 0.84,-0.25 1.68,-0.5 2.5,-0.74 v -217.4 c -0.83,-0.07 -1.66,-0.13 -2.5,-0.17 m 2.5,243.72 c -0.84,0.1 -1.67,0.19 -2.5,0.27 v 169.26 h 2.5 v -169.53"/><path id="path264" style="fill:#ba91c2;fill-opacity:1;fill-rule:nonzero;stroke:none" d="m 2622.4,1822.62 c -9.13,0.02 -17.49,0.23 -23.66,0.77 -25.48,2.22 -29.12,76.03 -29.12,76.03 0,0 -10.06,2.07 -22.07,5.56 -0.82,0.24 -1.66,0.49 -2.5,0.74 -17.27,5.2 -37.3,13.14 -37.3,21.97 0,3.61 6.5,5 16.49,5 5.92,0 13.07,-0.49 20.81,-1.29 0.83,-0.08 1.66,-0.17 2.5,-0.27 34.97,-3.85 80.3,-13.5 80.3,-13.5 l 2.69,-1.92 -8.14,-93.09"/><path id="path266" style="fill:#4870c0;fill-opacity:1;fill-rule:nonzero;stroke:none" d="m 2511.53,1717.32 h -275.26 c -38.13,0 -66.33,30.91 -63,69.04 l 24.09,275.26 c 3.33,38.13 36.94,69.04 75.07,69.04 h 275.26 c 38.13,0 66.33,-30.91 63,-69.04 l -24.09,-275.26 c -3.34,-38.13 -36.94,-69.04 -75.07,-69.04"/><path id="path268" style="fill:#ffffff;fill-opacity:1;fill-rule:nonzero;stroke:none" d="m 2438.21,1948.98 c 4.67,53.33 -40.54,96.56 -100.98,96.56 -60.44,0 -113.21,-43.23 -117.88,-96.56 -3.69,-42.16 23.85,-77.9 65.37,-91.07 -6.83,-12.29 -16.43,-21.54 -26.22,-25.91 2.02,-1.13 4.06,-2.27 6.34,-3.1 22.05,-7.97 47.53,2.64 59.79,23.71 58.61,2 109.03,44.31 113.58,96.37"/><path id="path270" style="fill:#ffffff;fill-opacity:1;fill-rule:nonzero;stroke:none" d="m 2564.93,1902.71 c 3.85,44.02 -33.47,79.7 -83.35,79.7 -8.94,0 -17.65,-1.18 -25.98,-3.31 2.04,-9.62 2.84,-19.69 1.93,-30.12 -3.34,-38.16 -26.63,-71.88 -60.07,-92.97 13.63,-18.48 36.53,-31.01 63.82,-32.71 6.08,-16.53 24.23,-24.99 42.25,-18.86 1.82,0.62 3.5,1.48 5.17,2.33 -6.72,3.26 -12.55,10.23 -16.08,19.34 38.69,9.5 69.12,40.17 72.31,76.6"/><path id="path272" style="fill:#b1c3e8;fill-opacity:1;fill-rule:nonzero;stroke:none" d="m 2415.33,835.109 h -204.74 c -18.32,0 -33.57,9.59 -41.39,24.039 h 200.94 c 31.46,0 57.07,25.602 57.07,57.082 v 226.31 h 15.01 c 28.36,0 49.34,-22.99 46.86,-51.35 l -17.91,-204.741 c -2.48,-28.359 -27.48,-51.34 -55.84,-51.34 m -45.19,26.539 h -202.2 c -3.42,7.352 -4.99,15.813 -4.2,24.801 l 17.91,204.741 c 2.48,28.36 27.48,51.35 55.84,51.35 h 187.22 V 916.23 c 0,-30.101 -24.48,-54.582 -54.57,-54.582"/><path id="path274" style="fill:#a2b6df;fill-opacity:1;fill-rule:nonzero;stroke:none" d="M 2370.14,859.148 H 2169.2 c -0.44,0.821 -0.86,1.653 -1.26,2.5 h 202.2 c 30.09,0 54.57,24.481 54.57,54.582 v 226.31 h 2.5 V 916.23 c 0,-31.48 -25.61,-57.082 -57.07,-57.082"/><path id="path276" style="fill:#b1c3e8;fill-opacity:1;fill-rule:nonzero;stroke:none" d="m 2715.65,1233.53 h -168.1 v 384.3 h 201.72 c 35.45,0 61.67,-28.74 58.57,-64.19 l -22.39,-255.92 c -3.1,-35.45 -34.35,-64.19 -69.8,-64.19 m -170.6,0 h -85.32 c -12.21,0 -23.32,3.41 -32.52,9.33 v 327.5 c 9.75,27.34 36.47,47.47 66.14,47.47 h 51.7 v -384.3 m -120.34,11.03 c -16.01,11.54 -25.49,31.05 -23.55,53.16 l 22.39,255.92 c 0.23,2.66 0.62,5.28 1.16,7.85 v -316.93"/><path id="path278" style="fill:#a2b6df;fill-opacity:1;fill-rule:nonzero;stroke:none" d="m 2427.21,1242.86 c -0.85,0.54 -1.68,1.11 -2.5,1.7 v 316.93 c 0.63,3.03 1.47,5.99 2.5,8.87 v -327.5"/><path id="path280" style="fill:#a2b6df;fill-opacity:1;fill-rule:nonzero;stroke:none" d="m 2545.05,1233.53 h 2.5 v 384.297 h -2.5 z"/><path id="path282" style="fill:#4870c0;fill-opacity:1;fill-rule:nonzero;stroke:none" d="m 2685.65,1263.53 h -255.92 c -35.45,0 -61.68,28.74 -58.57,64.19 l 22.39,255.92 c 3.1,35.45 34.35,64.19 69.8,64.19 h 255.92 c 35.45,0 61.67,-28.74 58.57,-64.19 l -22.39,-255.92 c -3.1,-35.45 -34.35,-64.19 -69.8,-64.19"/><path id="path284" style="fill:#4870c0;fill-opacity:1;fill-rule:nonzero;stroke:none" d="m 2385.33,865.109 h -204.74 c -28.36,0 -49.34,22.981 -46.85,51.34 l 17.91,204.741 c 2.48,28.36 27.48,51.35 55.84,51.35 h 204.73 c 28.36,0 49.34,-22.99 46.86,-51.35 l -17.91,-204.741 c -2.48,-28.359 -27.48,-51.34 -55.84,-51.34"/><path id="path286" style="fill:#ffffff;fill-opacity:1;fill-rule:nonzero;stroke:none" d="m 2628.43,1455.83 79.51,73.11 -12.79,-146.23 z m -95.64,-13.36 17.54,-19.22 c 5.37,-5.89 12.84,-8.83 20.56,-8.83 7.73,0 15.71,2.95 22.1,8.83 l 20.91,19.22 66.99,-73.41 h -227.93 z m -64.38,99.83 h 227.34 L 2580.8,1436.61 c -4.78,-4.41 -11.93,-4.4 -15.94,0 z m 52.18,-86.46 -79.51,-73.13 12.79,146.23 z m 181.86,105.36 h -237.44 c -15,0 -28.28,-12.21 -29.59,-27.21 l -13.7,-156.61 c -1.32,-15.01 9.82,-27.23 24.83,-27.23 h 237.44 c 15,0 28.28,12.22 29.59,27.23 l 13.7,156.61 c 1.32,15 -9.83,27.21 -24.83,27.21"/><path id="path288" style="fill:#ffffff;fill-opacity:1;fill-rule:nonzero;stroke:none" d="m 2202.55,1073.98 59.9,-24.47 66.01,45.27 -49.58,-58.74 36.46,-51.392 57.68,143.182 -170.47,-53.85"/><path id="path290" style="fill:#ffffff;fill-opacity:1;fill-rule:nonzero;stroke:none" d="m 2258.36,1035.95 27.02,-33.03 h -28.75 z"/><path id="path292" style="fill:#ffffff;fill-opacity:1;fill-rule:nonzero;stroke:none" d="m 2234.47,992.809 -6.31,4.062 c 3.26,5.079 6.04,8.329 6.15,8.469 l 5.71,-4.86 c -0.03,-0.03 -2.58,-3.05 -5.55,-7.671"/><path id="path294" style="fill:#ffffff;fill-opacity:1;fill-rule:nonzero;stroke:none" d="m 2225.2,969.301 -7.47,0.609 c 0.47,5.719 2.39,12.008 5.71,18.699 l 6.72,-3.339 c -2.9,-5.84 -4.57,-11.211 -4.96,-15.969 z m 6.34,-25.75 c -6.72,4.027 -11.07,9.41 -12.92,16 l 7.22,2.027 c 1.33,-4.758 4.45,-8.547 9.54,-11.578 l -3.84,-6.449"/><path id="path296" style="fill:#ffffff;fill-opacity:1;fill-rule:nonzero;stroke:none" d="m 2323.68,937.941 -0.71,7.457 c 6.44,0.614 12.61,1.133 18.37,1.411 l 0.36,-7.5 c -5.65,-0.258 -11.71,-0.778 -18.02,-1.368 z m 43.54,-0.921 c -3.99,1.558 -9.43,2.371 -16.63,2.468 l 0.11,7.5 c 8.11,-0.117 14.41,-1.078 19.25,-2.976 z m -107.99,-1.481 c -1.04,0.121 -2.08,0.25 -3.11,0.402 -5.79,0.789 -11.02,1.969 -15.53,3.508 l 2.42,7.09 c 4.06,-1.379 8.81,-2.449 14.13,-3.18 l 2.89,-0.347 z m 37.1,-0.07 -0.53,7.48 c 6.1,0.442 12.16,1.012 18.08,1.582 l 0.73,-7.461 c -5.99,-0.59 -12.12,-1.16 -18.28,-1.601 z m -19.93,-0.789 c -2.64,0.011 -5.26,0.05 -7.84,0.16 l 0.32,7.5 c 5.86,-0.25 11.85,-0.192 17.91,0.082 l 0.34,-7.5 c -3.6,-0.16 -7.18,-0.242 -10.73,-0.242 z m 106.32,-17.289 -7.4,1.289 c 0.35,1.961 0.52,3.769 0.52,5.429 0,3.801 -0.89,6.731 -2.71,8.93 l 5.78,4.77 c 2.94,-3.547 4.43,-8.161 4.43,-13.7 0,-2.05 -0.2,-4.289 -0.62,-6.718"/><path id="path298" style="fill:#ffffff;fill-opacity:1;fill-rule:nonzero;stroke:none" d="m 2376.46,898.141 -6.87,3.007 c 1.41,3.231 2.58,6.25 3.52,9.032 l 7.11,-2.379 c -0.99,-2.981 -2.24,-6.192 -3.76,-9.66"/><path id="path300" style="fill:#b1c3e8;fill-opacity:1;fill-rule:nonzero;stroke:none" d="m 2654,2156.46 h -106.45 v 345.87 h 136.71 c 31.9,0 55.5,-25.86 52.71,-57.77 l -20.15,-230.33 c -2.79,-31.9 -30.91,-57.77 -62.82,-57.77 m -108.95,0 h -117.84 v 339.61 c 8.21,4 17.3,6.26 26.72,6.26 h 91.12 v -345.87 m -120.34,0 h -1.04 c -31.91,0 -55.5,25.87 -52.71,57.77 l 20.15,230.33 c 1.88,21.52 15.29,40.28 33.6,50.22 v -338.32"/><path id="path302" style="fill:#a2b6df;fill-opacity:1;fill-rule:nonzero;stroke:none" d="m 2427.21,2156.46 h -2.5 v 338.32 c 0.82,0.45 1.66,0.88 2.5,1.29 v -339.61"/><path id="path304" style="fill:#a2b6df;fill-opacity:1;fill-rule:nonzero;stroke:none" d="m 2545.05,2156.46 h 2.5 v 345.867 h -2.5 z"/><path id="path306" style="fill:#4870c0;fill-opacity:1;fill-rule:nonzero;stroke:none" d="m 2624,2186.46 h -230.33 c -31.91,0 -55.5,25.87 -52.71,57.77 l 20.15,230.33 c 2.79,31.91 30.92,57.77 62.82,57.77 h 230.33 c 31.9,0 55.5,-25.86 52.71,-57.77 l -20.15,-230.33 c -2.79,-31.9 -30.91,-57.77 -62.82,-57.77"/><path id="path308" style="fill:#ffffff;fill-opacity:1;fill-rule:nonzero;stroke:none" d="m 2636.34,2312.48 c -4.18,84.71 -65.4,151.79 -149.1,163.39 -22.37,12.06 -52.21,5.77 -70.1,-16.21 -19.76,-24.27 -2.28,-39.73 20.44,-57.37 22.73,-17.63 42.11,-30.75 61.87,-6.48 7.72,9.49 11.94,20.45 13,31.35 37.51,-15.39 65.76,-46.35 77.75,-85.2 -10.91,-0.11 -22.16,-3.38 -32.25,-10.27 -25.81,-17.63 -14.48,-38.16 1.03,-62.43 15.51,-24.27 29.33,-43.1 55.14,-25.46 23.37,15.96 32.22,45.26 22.22,68.68"/><path id="path310" style="fill:#4870c0;fill-opacity:1;fill-rule:nonzero;stroke:none" d="m 2540.23,2829.55 c 52.27,0 104.54,0 156.81,0 7.72,0 8.78,12 1.05,12 -52.27,0 -104.54,0 -156.81,0 -7.72,0 -8.79,-12 -1.05,-12"/><path id="path312" style="fill:#4870c0;fill-opacity:1;fill-rule:nonzero;stroke:none" d="m 2754.48,2829.55 c 15.02,0 30.04,0 45.06,0 7.72,0 8.78,12 1.05,12 -15.02,0 -30.04,0 -45.06,0 -7.72,0 -8.79,-12 -1.05,-12"/><path id="path314" style="fill:#799bd7;fill-opacity:1;fill-rule:nonzero;stroke:none" d="m 2697.04,2829.55 c -49.83,0 -99.66,0 -149.49,0 -0.83,0 -1.67,0 -2.5,0 -1.61,0 -3.22,0 -4.82,0 -3.6,0 -5.29,2.6 -5.3,5.37 -0.01,3.2 2.21,6.63 6.35,6.63 52.27,0 104.54,0 156.81,0 3.59,0 5.29,-2.59 5.3,-5.36 0,-3.2 -2.22,-6.64 -6.35,-6.64"/><path id="path316" style="fill:#799bd7;fill-opacity:1;fill-rule:nonzero;stroke:none" d="m 2799.54,2829.55 c -15.02,0 -30.04,0 -45.06,0 -3.59,0 -5.29,2.6 -5.3,5.37 -0.01,3.2 2.22,6.63 6.35,6.63 15.02,0 30.04,0 45.06,0 3.59,0 5.29,-2.59 5.3,-5.36 0,-3.2 -2.22,-6.64 -6.35,-6.64"/><path id="path318" style="fill:#4870c0;fill-opacity:1;fill-rule:nonzero;stroke:none" d="m 3056.96,1616.46 c -4.57,-52.26 -9.14,-104.54 -13.72,-156.8 -0.67,-7.73 11.23,-8.79 11.91,-1.06 4.57,52.28 9.15,104.54 13.72,156.82 0.68,7.71 -11.23,8.78 -11.91,1.04"/><path id="path320" style="fill:#4870c0;fill-opacity:1;fill-rule:nonzero;stroke:none" d="m 3038.22,1402.21 c -1.31,-15.01 -2.63,-30.03 -3.95,-45.05 -0.67,-7.73 11.24,-8.79 11.91,-1.06 1.32,15.02 2.63,30.04 3.94,45.06 0.68,7.72 -11.23,8.79 -11.9,1.05"/><path id="path322" style="fill:#799bd7;fill-opacity:1;fill-rule:nonzero;stroke:none" d="m 3049.3,1453.3 c -3.03,0 -6.09,2.01 -6.08,5.74 0,0.2 0.01,0.41 0.02,0.62 4.58,52.26 9.15,104.54 13.72,156.8 0.32,3.61 3.07,5.3 5.86,5.3 3.02,0 6.08,-2 6.08,-5.73 0,-0.2 -0.01,-0.4 -0.03,-0.61 -4.57,-52.28 -9.15,-104.54 -13.72,-156.82 -0.31,-3.6 -3.07,-5.3 -5.85,-5.3"/><path id="path324" style="fill:#799bd7;fill-opacity:1;fill-rule:nonzero;stroke:none" d="m 3040.33,1350.8 c -3.02,0 -6.09,2.01 -6.08,5.74 0,0.2 0.01,0.41 0.02,0.62 1.32,15.02 2.64,30.04 3.95,45.05 0.31,3.61 3.07,5.3 5.85,5.3 3.03,0 6.09,-2 6.08,-5.74 0,-0.2 -0.01,-0.4 -0.03,-0.61 -1.31,-15.02 -2.62,-30.04 -3.94,-45.06 -0.31,-3.6 -3.06,-5.3 -5.85,-5.3"/><path id="path326" style="fill:#1d2a30;fill-opacity:1;fill-rule:nonzero;stroke:none" d="m 1668.53,2314.21 c 0,0 -58.02,7.96 -51.02,-22.23 5.12,-22.07 24.61,21.26 51.02,22.23"/><path id="path328" style="fill:#f46e75;fill-opacity:1;fill-rule:nonzero;stroke:none" d="m 1618.13,2245.67 c 0,0 47.78,0.44 55.17,87.6 0,0 45.57,15.88 71.49,-12.5 25.91,-28.37 -33.57,-83.46 -0.76,-112.03 0,0 -32.83,-17.9 -125.9,36.93"/><path id="path330" style="fill:#1d2a30;fill-opacity:1;fill-rule:nonzero;stroke:none" d="m 1795,2553.34 c 0,0 61.59,13.22 77.58,-32.09 16,-45.3 -91.19,-25.39 -91.19,-25.39 l 13.61,57.48"/><path id="path332" style="fill:#161c1e;fill-opacity:1;fill-rule:nonzero;stroke:none" d="m 1843.02,2492.2 c -8.76,25.81 -23.97,47.87 -47.73,61.2 1.58,0.31 9.32,1.74 19.44,1.74 19.47,0 47.75,-5.27 57.85,-33.89 1.12,-3.15 1.63,-5.99 1.63,-8.54 -0.01,-13.25 -14.04,-18.74 -31.19,-20.51"/><path id="path334" style="fill:#1d2a30;fill-opacity:1;fill-rule:nonzero;stroke:none" d="m 1845.38,2440.44 c 0.98,5.79 4.85,9.96 8.63,9.32 3.78,-0.64 6.06,-5.85 5.07,-11.64 -0.97,-5.79 -4.84,-9.96 -8.62,-9.32 -3.78,0.64 -6.06,5.85 -5.08,11.64"/><path id="path336" style="fill:#f03c51;fill-opacity:1;fill-rule:nonzero;stroke:none" d="m 1848.38,2429.51 26.97,-43.54 c 0,0 -14.46,-10.41 -34.43,-2.96 l 7.46,46.5"/><path id="path338" style="fill:#f46e75;fill-opacity:1;fill-rule:nonzero;stroke:none" d="m 1644.69,2468.41 c -3.36,-74.08 -6.38,-105.42 26.75,-147.18 52.69,-44.54 141.69,-50.78 167.11,20.87 22.9,64.46 24.53,174.51 -44.41,211.94 -49.15,26.66 -110.61,8.41 -137.26,-40.74 -7.49,-13.81 -11.66,-29.18 -12.19,-44.89"/><path id="path340" style="fill:#1d2a30;fill-opacity:1;fill-rule:nonzero;stroke:none" d="m 1836.08,2458.71 c 1.08,-0.39 2.28,-0.25 3.23,0.39 6.95,5.33 16.04,6.98 24.42,4.42 1.75,-0.65 3.7,0.22 4.39,1.96 0.66,1.77 -0.19,3.74 -1.94,4.47 -10.52,3.38 -22.04,1.44 -30.88,-5.2 -1.56,-0.99 -2.02,-3.06 -1.03,-4.62 l 0.1,-0.14 1.71,-1.28"/><path id="path342" style="fill:#1d2a30;fill-opacity:1;fill-rule:nonzero;stroke:none" d="m 1584.45,2230.62 c 0,0 20.64,56.88 105.92,20.63 85.29,-36.24 93.34,-86.26 93.34,-86.26 l -199.26,65.63"/><path id="path344" style="fill:#16191b;fill-opacity:1;fill-rule:nonzero;stroke:none" d="m 1777.83,2180.55 c -44.93,35.73 -124.82,57.57 -185.49,62.75 7.79,9.2 22.21,20.03 46.91,20.03 13.68,0 30.51,-3.32 51.12,-12.08 55.53,-23.6 78.32,-53.03 87.46,-70.7"/><path id="path346" style="fill:#f46e75;fill-opacity:1;fill-rule:nonzero;stroke:none" d="m 1622.81,1152.22 c 0,0 -12.16,-103.67 -17.95,-137.96 -5.13,-30.401 -169.84,-817.041 -169.84,-817.041 l -75.15,12.429 c 0,0 -8.31,398.704 49.47,662.563 11.83,54.027 35.75,99.258 44.44,140.529 6.97,33.16 -3.55,135.47 -3.55,135.47 l 172.58,4.01"/><path id="path348" style="fill:#f46e75;fill-opacity:1;fill-rule:nonzero;stroke:none" d="m 1310,1169.1 c 0,0 -34.92,-94.96 -51.18,-124.4 -17.69,-32 -84.9,-119.098 -84.9,-119.098 L 815.902,423.371 747.418,466.699 c 0,0 103.301,276.539 258.882,501.742 37.08,53.689 90.5,94.599 119.47,147.869 16.7,30.68 30.97,136.27 30.97,136.27 L 1310,1169.1"/><path id="path350" style="fill:#f46e75;fill-opacity:1;fill-rule:nonzero;stroke:none" d="m 1406.01,2130.75 c 0,0 -85.69,-109.29 -78.44,-155.24 7.26,-45.94 141.62,-101.81 141.62,-101.81 l 34.1,48.5 -88.23,64.43 83.99,96.28 -93.04,47.84"/><path id="path352" style="fill:#1d2a30;fill-opacity:1;fill-rule:nonzero;stroke:none" d="m 1547.72,2240.17 c -10.77,5.03 -58.17,24.09 -160.74,-109.16 0,0 37.34,-46.48 117.26,-74.16 0,0 89.97,161.6 43.48,183.32"/><path id="path354" style="fill:#16191b;fill-opacity:1;fill-rule:nonzero;stroke:none" d="m 1475.51,2068.33 c -18.57,8.47 -34.08,17.69 -46.7,26.39 12.04,22.74 48.75,90.62 75.3,124.51 -15.18,-28.45 -20.07,-82.88 -28.6,-150.9"/><path id="path356" style="fill:#4870c0;fill-opacity:1;fill-rule:nonzero;stroke:none" d="m 1423.54,1797.58 c 0,0 137.65,-81.44 318.95,-91.8 l -115.57,-644.09 c 0,0 -333.41,1.02 -507.74,166.66 0,0 69.49,350.96 304.36,569.23"/><path id="path358" style="fill: #FF5722;fill-opacity:1;fill-rule:nonzero;stroke:none;" d="m 1409.35,1795.75 c 0,0 133.51,-98.41 346.15,-91.66 0,0 122.1,337.79 45.59,452.02 -47.29,70.6 -228.87,102.58 -277.81,82.47 -58.89,-24.19 -24.81,-236.04 -113.93,-442.83"/><path id="path360" style="fill:#e8e8e7;fill-opacity:1;fill-rule:nonzero;stroke:none" d="m 1337.69,1108.5 c -14.7,4.53 -29.68,9.65 -44.47,15.46 14.78,-5.65 29.65,-10.79 44.47,-15.46"/><path id="path362" style="fill:#4168bb;fill-opacity:1;fill-rule:nonzero;stroke:none" d="m 1452.9,1080.13 c -26.97,5.94 -69.81,14.37 -115.21,28.37 -14.82,4.67 -29.69,9.81 -44.47,15.46 -0.1,0.04 -0.21,0.08 -0.31,0.12 l 148.47,324.65 c 16.5,-65.28 11.52,-368.6 11.52,-368.6"/><path id="path364" style="fill:#16191b;fill-opacity:1;fill-rule:nonzero;stroke:none" d="m 1809.49,1899.54 c -67.63,98.56 -88.02,183.94 -88.02,183.94 l 23.61,17.41 28.54,-13.42 52.59,-44.59 c -0.09,-45.29 -7.09,-95.57 -16.72,-143.34"/><path id="path366" style="fill:#f46e75;fill-opacity:1;fill-rule:nonzero;stroke:none" d="m 1878.91,2052.01 80.03,-111.48 201.01,-13.26 36.91,30.7 c 2.48,2.07 5.54,3.31 8.77,3.57 l 107.32,8.51 c 3.3,0.26 6.06,-2.47 5.84,-5.77 l -0.61,-9.14 c -0.18,-2.69 -2.3,-4.83 -4.98,-5.04 l -50.85,-4.04 -10.36,-52.16 c -1.18,-5.95 -5.67,-10.71 -11.55,-12.21 l -39.86,-10.24 c -2.56,-0.66 -5.25,-0.66 -7.81,-0.01 l -28.16,7.15 c 0,0 -156.67,-31.65 -228.61,-18.95 -71.94,12.69 -142.83,129.69 -142.83,129.69 l 85.74,62.68"/><path id="path368" style="fill:#1d2a30;fill-opacity:1;fill-rule:nonzero;stroke:none" d="m 1786.3,1967.38 c 0,0 -128.83,172.23 -49.34,212.26 79.5,40.02 163.08,-137.03 163.08,-137.03 0,0 -32.68,-49.96 -113.74,-75.23"/><path id="path370" style="fill:#4870c0;fill-opacity:1;fill-rule:nonzero;stroke:none" d="m 1457.77,204.121 c 15.34,-2.492 36.23,-3.141 40.27,2.109 0.58,0.649 1.14,1.801 -0.23,4.301 -0.74,1.489 -2.12,2.547 -3.75,2.899 -1.2,0.379 -2.46,0.59 -3.73,0.621 -11.38,-1.231 -22.43,-4.602 -32.56,-9.93 z m -6.45,-2.402 -1.53,1.672 1.03,2.007 c 1.3,0.68 30.8,16.102 44.48,11.782 2.56,-0.758 4.71,-2.5 6.01,-4.821 1.76,-2.589 1.69,-6.019 -0.17,-8.531 -3.57,-4.297 -14.28,-5.789 -24.58,-5.398 -8.5,0.359 -16.94,1.461 -25.24,3.289"/><path id="path372" style="fill:#4870c0;fill-opacity:1;fill-rule:nonzero;stroke:none" d="m 1473.12,234.52 c -2.48,0.121 -4.92,-0.68 -6.86,-2.219 -6.45,-6.903 -10.62,-15.621 -11.95,-24.981 10.49,5.692 24.06,19.25 23.76,24.879 -0.12,0.512 -0.3,1.949 -3.82,2.383 z m -22.84,-32.649 -0.82,1.809 c 0.16,1.031 3.2,23.289 14.07,31.558 3.13,2.453 7.12,3.524 11.05,2.953 5.38,-0.742 6.96,-3.531 7.08,-5.793 1.42,-9.386 -19.15,-26.597 -29.22,-30.617 l -0.82,-0.043 -1.34,0.133"/><path id="path374" style="fill:#1d2a30;fill-opacity:1;fill-rule:nonzero;stroke:none" d="M 1443.29,213.629 1352.9,217 c -3.41,0.141 -6.45,-2.121 -7.32,-5.422 l -19.09,-72.93 c -1.74,-6.457 2.09,-13.097 8.55,-14.839 l 2.53,-0.399 c 32.61,-0.648 61.65,0.051 102.22,-1.519 47.87,-1.801 35.51,-7.071 91.77,-9.981 33.9,-1.711 41.54,36.61 27.23,39.039 -65.5,10.75 -71.6,30.871 -96.1,55.379 -5.35,4.723 -12.26,7.332 -19.4,7.301"/><path id="path376" style="fill:#4870c0;fill-opacity:1;fill-rule:nonzero;stroke:none" d="m 833.977,417.66 c 12.57,-9.129 30.925,-19.129 36.898,-16.269 0.813,0.328 1.832,1.109 1.738,3.949 0.004,1.66 -0.746,3.23 -2.047,4.269 -0.902,0.891 -1.925,1.653 -3.046,2.231 -10.715,4.051 -22.094,6.019 -33.543,5.82 z m -6.84,0.77 -0.614,2.179 1.825,1.332 c 1.468,0.028 34.757,0.489 45.027,-9.531 1.93,-1.84 3.078,-4.359 3.188,-7.012 0.402,-3.117 -1.2,-6.136 -3.997,-7.546 -5.132,-2.231 -15.367,1.277 -24.382,6.257 -7.418,4.153 -14.461,8.942 -21.047,14.321"/><path id="path378" style="fill:#4870c0;fill-opacity:1;fill-rule:nonzero;stroke:none" d="m 861.391,437.879 c -2.161,1.223 -4.696,1.621 -7.129,1.121 -8.864,-3.262 -16.52,-9.16 -21.926,-16.91 11.93,0.351 30.156,6.328 32.43,11.488 0.121,0.524 0.601,1.871 -2.34,3.844 z m -35.11,-18.84 0.086,1.981 c 0.602,0.851 13.352,19.351 26.789,21.832 3.891,0.769 7.934,-0.082 11.188,-2.352 4.465,-3.09 4.625,-6.301 3.711,-8.359 -2.965,-9.02 -29.086,-15.102 -39.883,-14.153 l -0.754,0.332 -1.137,0.719"/><path id="path380" style="fill:#1d2a30;fill-opacity:1;fill-rule:nonzero;stroke:none" d="m 825.344,432.68 -79.164,43.769 c -2.985,1.653 -6.715,1.02 -8.977,-1.527 L 687.285,418.43 c -4.465,-4.989 -4.047,-12.641 0.934,-17.102 l 2.082,-1.508 c 28.812,-15.281 55.051,-27.738 90.554,-47.441 41.918,-23.188 28.512,-22.32 77.415,-50.277 29.48,-16.813 53.582,13.937 41.914,22.566 -53.629,39.121 -49.993,59.832 -60.821,92.754 -2.648,6.637 -7.633,12.066 -14.019,15.258"/><path id="path382" style="fill:#1d2a30;fill-opacity:1;fill-rule:nonzero;stroke:none" d="m 1769.53,2404.74 c 0,0 30.42,9.52 18.94,53.55 0,0 17.71,29.65 14.88,45.9 0,0 89.8,51.85 38.65,108.8 -51.14,56.95 -144.72,18.83 -185.98,-53.89 0,0 -219.53,-71.35 -66.75,-205.56 149.19,-131.05 180.26,51.2 180.26,51.2"/><path id="path384" style="fill:#1d2a30;fill-opacity:1;fill-rule:nonzero;stroke:none" d="m 1679.35,2528.64 c 0,0 -34.22,75.34 17.2,132.19 51.42,56.85 -34.13,-80.14 -17.2,-132.19"/><path id="path386" style="fill:#4870c0;fill-opacity:1;fill-rule:nonzero;stroke:none" d="m 1769.53,2404.74 c 0,0 0.96,0.32 2.43,1.03 -0.4,56.34 -21.69,123.98 -104.85,170.16 -3.97,-5.4 -7.75,-10.95 -11.09,-16.83 0,0 -6.33,-2.08 -15.97,-6.1 28.76,-30.6 107.8,-131.88 18.92,-242.6 89.65,-27.94 110.56,94.34 110.56,94.34"/><path id="path388" style="fill:#f46e75;fill-opacity:1;fill-rule:nonzero;stroke:none" d="m 1773.5,2431.12 c 10.24,-11.17 15.6,-25.96 14.91,-41.09 -1.07,-20.08 -20.66,-23.86 -36.29,-13.06 -14.16,9.77 -30.48,31.94 -21.72,49.63 8.76,17.68 30.43,18.04 43.1,4.52"/><path id="path390" style="fill:#1d2a30;fill-opacity:1;fill-rule:nonzero;stroke:none" d="m 1852.57,2449.62 16.28,0.84 c 0,0 -10.63,-10.07 -16.28,-0.84"/><path id="path392" style="fill:#cecdcc;fill-opacity:1;fill-rule:nonzero;stroke:none" d="m 1740.4,2260.76 c -0.01,0.01 -0.02,0.01 -0.02,0.02 1.26,3.59 2.59,7.19 3.87,10.77 -1.27,-3.58 -2.59,-7.19 -3.85,-10.79"/><path id="path394" style="fill:#e75656;fill-opacity:1;fill-rule:nonzero;stroke:none" d="m 1740.38,2260.78 c -21.25,13.24 -31.89,31.11 -36.03,39.65 14.51,-6.64 29.97,-10.84 45.13,-12.11 -1.32,-5.44 -3.21,-11.07 -5.23,-16.77 -1.28,-3.58 -2.61,-7.18 -3.87,-10.77"/><path id="path396" style="fill:#e75656;fill-opacity:1;fill-rule:nonzero;stroke:none" d="m 1749.48,2288.32 c -15.16,1.27 -30.62,5.47 -45.13,12.11 -0.01,0.01 -0.01,0.01 -0.01,0.01 14.54,-6.65 30,-10.73 45.17,-11.99 -0.01,-0.04 -0.02,-0.08 -0.03,-0.13"/></g></g></svg>