<svg xmlns:dc="http://purl.org/dc/elements/1.1/" xmlns:cc="http://creativecommons.org/ns#" xmlns:rdf="http://www.w3.org/1999/02/22-rdf-syntax-ns#" xmlns:svg="http://www.w3.org/2000/svg" xmlns="http://www.w3.org/2000/svg" viewBox="0 0 1066.6653 1066.6667" height="1066.6667" width="1066.6653" xml:space="preserve" id="svg2" version="1.1"><metadata id="metadata8"><rdf:RDF><cc:Work rdf:about=""><dc:format>image/svg+xml</dc:format><dc:type rdf:resource="http://purl.org/dc/dcmitype/StillImage"/></cc:Work></rdf:RDF></metadata><defs id="defs6"><clipPath id="clipPath20" clipPathUnits="userSpaceOnUse"><path id="path18" d="M 0,800 H 800 V 0 H 0 Z"/></clipPath><clipPath id="clipPath80" clipPathUnits="userSpaceOnUse"><path id="path78" d="M 0,800 H 800 V 0 H 0 Z"/></clipPath><clipPath id="clipPath284" clipPathUnits="userSpaceOnUse"><path id="path282" d="M 0,800 H 800 V 0 H 0 Z"/></clipPath></defs><g transform="matrix(1.3333333,0,0,-1.3333333,0,1066.6667)" id="g10"><g id="g14"><g clip-path="url(#clipPath20)" id="g16"><g transform="translate(331.3348,133.1134)" id="g22"><path id="path24" style="fill:#95faff;fill-opacity:1;fill-rule:nonzero;stroke:none" d="m 0,0 c -10.974,3.485 -22.148,6.178 -33.015,10.038 -10.426,3.703 -20.587,8.04 -30.535,12.877 -20.317,9.876 -39.643,21.933 -57.344,35.977 -35.904,28.484 -65.192,64.532 -86.958,104.794 -12.396,22.93 -21.578,46.951 -30.476,71.383 -1.584,4.349 -8.09,2.682 -7.007,-1.931 10.673,-45.445 34.339,-89.102 62.796,-125.789 28.655,-36.942 64.934,-67.994 106.366,-89.767 11.55,-6.069 23.527,-11.35 35.766,-15.868 C -28.183,-2.799 -15.415,-7.17 -2.467,-8.95 3.289,-9.741 5.87,-1.864 0,0"/></g><g transform="translate(696.9768,391.3714)" id="g26"><path id="path28" style="fill:#95faff;fill-opacity:1;fill-rule:nonzero;stroke:none" d="m 0,0 c 6.859,-94.879 -43.753,-189.981 -127.585,-237.065 -98.358,-55.245 -228.575,-28.828 -322.83,22.839 -194.077,106.386 -207.049,436.103 38.046,485.277 18.181,3.648 36.71,5.58 55.245,6 47.02,1.067 91.738,-7.899 137.318,-17.851 43.817,-9.567 90.104,-16.729 127.549,-43.279 C -32.085,173.257 -5.046,69.798 0,0"/></g><g transform="translate(161.4556,621.4265)" id="g30"><path id="path32" style="fill:#ffc900;fill-opacity:1;fill-rule:nonzero;stroke:none" d="m 0,0 c -8.526,-9.292 -19.867,-17.434 -27.574,-27.237 -4.02,-5.113 -1.852,-8.772 -0.023,-15.328 1.884,-6.759 4.118,-13.42 6.689,-19.948 1.799,-4.569 4.556,-9.71 9.421,-10.376 1.363,-0.187 2.745,0.02 4.104,0.226 29.126,4.417 58.252,8.835 87.378,13.252 10.832,1.643 21.678,3.281 32.396,5.572 4.879,1.043 10.745,1.708 15.235,3.953 2.94,1.47 4.414,3.831 7.934,4.183 -0.846,14.41 -3.056,29.33 -6.731,43.301 -2.602,9.891 -11.272,12.868 -20.611,15.775 -12.776,5.694 -26.195,9.55 -39.066,14.97 C 57.255,33.355 45.706,38.733 34.941,45.937 37.626,44.141 3.755,4.092 0,0"/></g><g transform="translate(288.3397,569.166)" id="g34"><path id="path36" style="fill:#00bac4;fill-opacity:1;fill-rule:nonzero;stroke:none" d="m 0,0 c -12.674,-3.653 -25.518,-6.719 -38.476,-9.185 -9.718,-1.849 -19.497,-3.359 -29.273,-4.87 l -66.675,-10.3 c -1.413,28.483 -14.651,55.114 -18.435,83.381 22.875,4.367 45.726,8.854 68.577,13.341 22.387,4.397 45.71,11.227 68.398,13.131 C -10.957,85.891 5.287,1.525 0,0"/></g><g transform="translate(290.1183,614.0067)" id="g38"><path id="path40" style="fill:#f5522b;fill-opacity:1;fill-rule:nonzero;stroke:none" d="m 0,0 c 0.241,-0.083 0.468,-0.204 0.672,-0.37 0.795,-0.641 1.045,-1.726 1.246,-2.727 3.06,-15.201 4.498,-30.593 6.412,-46.013 1.319,-10.628 5.964,-20.572 6.573,-31.447 -11.79,-4.138 -25.301,-5.59 -37.649,-7.819 -13.937,-2.516 -27.913,-4.814 -41.909,-6.973 -23.072,-3.558 -49.466,-11.297 -72.446,-10.775 -3.264,10.067 -25.933,77.326 -18.023,80.826 3.799,1.68 17.134,-3.525 21.39,-4.42 7.595,-1.598 15.183,-3.224 22.766,-4.879 15.19,-3.317 29.469,-9.207 45.188,-10.676 1.029,-0.096 2.088,-0.177 3.079,0.117 1.168,0.347 2.12,1.177 3.052,1.963 6.25,5.274 13.678,8.749 20.07,13.59 7.498,5.679 15.085,11.303 22.717,16.844 5.036,3.657 9.143,8.478 13.887,12.148 C -2.143,0.033 -0.963,0.33 0,0"/></g><g transform="translate(305.7423,537.9213)" id="g42"><path id="path44" style="fill:#c93412;fill-opacity:1;fill-rule:nonzero;stroke:none" d="m 0,0 c -26.047,11.605 -52.6,22.008 -79.598,31.185 -1.509,0.513 -2.739,-0.23 -3.348,-1.314 -0.36,-0.093 -0.723,-0.271 -1.075,-0.552 -23.091,-18.45 -46.183,-36.9 -69.274,-55.35 -2.804,-2.241 0.744,-6.544 3.554,-4.299 23.092,18.45 46.183,36.901 69.274,55.351 0.166,0.132 0.306,0.273 0.428,0.417 C -53.579,16.392 -27.546,6.175 -2.001,-5.206 1.286,-6.671 3.268,-1.456 0,0"/></g><g transform="translate(178.8141,619.603)" id="g46"><path id="path48" style="fill:#ffffff;fill-opacity:1;fill-rule:nonzero;stroke:none" d="M 0,0 C -7.694,0.495 -16.405,-1.774 -23.947,-3.191 -24.925,-3.375 -24.676,-4.794 -23.7,-4.704 -16.046,-4 -7.068,-3.788 0.198,-1.211 0.794,-0.999 0.604,-0.039 0,0"/></g><g transform="translate(261.4785,624.3545)" id="g50"><path id="path52" style="fill:#ffffff;fill-opacity:1;fill-rule:nonzero;stroke:none" d="m 0,0 c -9.023,-0.436 -18.176,-3.088 -27.031,-4.827 -8.985,-1.765 -17.968,-3.538 -26.955,-5.295 -8.626,-1.688 -17.256,-3.357 -25.882,-5.051 -8.614,-1.692 -17.57,-2.872 -25.907,-5.667 -0.54,-0.181 -0.215,-0.923 0.272,-0.892 9.072,0.572 18.142,2.972 27.05,4.71 8.987,1.754 17.969,3.536 26.956,5.291 8.627,1.684 17.255,3.364 25.882,5.046 8.58,1.674 17.701,2.654 25.958,5.562 C 1.026,-0.883 0.61,0.029 0,0"/></g><g transform="translate(268.6435,608.3416)" id="g54"><path id="path56" style="fill:#ffffff;fill-opacity:1;fill-rule:nonzero;stroke:none" d="m 0,0 c -17.353,-3.328 -34.656,-6.92 -51.971,-10.442 -17.27,-3.512 -34.856,-6.366 -51.907,-10.832 -1.195,-0.313 -0.952,-2.109 0.314,-1.926 17.438,2.523 34.739,6.746 52.005,10.235 17.322,3.501 34.659,6.932 51.941,10.626 C 1.866,-2.022 1.506,0.289 0,0"/></g><g transform="translate(244.8286,587.9695)" id="g58"><path id="path60" style="fill:#ffffff;fill-opacity:1;fill-rule:nonzero;stroke:none" d="m 0,0 c -7.835,-1.594 -15.624,-3.451 -23.421,-5.218 -7.017,-1.59 -14.716,-2.545 -21.323,-5.447 -0.605,-0.265 -0.254,-1.04 0.313,-1.024 7.471,0.214 15.179,2.754 22.457,4.366 7.452,1.651 14.934,3.222 22.348,5.036 C 1.804,-1.937 1.477,0.301 0,0"/></g><g transform="translate(589.3373,315.0223)" id="g62"><path id="path64" style="fill:#009aa3;fill-opacity:1;fill-rule:nonzero;stroke:none" d="m 0,0 c -16.828,-24.386 -53.771,-35.83 -79.945,-46.752 -5.967,-2.49 -13.893,-2.304 -17.071,-8.084 -3.174,-5.771 -3.127,-13.908 -2.208,-20.222 1.138,-7.813 4.095,-15.24 7.344,-22.436 -8.296,0.191 -15.14,6.126 -22.405,10.135 -6.774,3.737 -13.591,7.457 -19.922,11.922 -6.017,4.244 -10.942,9.8 -16.988,13.958 -2.717,1.868 -7.005,0.611 -10.848,0.198 -9.347,-1.004 -18.702,-1.934 -28.071,-2.695 -18.403,-1.493 -36.881,-2.357 -55.345,-1.832 -37.291,1.061 -74.232,8.338 -107.915,24.753 -27.709,13.505 -62.417,42.794 -71.621,73.13 -2.129,7.018 -2.961,14.355 -3.686,21.662 -7.332,73.996 50.949,141.648 119.138,162.477 27.777,8.485 57.157,12.559 86.158,13.256 7.207,0.174 14.249,0.505 21.188,0.815 67.224,3.007 129.041,-9.283 184.135,-50.061 C 6.981,161.688 25.155,133.256 29.681,102.26 34.397,69.968 18.317,26.543 0,0"/></g><g transform="translate(602.3373,325.0223)" id="g66"><path id="path68" style="fill:#00bac4;fill-opacity:1;fill-rule:nonzero;stroke:none" d="m 0,0 c -16.828,-24.386 -53.771,-35.83 -79.945,-46.752 -8.783,-3.665 -22.824,-4.974 -27.253,-14.062 -6.088,-12.491 -5.339,-33.44 2.556,-45.208 -24.714,6.306 -34.85,25.916 -47.226,45.862 -69.468,-7.814 -136.308,-12.668 -201.506,19.105 -27.709,13.505 -62.417,42.794 -71.621,73.13 -2.129,7.018 -2.961,14.355 -3.686,21.662 -7.332,73.996 50.949,141.648 119.138,162.477 27.777,8.485 57.157,12.559 86.158,13.256 7.207,0.174 14.249,0.505 21.188,0.815 67.224,3.007 129.041,-9.283 184.135,-50.061 C 6.981,161.688 25.155,133.256 29.681,102.26 34.397,69.968 18.317,26.543 0,0"/></g></g></g>
<g id="g74"><g clip-path="url(#clipPath80)" id="g76"><g transform="translate(186.158,212.4933)" id="g82"><path id="path84" style="fill:#faffea;fill-opacity:1;fill-rule:nonzero;stroke:none" d="M 0,0 C -0.282,0.556 -0.563,1.113 -0.845,1.669"/></g><g transform="translate(264.0614,180.6002)" id="g86"><path id="path88" style="fill:#009aa3;fill-opacity:1;fill-rule:nonzero;stroke:none" d="m 0,0 c 6.502,-51.006 -57.021,-100.305 -106.474,-80.884 -36.352,14.276 -55.378,56.807 -43.463,93.62 13.396,41.389 65.738,60.985 104.963,44.625 C -20.962,47.345 -3.342,26.216 0,0"/></g><g transform="translate(267.0614,186.6002)" id="g90"><path id="path92" style="fill:#00bac4;fill-opacity:1;fill-rule:nonzero;stroke:none" d="m 0,0 c 6.502,-51.006 -57.021,-100.305 -106.474,-80.884 -36.352,14.276 -55.378,56.807 -43.463,93.62 13.396,41.389 65.738,60.985 104.963,44.625 C -20.962,47.345 -3.342,26.216 0,0"/></g><g transform="translate(249.0588,156.4926)" id="g94"><path id="path96" style="fill:#ffc900;fill-opacity:1;fill-rule:nonzero;stroke:none" d="m 0,0 c -17.085,-34.418 -72.751,-61.85 -104.874,-29.455 -17.988,18.14 -23.166,47.054 -15.919,71.133 1.85,6.148 4.486,12.146 8.692,16.863 4.753,5.333 11.202,8.713 17.539,11.928 12.541,6.362 25.45,12.576 39.44,14.493 13.991,1.917 29.442,-1.058 40.031,-11.078 C -8.882,68.009 -4.769,60.181 -1.605,52.199 5.061,35.386 7.833,15.78 0,0"/></g><g transform="translate(162.0032,222.7438)" id="g98"><path id="path100" style="fill:#f5522b;fill-opacity:1;fill-rule:nonzero;stroke:none" d="m 0,0 c -0.716,0.446 -1.83,0.038 -1.801,-0.912 0.096,-3.235 2.468,-6.85 4.004,-9.632 0.551,-0.998 1.487,-1.392 2.54,-1.294 0.718,0.066 1.069,0.456 1.467,1.012 0.44,0.615 0.482,1.678 0.082,2.351 C 4.694,-5.784 2.684,-1.672 0,0"/></g><g transform="translate(210.7887,138.2826)" id="g102"><path id="path104" style="fill:#f5522b;fill-opacity:1;fill-rule:nonzero;stroke:none" d="m 0,0 c -0.905,1.68 -1.631,3.908 -3.578,4.437 -0.761,0.206 -1.644,-0.109 -1.865,-0.944 -0.555,-2.1 1.004,-3.895 2.097,-5.643 1.122,-1.794 2.28,-3.831 3.981,-5.095 0.939,-0.696 1.947,0.276 1.833,1.264 C 2.226,-3.897 0.985,-1.829 0,0"/></g><g transform="translate(150.0311,157.7115)" id="g106"><path id="path108" style="fill:#f5522b;fill-opacity:1;fill-rule:nonzero;stroke:none" d="m 0,0 c -2.34,0.276 -4.231,-1.565 -6.107,-2.754 -2.093,-1.326 -4.395,-2.587 -6.049,-4.475 -0.717,-0.82 -0.172,-2.484 1.095,-2.163 2.578,0.653 4.836,2.177 7.095,3.53 1.943,1.164 4.235,1.963 5.075,4.211 C 1.398,-0.88 0.737,-0.087 0,0"/></g><g transform="translate(233.6208,204.2709)" id="g110"><path id="path112" style="fill:#f5522b;fill-opacity:1;fill-rule:nonzero;stroke:none" d="m 0,0 c -2.91,-0.259 -6.997,-3.196 -7.628,-6.207 -0.196,-0.935 0.644,-1.734 1.529,-1.351 1.282,0.555 2.27,1.569 3.443,2.315 1.222,0.777 2.61,1.186 3.825,1.931 C 2.843,-2.286 1.937,0.172 0,0"/></g><g transform="translate(202.4658,186.2834)" id="g114"><path id="path116" style="fill:#f5522b;fill-opacity:1;fill-rule:nonzero;stroke:none" d="m 0,0 c -3.492,-0.978 -6.517,-3.328 -9.634,-5.149 -1.431,-0.836 -2.857,-1.67 -4.265,-2.533 -0.899,0.986 -2.136,1.654 -3.39,1.78 -0.052,0.007 -0.105,0.006 -0.158,0.012 -0.085,0.005 -0.169,0.015 -0.254,0.015 -0.539,0.04 -1.08,0.002 -1.603,-0.105 -1.468,3.186 -3.22,6.254 -4.861,9.358 -2.223,4.204 -3.921,9.459 -7.879,12.196 -0.719,0.497 -1.905,0.011 -1.86,-0.941 0.232,-4.836 3.672,-8.973 6.065,-13.114 1.813,-3.137 3.53,-6.371 5.523,-9.403 -2.912,-3.913 1.623,-10.935 6.708,-8.402 1.903,0.949 3.151,3.097 3.072,5.278 1.79,0.92 3.552,1.895 5.323,2.86 2.945,1.607 6.258,2.867 8.715,5.18 C 2.63,-1.905 1.635,0.458 0,0"/></g><g transform="translate(139.4178,176.3897)" id="g118"><path id="path120" style="fill:#f5522b;fill-opacity:1;fill-rule:nonzero;stroke:none" d="m 0,0 c -0.848,0.845 -1.984,0.681 -3.055,0.558 -1.148,-0.131 -2.525,-0.15 -3.526,-0.76 -0.657,-0.4 -0.623,-1.416 0.154,-1.711 1.101,-0.419 2.389,-0.22 3.525,-0.151 1.091,0.067 2.344,0.046 2.999,1.053 C 0.283,-0.727 0.255,-0.254 0,0"/></g><g transform="translate(142.8519,197.6197)" id="g122"><path id="path124" style="fill:#f5522b;fill-opacity:1;fill-rule:nonzero;stroke:none" d="m 0,0 c -0.99,0.666 -2.051,1.055 -3.203,1.232 -0.692,0.107 -0.998,-0.949 -0.4,-1.307 0.859,-0.513 1.702,-1.107 2.435,-1.799 0.665,-0.629 1.314,-1.485 2.293,-1.347 0.26,0.036 0.464,0.25 0.545,0.495 C 2.052,-1.575 0.844,-0.568 0,0"/></g><g transform="translate(162.5561,139.0181)" id="g126"><path id="path128" style="fill:#f5522b;fill-opacity:1;fill-rule:nonzero;stroke:none" d="m 0,0 c -0.949,-0.724 -1.244,-2.276 -1.56,-3.395 -0.353,-1.254 -0.708,-2.529 -0.757,-3.85 -0.036,-0.946 1.214,-1.385 1.708,-0.599 0.689,1.096 1.107,2.349 1.514,3.585 0.364,1.105 0.982,2.538 0.616,3.726 C 1.299,0.186 0.576,0.44 0,0"/></g><g transform="translate(185.7718,134.6671)" id="g130"><path id="path132" style="fill:#f5522b;fill-opacity:1;fill-rule:nonzero;stroke:none" d="m 0,0 c -0.608,-1.372 -0.477,-2.856 -0.371,-4.352 0.099,-1.392 0.151,-2.847 0.831,-4.108 0.406,-0.754 1.328,-0.589 1.631,0.1 0.576,1.307 0.489,2.907 0.44,4.331 C 2.481,-2.584 2.442,-1.197 1.736,0.106 1.301,0.908 0.325,0.733 0,0"/></g><g transform="translate(231.5203,158.0835)" id="g134"><path id="path136" style="fill:#f5522b;fill-opacity:1;fill-rule:nonzero;stroke:none" d="m 0,0 c -0.984,0.39 -2.07,0.444 -3.095,0.364 -0.939,-0.074 -1,-1.682 -0.078,-1.902 0.979,-0.233 1.724,-0.701 2.575,-1.236 0.795,-0.499 2.25,-1.097 2.631,0.176 C 2.399,-1.374 0.951,-0.377 0,0"/></g><g transform="translate(242.2195,180.9846)" id="g138"><path id="path140" style="fill:#f5522b;fill-opacity:1;fill-rule:nonzero;stroke:none" d="m 0,0 c -1.179,-0.045 -2.281,-0.407 -3.396,-0.76 -0.947,-0.299 -2.032,-0.596 -2.365,-1.639 -0.097,-0.303 -0.026,-0.71 0.211,-0.945 0.792,-0.782 1.803,-0.615 2.808,-0.49 1.143,0.141 2.355,0.314 3.406,0.78 C 2.015,-2.456 1.574,0.06 0,0"/></g><g transform="translate(192.8472,230.678)" id="g142"><path id="path144" style="fill:#f5522b;fill-opacity:1;fill-rule:nonzero;stroke:none" d="M 0,0 C -0.913,-1.503 -1.091,-4.145 0.259,-5.543 0.894,-6.2 2.346,-5.943 2.26,-4.85 2.203,-4.111 1.955,-3.418 1.833,-2.686 1.718,-1.999 1.756,-1.318 1.796,-0.63 1.853,0.362 0.503,0.829 0,0"/></g><g transform="translate(218.0118,221.749)" id="g146"><path id="path148" style="fill:#f5522b;fill-opacity:1;fill-rule:nonzero;stroke:none" d="m 0,0 c -1.089,-0.474 -1.832,-1.49 -2.577,-2.395 -0.824,-1 -1.613,-2.032 -2.416,-3.05 -0.743,-0.943 0.782,-2.242 1.621,-1.415 1.598,1.574 4.109,3.343 4.82,5.58 C 1.732,-0.389 0.778,0.338 0,0"/></g><g transform="translate(268.9913,209.6952)" id="g150"><path id="path152" style="fill:#f5522b;fill-opacity:1;fill-rule:nonzero;stroke:none" d="m 0,0 c -1.082,5.246 -1.113,11.565 1.445,16.406 3.133,5.929 10.419,6.786 14.568,1.338 C 24.8,6.204 13.406,-3.181 2.479,-8.263 1.426,-5.539 0.573,-2.776 0,0 m 83.379,409.536 c -13.034,3.154 -26.801,9.684 -33.064,22.252 -5.776,11.59 -2.65,26.29 6.143,35.51 9.386,9.844 23.934,11.053 35.71,4.866 13.234,-6.953 18.826,-21.417 15.32,-35.731 -2.928,-11.951 -9.972,-20.942 -19.085,-27.959 -1.7,0.313 -3.378,0.664 -5.024,1.062 M 228.645,-56.891 C 170.67,-75.967 104.347,-91.415 48.245,-58.467 37.017,-51.873 26.77,-43.594 18.31,-33.672 13.001,-27.447 7.805,-20.06 4.162,-12.219 c 4.583,2.009 8.795,4.653 12.22,8.111 7.02,7.086 8.894,18.824 0.992,26.146 -6.816,6.316 -16.528,2.916 -19.927,-5.09 -3.7,-8.715 -1.695,-18.19 1.705,-26.64 -2.079,-0.817 -4.059,-1.464 -5.784,-1.918 -29.888,-7.865 -61.494,3.813 -86.93,19.22 -23.732,14.374 -45.111,32.978 -62.712,54.417 -35.709,43.494 -54.24,100.073 -43.98,156.117 4.999,27.305 16.553,53.61 34.803,74.674 19.17,22.127 44.497,37.884 71.158,49.447 29.739,12.898 61.315,20.658 92.587,28.817 16.284,4.249 32.553,8.614 48.544,13.878 13.545,4.458 27.376,9.289 39.346,17.205 0.948,0.627 1.886,1.301 2.817,1.998 14.404,-2.417 29.66,-1.312 43.003,2.779 21.947,6.73 39.231,23.744 40.121,47.612 1.034,27.747 -17.202,52.486 -26.127,77.656 -6.695,18.88 -7.215,38.626 -3.104,57.646 h -4.157 c -0.426,-2.033 -0.81,-4.089 -1.142,-6.172 -2.213,-13.856 -2.016,-28.077 1.325,-41.74 3.414,-13.96 9.867,-26.982 15.82,-39.984 11.376,-24.849 22.934,-56.422 -0.539,-78.344 -15.683,-14.646 -39.651,-18.68 -60.87,-15.913 16.186,14.495 27.245,38.85 12.493,58.068 -13.245,17.254 -40.311,19.349 -54.225,1.91 -6.383,-7.999 -9.391,-18.709 -7.683,-28.84 1.906,-11.306 10.042,-20.293 19.727,-25.865 6.177,-3.554 13.012,-6.122 20.148,-7.777 -14.954,-9.828 -34.014,-15.369 -49.812,-20.144 -60.202,-18.2 -125.948,-27.257 -177.357,-66.334 -44.448,-33.786 -66.605,-87.85 -63.391,-143.157 3.204,-55.13 32.048,-105.635 72.426,-142.298 20.904,-18.981 45.185,-35.675 72.048,-44.874 13.62,-4.664 28.182,-7.305 42.603,-6.132 6.617,0.538 13.844,1.785 20.53,4.207 5.008,-10.855 12.087,-20.715 20.536,-29.157 18.04,-18.025 41.972,-29.956 66.778,-35.345 30.782,-6.688 62.938,-3.273 93.23,4.241 16.254,4.033 32.064,9.389 47.662,15.456 0.88,0.343 0.534,1.754 -0.399,1.447"/></g><g transform="translate(637.3616,130.8721)" id="g154"><path id="path156" style="fill:#f5522b;fill-opacity:1;fill-rule:nonzero;stroke:none" d="m 0,0 c -22.68,-13.57 -48.46,-22.24 -74.12,-23.71 -29.22,-1.68 -58.3,5.98 -82.5,26.37 -0.65,0.55 -1.29,1.1 -1.93,1.67 -1.15,1.03 -2.28,2.11 -3.34,3.23 -2.84,3 -5.2,6.37 -6.31,10.31 -1.95,6.91 0.38,14.47 4.59,20.28 4.2,5.81 10.1,10.15 16.03,14.18 9.73,6.59 20.2,12.74 31.83,14.44 10.15,1.48 21.4,-1.12 28.51,-8.26 1.04,-1.04 1.99,-2.18 2.83,-3.42 0.11,-0.15 0.21,-0.31 0.3,-0.47 1.92,-2.92 3.26,-6.21 5.24,-9.1 5.4,-7.85 15.24,-11.85 24.77,-11.95 9.53,-0.09 18.79,3.26 27.24,7.65 20.34,10.57 37.07,27.22 50.3,45.94 5.98,8.46 11.46,19.49 6.76,28.73 -2.48,4.89 -7.23,7.97 -11.66,11.33 -0.96,0.73 -1.91,1.47 -2.82,2.25 -0.54,0.46 -1.05,0.93 -1.54,1.42 -16.82,16.68 -6.06,47.97 6.26,63.66 8.93,11.37 25.82,30.36 42.45,26.57 2.1,-0.48 4,-1.58 5.79,-2.78 5.45,-3.65 9.72,-8.21 13.26,-13.29 1.06,-1.5 2.04,-3.05 2.98,-4.63 5.37,-9.1 9.08,-19.41 13.39,-29.09 C 127.79,105.19 50.82,30.4 0,0"/></g><g transform="translate(645.9715,146.5401)" id="g158"><path id="path160" style="fill:#c93412;fill-opacity:1;fill-rule:nonzero;stroke:none" d="m 0,0 c -22.68,-13.566 -48.456,-22.238 -74.121,-23.709 -29.219,-1.675 -58.294,5.983 -82.493,26.377 -4.95,4.172 -9.828,8.981 -11.583,15.21 -0.823,2.92 -0.874,5.958 -0.349,8.932 -1.322,-1.355 -2.561,-2.787 -3.676,-4.328 -4.204,-5.81 -6.533,-13.374 -4.588,-20.276 1.756,-6.229 6.634,-11.038 11.584,-15.21 24.199,-20.394 53.274,-28.052 82.492,-26.377 25.665,1.471 51.441,10.143 74.122,23.709 32.094,19.196 74.6,56.094 94.159,97.335 C 63.839,46.894 27.965,16.727 0,0"/></g><g transform="translate(653.0815,260.339)" id="g162"><path id="path164" style="fill:#c93412;fill-opacity:1;fill-rule:nonzero;stroke:none" d="m 0,0 c 5.068,-4.344 11.46,-7.626 14.482,-13.578 2.377,-4.678 2.141,-9.815 0.559,-14.845 0.43,0.594 0.868,1.185 1.291,1.784 5.983,8.462 11.456,19.493 6.763,28.734 C 20.072,8.046 13.681,11.328 8.612,15.672 -4.873,27.231 -3.207,47.065 3.432,63.374 -8.674,46.725 -18.333,15.714 0,0"/></g><g transform="translate(722.2816,331.2921)" id="g166"><path id="path168" style="fill:#c93412;fill-opacity:1;fill-rule:nonzero;stroke:none" d="m 0,0 c -5.42,-1.23 -10.72,-2.98 -15.81,-5.22 -9.85,-4.32 -19.03,-10.48 -26.61,-18.15 -7.96,-8.06 -14.23,-17.67 -18.5,-28.15 -2.93,-7.18 -4.32,-14.35 -5.46,-21.68 -0.96,0.73 -1.91,1.47 -2.82,2.25 -0.54,0.46 -1.05,0.93 -1.54,1.42 2.3,18.55 13.05,37.46 25.34,49.75 8,8 17.44,14.46 27.82,19 4.13,1.81 9.29,3.91 14.6,5.41 C -1.92,3.13 -0.94,1.58 0,0"/></g><g transform="translate(553.2516,185.4921)" id="g170"><path id="path172" style="fill:#c93412;fill-opacity:1;fill-rule:nonzero;stroke:none" d="m 0,0 c -2.99,-0.69 -5.96,-1.42 -8.91,-2.23 -10.18,-2.78 -20.22,-6.32 -29.57,-11.25 -8.9,-4.71 -17.2,-10.78 -24.02,-18.2 -5.27,-5.75 -8.71,-11.98 -11.94,-18.61 -1.15,1.03 -2.28,2.11 -3.34,3.23 5.97,15.15 20.97,27.96 33.97,35.58 10.04,5.88 21.03,9.98 32.2,13.13 2.81,0.8 5.64,1.54 8.48,2.24 C -2.09,2.85 -1.14,1.71 -0.3,0.47 -0.19,0.32 -0.09,0.16 0,0"/></g><g transform="translate(726.5992,282.9652)" id="g174"><path id="path176" style="fill:#ffffff;fill-opacity:1;fill-rule:nonzero;stroke:none" d="m 0,0 c -0.88,6.078 -9.86,4.949 -9.443,-1.148 1.023,-14.933 -0.621,-28.592 -4.819,-42.956 -2.015,-6.894 -4.132,-13.396 -7.689,-19.671 -1.84,-3.246 -3.734,-6.475 -5.984,-9.455 -1.828,-2.42 -3.766,-4.129 -4.326,-7.149 -0.115,-0.625 0.513,-0.95 1.032,-0.816 5.667,1.465 10.833,9.964 13.978,14.558 4.342,6.343 8.894,13.234 11.757,20.382 C 0.207,-32.022 2.196,-15.175 0,0"/></g><g transform="translate(725.5701,301.8941)" id="g178"><path id="path180" style="fill:#ffffff;fill-opacity:1;fill-rule:nonzero;stroke:none" d="m 0,0 c -0.234,0.912 -0.729,1.834 -1.508,2.407 -0.334,0.203 -0.667,0.406 -1,0.609 -0.759,0.331 -1.551,0.449 -2.374,0.354 -0.402,0.003 -0.803,0.005 -1.205,0.008 -1.198,0.007 -2.367,-0.877 -3.121,-1.736 -0.99,-1.127 -1.218,-2.73 -0.857,-4.133 0.706,-2.749 3.64,-4.251 6.311,-3.231 0.365,0.14 0.731,0.28 1.096,0.419 C -0.554,-4.499 0.546,-2.125 0,0"/></g><g transform="translate(614.6599,170.614)" id="g182"><path id="path184" style="fill:#ffffff;fill-opacity:1;fill-rule:nonzero;stroke:none" d="m 0,0 c -5.576,-1.526 -10.766,-4.968 -16.111,-7.209 -5.844,-2.45 -11.905,-4.494 -18.193,-5.425 -12.107,-1.791 -23.797,0.878 -33.223,8.802 -1.365,1.148 -3.49,-0.8 -2.289,-2.2 7.937,-9.255 20.541,-12.387 32.343,-11.581 6.916,0.472 13.758,2.464 20.196,4.951 6.332,2.445 13.759,5.153 19.1,9.397 C 3.587,-1.863 2.003,0.548 0,0"/></g><g transform="translate(634.8545,181.6055)" id="g186"><path id="path188" style="fill:#ffffff;fill-opacity:1;fill-rule:nonzero;stroke:none" d="m 0,0 c -0.183,0.561 -0.782,0.996 -1.354,1.07 -2.068,0.266 -3.178,-1.622 -4.324,-3.068 -1.157,-1.459 -2.467,-3.053 -2.895,-4.892 -0.279,-1.2 1.143,-2.229 2.218,-1.752 1.708,0.758 3.028,2.395 4.227,3.792 C -0.886,-3.405 0.664,-2.03 0,0"/></g><g transform="translate(648.0859,564.9642)" id="g190"><path id="path192" style="fill:#00bac4;fill-opacity:1;fill-rule:nonzero;stroke:none" d="m 0,0 c -5.676,-8.169 -11.351,-16.339 -17.027,-24.508 -0.01,4.108 -2.325,7.808 -4.514,11.285 -11.911,18.925 -22.393,38.748 -31.329,59.246 9.81,-6.797 17.785,-15.853 26.33,-24.185 8.19,-7.986 16.973,-15.363 26.254,-22.05 -0.983,0.444 -1.965,0.888 -2.948,1.332"/></g><g transform="translate(540.9524,666.0767)" id="g194"><path id="path196" style="fill:#ffc900;fill-opacity:1;fill-rule:nonzero;stroke:none" d="m 0,0 c 19.785,-37.066 34.271,-75.429 59.463,-109.058 2.302,-2.662 34.852,7.266 38.13,7.741 13.969,2.023 34.408,7.005 48.272,8.129 -28.139,17.234 -61.347,33.924 -88.357,52.863 -9.893,6.937 -19.787,13.875 -29.681,20.813 C 21.126,-14.814 3.766,-7.054 0,0"/></g><g transform="translate(545.8135,660.6588)" id="g198"><path id="path200" style="fill:#00bac4;fill-opacity:1;fill-rule:nonzero;stroke:none" d="m 0,0 c 27.985,-28.4 55.969,-56.8 83.955,-85.201 2.514,-2.551 5.47,-4.359 8.119,-6.684 1.594,-1.399 3.185,-4.248 5.116,-5.016 0.789,-0.313 1.675,-0.203 2.516,-0.085 3.994,0.562 6.225,2.5 10.197,3.205 -2.392,-0.424 -8.165,4.686 -10.463,6.245 -5.15,3.493 -9.851,8.026 -14.641,11.999 -9.714,8.057 -19.333,16.229 -28.856,24.512 C 36.899,-34.458 18.245,-17.444 0,0"/></g><g transform="translate(567.9871,467.7617)" id="g202"><path id="path204" style="fill:#befcff;fill-opacity:1;fill-rule:nonzero;stroke:none" d="M 0,0 C -10.086,1.623 -20.556,1.017 -30.741,1.014 L -63.739,1.006 c -21.666,-0.005 -43.332,-0.01 -64.997,-0.015 -42.998,-0.011 -85.996,0.063 -128.994,-0.033 -24.402,-0.055 -48.667,-0.131 -72.996,-2.147 -1.932,-0.16 -1.936,-2.848 0,-3.008 43.152,-3.576 86.718,-2.152 129.993,-2.162 42.998,-0.011 85.996,-0.021 128.994,-0.032 C -59.74,-6.394 -47.74,-6.397 -35.741,-6.4 -23.935,-6.403 -11.69,-7.268 0,-5.386 2.666,-4.957 2.668,-0.429 0,0"/></g><g transform="translate(564.9871,400.7617)" id="g202"><path id="path204" style="fill:#befcff;fill-opacity:1;fill-rule:nonzero;stroke:none" d="M 0,0 C -10.086,1.623 -20.556,1.017 -30.741,1.014 L -63.739,1.006 c -21.666,-0.005 -43.332,-0.01 -64.997,-0.015 -42.998,-0.011 -85.996,0.063 -128.994,-0.033 -24.402,-0.055 -48.667,-0.131 -72.996,-2.147 -1.932,-0.16 -1.936,-2.848 0,-3.008 43.152,-3.576 86.718,-2.152 129.993,-2.162 42.998,-0.011 85.996,-0.021 128.994,-0.032 C -59.74,-6.394 -47.74,-6.397 -35.741,-6.4 -23.935,-6.403 -11.69,-7.268 0,-5.386 2.666,-4.957 2.668,-0.429 0,0"/></g><g transform="translate(561.6759,339.138)" id="g206"><path id="path208" style="fill:#befcff;fill-opacity:1;fill-rule:nonzero;stroke:none" d="m 0,0 c -9.737,1.589 -19.534,1.499 -29.383,1.752 -10.316,0.265 -20.63,0.344 -30.949,0.373 -20.633,0.057 -41.266,0.114 -61.899,0.171 -41.265,0.114 -82.531,0.009 -123.796,-10e-4 -11.315,-0.003 -22.629,-0.006 -33.944,-0.009 -11.343,-0.003 -23.484,1.029 -34.624,-1.382 -2.44,-0.528 -2.442,-4.406 0,-4.934 9.598,-2.078 19.862,-1.345 29.632,-1.381 10.316,-0.038 20.633,-0.005 30.949,-0.008 20.633,-0.005 41.266,-0.01 61.898,-0.016 41.266,-0.01 82.531,0.047 123.797,0.162 11.315,0.031 22.63,0.023 33.944,0.267 11.468,0.247 23.04,0.029 34.375,1.88 1.547,0.252 1.548,2.873 0,3.126"/></g><g transform="translate(711.17,364.5578)" id="g210"><path id="path212" style="fill:#f5522b;fill-opacity:1;fill-rule:nonzero;stroke:none" d="m 0,0 c -1.511,0.583 -2.431,-1.789 -1.084,-2.57 12.344,-7.155 22.845,-16.041 30.423,-28.295 7.52,-12.161 10.955,-25.473 12.171,-39.618 0.207,-2.416 3.587,-2.436 3.773,0 C 47.485,-41.663 26.838,-10.359 0,0"/></g><g transform="translate(566.3157,210.691)" id="g214"><path id="path216" style="fill:#f5522b;fill-opacity:1;fill-rule:nonzero;stroke:none" d="M 0,0 C -4.396,3.86 -12.11,4.198 -17.732,4.889 -24.957,5.776 -32.37,5.88 -39.616,5.173 -53.206,3.846 -67.279,0.144 -78.784,-7.422 c -0.999,-0.657 -0.381,-2.555 0.867,-2.056 12.463,4.975 24.818,9.085 38.301,10.057 6.182,0.445 12.373,0.386 18.533,-0.322 3.685,-0.424 7.346,-1.041 10.962,-1.867 2.965,-0.678 5.781,-1.876 8.837,-1.491 C 0.115,-2.924 1.316,-1.155 0,0"/></g><g transform="translate(637.2214,116.0266)" id="g218"><path id="path220" style="fill:#f5522b;fill-opacity:1;fill-rule:nonzero;stroke:none" d="m 0,0 c -4.497,0.193 -9.459,-4.132 -13.432,-6.073 -5.338,-2.608 -10.842,-4.851 -16.474,-6.741 -10.987,-3.688 -22.421,-6.056 -33.964,-7.085 -23.383,-2.084 -45.335,2.221 -67.537,9.176 -1.208,0.379 -1.999,-1.456 -0.867,-2.056 20.674,-10.962 46.131,-14.033 69.208,-12.235 11.761,0.916 23.41,3.229 34.619,6.908 5.329,1.75 10.561,3.818 15.656,6.164 4.367,2.01 12.298,4.502 14.44,9.068 C 2.27,-1.552 1.529,-0.066 0,0"/></g><g transform="translate(114.86,236.4996)" id="g222"><path id="path224" style="fill:#f5522b;fill-opacity:1;fill-rule:nonzero;stroke:none" d="m 0,0 c -9.118,-8.023 -15.826,-18.815 -19.7,-30.275 -3.663,-10.836 -5.99,-24.686 -1.933,-35.729 0.352,-0.957 1.786,-0.841 1.819,0.246 0.35,11.643 -0.077,22.447 3.759,33.697 3.849,11.288 10.473,20.874 19.022,29.094 C 4.93,-1.078 2.012,1.77 0,0"/></g><g transform="translate(261.2611,134.5987)" id="g226"><path id="path228" style="fill:#f5522b;fill-opacity:1;fill-rule:nonzero;stroke:none" d="m 0,0 c -2.884,-3.476 -4.569,-7.897 -7.146,-11.632 -2.939,-4.26 -6.387,-8.156 -10.219,-11.632 -7.906,-7.171 -17.008,-11.623 -26.787,-15.629 -1.57,-0.644 -0.985,-2.78 0.698,-2.532 10.44,1.544 20.307,7.165 28.263,13.916 3.886,3.297 7.386,7.027 10.473,11.079 3.14,4.12 7.126,9.337 7.891,14.583 C 3.411,-0.213 1.364,1.644 0,0"/></g><g transform="translate(280.5907,123.178)" id="g230"><path id="path232" style="fill:#f5522b;fill-opacity:1;fill-rule:nonzero;stroke:none" d="m 0,0 c -3.398,-1.881 -5.721,-5.535 -8.454,-8.232 -3.23,-3.187 -6.697,-6.095 -10.409,-8.704 -1.753,-1.232 -0.132,-4.121 1.703,-2.914 3.869,2.543 7.558,5.352 10.901,8.561 2.909,2.792 6.696,6.145 7.653,10.217 C 1.584,-0.264 0.738,0.409 0,0"/></g><g transform="translate(188.2276,684.921)" id="g234"><path id="path236" style="fill:#f5522b;fill-opacity:1;fill-rule:nonzero;stroke:none" d="m 0,0 c -0.624,3.071 -1.313,6.123 -2.15,9.143 -0.469,1.692 -3.392,1.435 -3.177,-0.43 0.332,-2.889 0.789,-5.744 1.301,-8.606 0.44,-2.458 0.475,-5.468 2.46,-7.188 0.504,-0.437 1.386,-0.449 1.73,0.223 C 1.285,-4.668 0.472,-2.324 0,0"/></g><g transform="translate(155.5754,667.2417)" id="g238"><path id="path240" style="fill:#f5522b;fill-opacity:1;fill-rule:nonzero;stroke:none" d="m 0,0 c -0.443,0.936 -0.772,1.374 -1.654,1.995 -0.791,0.557 -1.633,1.023 -2.378,1.647 -1.498,1.255 -2.691,2.823 -3.665,4.507 -0.851,1.472 -3.369,0.502 -2.806,-1.183 0.771,-2.305 2.031,-4.323 3.774,-6.021 0.796,-0.775 1.704,-1.543 2.679,-2.089 1.241,-0.695 2.136,-0.834 3.434,-0.371 C 0.049,-1.278 0.299,-0.632 0,0"/></g><g transform="translate(133.2066,642.1547)" id="g242"><path id="path244" style="fill:#f5522b;fill-opacity:1;fill-rule:nonzero;stroke:none" d="m 0,0 c -2.338,2.594 -5.659,3.858 -8.776,5.303 -3.119,1.447 -6.286,3.013 -9.581,4.01 -1.148,0.347 -1.634,-1.193 -0.768,-1.821 3.083,-2.233 6.589,-3.94 9.957,-5.7 2.796,-1.461 5.395,-2.96 8.571,-3.232 C 0.182,-1.507 0.449,-0.498 0,0"/></g><g transform="translate(113.3909,602.3913)" id="g246"><path id="path248" style="fill:#f5522b;fill-opacity:1;fill-rule:nonzero;stroke:none" d="m 0,0 c -1.624,1.574 -3.957,1.429 -6.114,1.683 -2.851,0.337 -5.741,0.766 -8.615,0.748 -1.317,-0.008 -1.564,-1.904 -0.309,-2.279 2.757,-0.822 5.654,-1.22 8.487,-1.696 2.16,-0.363 4.334,-1.135 6.342,-0.076 C 0.376,-1.311 0.462,-0.447 0,0"/></g><g transform="translate(110.3536,570.846)" id="g250"><path id="path252" style="fill:#f5522b;fill-opacity:1;fill-rule:nonzero;stroke:none" d="m 0,0 c -2.842,1.234 -6.676,0.6 -9.692,0.41 -2.049,-0.129 -2.053,-3.058 0,-3.188 3.016,-0.19 6.85,-0.824 9.692,0.41 0.898,0.39 0.898,1.978 0,2.368"/></g><g transform="translate(237.6673,691.9394)" id="g254"><path id="path256" style="fill:#f5522b;fill-opacity:1;fill-rule:nonzero;stroke:none" d="m 0,0 c -0.194,0.611 -0.946,1.006 -1.532,0.623 -1.962,-1.28 -2.449,-3.791 -3.187,-5.918 -0.992,-2.859 -1.91,-5.674 -2.541,-8.636 -0.292,-1.373 1.667,-2.379 2.377,-1.003 1.293,2.505 2.302,5.039 3.29,7.679 C -0.757,-5.02 0.756,-2.386 0,0"/></g><g transform="translate(286.998,674.8825)" id="g258"><path id="path260" style="fill:#f5522b;fill-opacity:1;fill-rule:nonzero;stroke:none" d="m 0,0 c -2.078,0.625 -4.39,-0.568 -6.169,-1.581 -2.029,-1.157 -3.777,-2.752 -5.261,-4.546 -1.247,-1.506 0.762,-3.631 2.187,-2.187 1.451,1.469 3.071,2.649 4.885,3.636 1.6,0.87 3.607,1.261 4.917,2.563 C 1.247,-1.431 0.904,-0.272 0,0"/></g><g transform="translate(301.5341,643.2749)" id="g262"><path id="path264" style="fill:#f5522b;fill-opacity:1;fill-rule:nonzero;stroke:none" d="m 0,0 c -1.704,-1.347 -3.093,-2.686 -5.245,-3.296 -1.514,-0.429 -1.285,-2.953 0.384,-2.831 2.907,0.212 6.172,1.891 6.949,4.912 C 2.422,0.086 0.932,0.737 0,0"/></g><g transform="translate(431.7281,239.8224)" id="g266"><path id="path268" style="fill:#00bac4;fill-opacity:1;fill-rule:nonzero;stroke:none" d="m 0,0 c -11.095,0.116 -22.467,-2.206 -33.573,-2.888 -11.546,-0.71 -23.122,-0.99 -34.689,-0.85 -22.781,0.277 -45.475,2.323 -68.123,4.648 -1.827,0.187 -2.213,-2.807 -0.433,-3.2 22.5,-4.974 45.542,-7.032 68.556,-7.38 11.569,-0.175 23.141,0.096 34.689,0.805 11.15,0.685 23.466,0.749 34.258,3.801 C 3.484,-4.273 2.927,-0.031 0,0"/></g><g transform="translate(573.6454,538.6694)" id="g270"><path id="path272" style="fill:#00bac4;fill-opacity:1;fill-rule:nonzero;stroke:none" d="m 0,0 c -6.373,4.858 -15.865,7.43 -23.323,10.224 -8.365,3.133 -16.851,5.943 -25.431,8.426 -17.052,4.933 -34.468,8.554 -52.063,10.894 -17.711,2.355 -35.597,3.417 -53.463,3.027 -17.232,-0.376 -36.015,-1.18 -52.625,-6.149 -0.81,-0.243 -0.693,-1.561 0.206,-1.52 17.218,0.787 34.234,3.464 51.526,3.772 17.566,0.313 35.159,-0.612 52.585,-2.86 17.542,-2.263 34.917,-5.874 51.919,-10.75 8.3,-2.38 16.513,-5.066 24.613,-8.055 3.911,-1.443 7.797,-2.956 11.652,-4.54 4.295,-1.766 8.662,-4.304 13.23,-5.253 C 0.596,-3.152 1.35,-1.029 0,0"/></g><g transform="translate(690.3906,437.0841)" id="g274"><path id="path276" style="fill:#00bac4;fill-opacity:1;fill-rule:nonzero;stroke:none" d="m 0,0 c -4.647,-0.976 -12.079,0.313 -12.589,6.277 -0.489,5.719 5.51,9.48 10.618,8.226 C 2.799,13.332 6.145,9.227 7.319,4.6 7.394,4.302 7.44,4.006 7.5,3.708 5.317,1.925 2.775,0.583 0,0 m 0.981,56.497 c -8.2,7.308 -17.55,13.203 -25.672,20.603 -3.836,3.495 -7.416,7.33 -10.341,11.628 -2.989,4.392 -4.672,9.205 -6.792,14.025 -0.352,0.802 -1.619,0.371 -1.601,-0.433 0.333,-14.703 15.017,-26.957 25.537,-35.221 12.947,-10.17 28.404,-20.546 32.911,-37.416 2.102,-7.867 0.895,-16.206 -4.189,-22.577 -1.25,4.232 -4.093,7.854 -9.305,10.195 -5.559,2.498 -12.103,1.36 -15.682,-3.81 -3.203,-4.627 -3.014,-10.784 1.501,-14.482 6.626,-5.428 14.346,-3.858 20.545,0.608 -0.089,-7.723 -4.543,-15.004 -8.238,-21.592 -1.218,-2.172 2.026,-4.06 3.332,-1.948 4.313,6.975 9.142,17.621 8.589,26.701 3.302,3.34 5.845,7.428 7.035,11.357 4.897,16.182 -6.128,32.113 -17.63,42.362"/></g></g></g></g></svg>