<?xml version="1.0" encoding="UTF-8" standalone="no"?>
<svg
   xmlns:dc="http://purl.org/dc/elements/1.1/"
   xmlns:cc="http://creativecommons.org/ns#"
   xmlns:rdf="http://www.w3.org/1999/02/22-rdf-syntax-ns#"
   xmlns:svg="http://www.w3.org/2000/svg"
   xmlns="http://www.w3.org/2000/svg"
   viewBox="0 0 5333.3335 5333.3335"
   height="5333.3335"
   width="5333.3335"
   xml:space="preserve"
   id="svg2"
   version="1.1"><metadata
     id="metadata8"><rdf:RDF><cc:Work
         rdf:about=""><dc:format>image/svg+xml</dc:format><dc:type
           rdf:resource="http://purl.org/dc/dcmitype/StillImage" /></cc:Work></rdf:RDF></metadata><defs
     id="defs6" /><g
     transform="matrix(1.3333333,0,0,-1.3333333,0,5333.3333)"
     id="g10"><g
       transform="scale(0.1)"
       id="g12"><g
         transform="scale(2.45399)"
         id="g14"><path
           id="path16"
           style="fill:#0bcbff;fill-opacity:1;fill-rule:nonzero;stroke:none"
           d="M 16300,0 H 0 V 16300 H 16300 V 0" /></g><g
         transform="scale(1.52987)"
         id="g18"><path
           id="path20"
           style="fill:#ffffff;fill-opacity:1;fill-rule:nonzero;stroke:none"
           d="M 9844.69,14473.4 9568.78,12147 c -1846.1,286.2 -2926.13,1638.2 -3328.99,2302.9 -94.91,156.2 -152.29,274.7 -173.35,332.1 -114.44,311.2 -222.18,735.5 25.33,1067.5 335.71,450.5 718.74,349.8 840.77,303.4 148.06,-56.2 319.25,-185 510.31,-347.3 635.41,-541.4 1486.86,-1458.6 2401.84,-1332.2" /></g><g
         transform="scale(1.53056)"
         id="g22"><path
           id="path24"
           style="fill:#1a1a5a;fill-opacity:1;fill-rule:nonzero;stroke:none"
           d="m 6693.22,16171.7 c -169.01,0 -387.99,-68.2 -590.33,-339.7 -245.68,-329.6 -130.76,-757.6 -22.96,-1050.8 20.61,-56.2 76.57,-172 171.82,-328.9 278.44,-459.4 1337.28,-1978.9 3297.67,-2291 l 271.01,2285.5 c -783.83,-94.1 -1517.67,561.2 -2108.37,1088.6 -99.51,89 -193.46,172.9 -283.82,249.8 -160.33,136.3 -345.76,283.8 -504.91,344.2 -51.42,19.5 -132.43,42.3 -230.11,42.3 m 2886.32,-4050.1 -17.71,2.8 c -1986.45,308 -3058.44,1845.9 -3339.65,2310 -96.54,158.9 -153.55,277.2 -174.72,334.9 -110.59,300.8 -228.04,740.3 27.69,1083.3 333.36,447.4 712.8,365.2 860.4,309.2 164.12,-62.3 352.48,-212 515.1,-350.2 90.69,-77.3 184.83,-161.3 284.47,-250.3 590.96,-527.8 1326.18,-1184.4 2102.75,-1077.3 l 22.15,3.1 -280.48,-2365.5" /></g><g
         transform="scale(1.52987)"
         id="g26"><path
           id="path28"
           style="fill:#686868;fill-opacity:1;fill-rule:nonzero;stroke:none"
           d="m 7442.85,15805.6 c -3.33,-222.8 -74.45,-580.2 -426.05,-908.6 -242.31,-226.4 -522.79,-373.2 -777.01,-447.1 -94.91,156.2 -152.29,274.7 -173.35,332.1 -114.44,311.2 -222.18,735.5 25.33,1067.5 335.71,450.5 718.74,349.8 840.77,303.4 148.06,-56.2 319.25,-185 510.31,-347.3" /></g><g
         transform="scale(1.50969)"
         id="g30"><path
           id="path32"
           style="fill:#b4b4b4;fill-opacity:1;fill-rule:nonzero;stroke:none"
           d="m 7332.95,15356.5 c 0.66,1.7 1.32,3.3 1.98,5 95.45,238.4 7.16,511.2 -204.81,656.2 -80.08,54.7 -155.39,97.4 -225.54,124.1 -47.03,17.9 -132.48,43.8 -238.92,43.8 -88.8,0 -192.24,-18 -300.39,-73.6 150.76,147.5 302.31,188 423.33,188 83.72,0 152.81,-19.4 196.79,-36.2 150.43,-57.2 335.43,-202.7 546.47,-386.2 -20.27,-150.5 -74.32,-333.6 -198.91,-521.1" /></g><g
         transform="scale(1.38178)"
         id="g34"><path
           id="path36"
           style="fill:#babacd;fill-opacity:1;fill-rule:nonzero;stroke:none"
           d="m 9718.99,13800.1 c -1425.84,520.6 -2316.22,1622.8 -2693.15,2236.7 166.21,60.1 338.87,147.3 504.16,263.2 368.44,-411.4 863.81,-850.1 1492.5,-1188.7 182.44,-98.3 375.31,-143.6 563.62,-143.6 206.91,0 408.31,54.7 584.78,154.1 -141.1,-472.6 -297.54,-909.3 -451.91,-1321.7" /></g><g
         transform="scale(1.4722)"
         id="g38"><path
           id="path40"
           style="fill:#505064;fill-opacity:1;fill-rule:nonzero;stroke:none"
           d="m 6594.34,15051.9 c -96.52,157.2 -157.18,280.3 -182.35,348.8 -93,253.3 -192.43,609.1 -51.19,899.3 30.48,-60.1 71.56,-134.6 123.42,-220 127.89,-211 321.46,-488.7 583.32,-781.1 -155.15,-108.7 -317.2,-190.7 -473.2,-247" /></g><g
         transform="scale(1.54194)"
         id="g42"><path
           id="path44"
           style="fill:#1a1a5a;fill-opacity:1;fill-rule:nonzero;stroke:none"
           d="m 9494.02,11942 c -5.57,0 -11.28,0.4 -16.92,1.3 -1221.13,189.2 -2090.88,842.4 -2605.43,1357 -559.25,559.3 -885.57,1136.3 -956,1328.1 -117.1,318.9 -240.33,786.4 40.33,1162.8 379.35,508.8 831.88,387.3 961.53,338 235.35,-89.6 507.73,-332.7 823.05,-614.3 572.07,-510.7 1283.97,-1146.4 2012.08,-1046 60.18,8.3 115.57,-33.7 123.87,-93.8 8.3,-60.2 -33.73,-115.6 -93.85,-124 -828.63,-114 -1582.61,559 -2188.47,1099.9 -299.11,267 -557.42,497.6 -754.9,572.7 -119.52,45.5 -427.66,110.9 -707.12,-263.9 -216.88,-290.9 -109.69,-684.8 -10.21,-955.6 129.28,-352.1 1238.36,-2210.4 3388.77,-2543.7 59.93,-9.2 101.05,-65.4 91.77,-125.4 -8.43,-54.3 -55.19,-93.1 -108.5,-93.1" /></g><g
         transform="scale(1.63399)"
         id="g46"><path
           id="path48"
           style="fill:#1096cd;fill-opacity:1;fill-rule:nonzero;stroke:none"
           d="m 11942,2955.09 c -2406.96,0 -4358.13,206.37 -4358.13,460.96 0,148.65 665.43,280.9 1698.23,365.18 59.06,-111.94 106.55,-138.44 138.19,-156.06 147.25,-82.07 597.51,-88.93 732.01,-89.05 2.2,0 4.3,0 6.6,0 597.6,0 653.4,86.41 677.2,123.38 27.8,42.9 53.4,113.46 77.2,204.59 329.8,8.45 674.3,12.91 1028.7,12.91 227.2,0 450.5,-1.83 668.4,-5.38 4.2,-16.04 8.5,-32.07 13,-48.17 l 19.9,-61.99 12.9,-32.38 c 4.4,-10.77 8.1,-21.11 15.1,-33.47 l 19.3,-35.25 c 7.5,-11.51 23.8,-29.13 35.2,-37.46 8.9,-6.06 18.2,-11.75 27.7,-17.01 30.5,-14.44 55.2,-21.67 77.7,-27.11 45.5,-10.96 87.2,-17.26 128.6,-22.22 138,-15.67 272.1,-20.32 406.3,-20.32 26.1,0 52.1,0.13 78.1,0.43 160.7,3.24 319.4,9.92 485.2,36.35 42.1,7.59 83.6,15.18 132.5,32.32 11.5,3.67 26.2,10.4 40.3,17.44 13.8,7.59 31.5,19.46 42.8,29.56 11.3,10.28 23.4,21.36 31.3,31.52 9,10.4 17.7,20.99 24.4,31.03 21.8,31.27 39.1,61.81 53.9,91.92 1228.7,-81.52 2045.4,-226.01 2045.4,-390.76 0,-254.59 -1951.2,-460.96 -4358,-460.96" /></g><g
         transform="scale(1.10831)"
         id="g50"><path
           id="path52"
           style="fill:#ffffff;fill-opacity:1;fill-rule:nonzero;stroke:none"
           d="m 16300,9302.16 c 0,0 -67.8,-1585.38 -210.7,-2729.38 -65.3,-517.99 -145.3,-945.31 -241.8,-1094.82 -97.7,-150.76 -1620.2,-147.16 -1884.7,0 -169.4,94.57 -321.9,575.66 -451.6,1199.22 -297.1,1428.12 -476.1,3603.72 -476.1,3603.72 L 16300,9302.16" /></g><g
         transform="scale(1.09399)"
         id="g54"><path
           id="path56"
           style="fill:#686868;fill-opacity:1;fill-rule:nonzero;stroke:none"
           d="m 16300,6658.85 c -66.2,-524.78 -147.3,-957.69 -245,-1109.16 -99,-152.74 -1641.4,-149.08 -1909.4,0 -171.6,95.8 -326.1,583.2 -457.5,1214.92 559,81.9 1766.7,166.46 2611.9,-105.76" /></g><g
         transform="scale(1.09569)"
         id="g58"><path
           id="path60"
           style="fill:#babacd;fill-opacity:1;fill-rule:nonzero;stroke:none"
           d="m 16123.5,6692.6 c -203.4,53.3 -422.8,88.81 -646,110.89 107,232.1 169.2,489.11 204.8,727.68 66.4,445.83 -243.5,861.28 -689.1,930.1 -395.1,60.96 -919.9,176.69 -1493.9,396.1 -24.1,202.42 -45.8,395.73 -64.8,572.97 255.5,-120.84 531.8,-227.25 828.4,-318.79 624.6,-192.67 1316.5,-308.12 2037.1,-344.17 -40,-681.86 -100.9,-1458.91 -176.5,-2074.78" /></g><g
         transform="scale(1.08382)"
         id="g62"><path
           id="path64"
           style="fill:#505064;fill-opacity:1;fill-rule:nonzero;stroke:none"
           d="m 15340.5,5644.38 c -421.3,0 -876.6,33.12 -986,94.11 -33.1,18.45 -164.3,139.6 -342,921.27 254.1,-295.99 528.6,-409.29 777.8,-409.29 307.2,0 576,171.99 721.4,386.13 51.6,75.85 96.3,156.95 135.2,241.37 225.7,-22.32 447.4,-58.22 653.1,-112.1 -62.5,-508.48 -134.7,-908.27 -213.5,-1057.83 -104.8,-43.18 -414.9,-63.66 -746,-63.66" /></g><g
         transform="scale(1.11894)"
         id="g66"><path
           id="path68"
           style="fill:#1a1a5a;fill-opacity:1;fill-rule:nonzero;stroke:none"
           d="m 15596.2,5535.78 h -0.1 0.1 M 14835,5163.82 c -3.2,0 -6.3,0 -9.5,0 -196.4,0.18 -854,10.19 -1069,130.04 -123.1,68.63 -411.5,229.32 -743.3,2605.59 -159.3,1141.8 -252.1,2260.35 -253,2271.55 -6.9,83.4 55.2,156.5 138.5,163.3 83.1,6.8 156.5,-55.1 163.3,-138.5 0.9,-11.1 93.1,-1122.2 251.3,-2255.69 295.8,-2118.43 543.9,-2355.71 590.7,-2381.72 189.3,-105.55 1446.9,-124.67 1677.6,-29.49 201.2,382.15 359,2450.98 412.2,3691.54 3.6,83.56 73.8,149.33 157.8,144.86 83.5,-3.57 148.4,-74.26 144.8,-157.82 -14.7,-343.28 -152.8,-3368.55 -472.3,-3863.49 -34.9,-53.98 -116.4,-180.17 -989.1,-180.17" /></g><g
         transform="scale(1.84869)"
         id="g70"><path
           id="path72"
           style="fill:#413757;fill-opacity:1;fill-rule:nonzero;stroke:none"
           d="m 14155.8,5486.33 c 0,0 556.2,1042.85 2144.2,-336.46 0,0 -1614.9,-1371.46 -2184.8,-115.59 l 40.6,452.05" /></g><g
         transform="scale(1.83231)"
         id="g74"><path
           id="path76"
           style="fill:#7a738a;fill-opacity:1;fill-rule:nonzero;stroke:none"
           d="m 16161.9,5098.27 c -602.6,506.47 -1053.3,661.3 -1379,661.3 -35,0 -68.6,-1.8 -100.8,-5.13 -0.1,2.57 -0.1,5.13 -0.2,7.7 47.3,20.35 100.5,37.16 159.8,48.13 49.5,9.17 100.8,13.7 153.9,13.7 363.5,0 809.4,-213.39 1304.4,-625.5 -36.3,-27.61 -83.1,-62.1 -138.1,-100.2" /></g><g
         transform="scale(1.80542)"
         id="g78"><path
           id="path80"
           style="fill:#352e58;fill-opacity:1;fill-rule:nonzero;stroke:none"
           d="m 15237,4706.22 c -61.4,0 -121.8,5.93 -180.1,19.06 -202.9,45.53 -359.2,171.26 -475.5,383.29 111.3,-11.69 212,-15.51 296,-15.51 120,0 206,7.81 240.3,11.58 11.5,1.27 22.6,3.32 33.6,6.26 36.7,9.63 68.9,27.08 95.4,50.29 152.2,-118.81 342.3,-189.1 544.1,-189.1 85.9,0 173.8,12.69 261.9,39.83 84.1,25.86 167.1,57.82 247.3,93.33 -279.2,-181.23 -691.9,-399.08 -1063,-399.03 m -297.3,898.64 c -85.8,19.49 -179.4,43.14 -278.8,76.6 48.6,50.9 119.6,110.33 216.2,155.92 7.8,1 15.7,1.94 23.7,2.77 2.5,-81.87 15.9,-160.74 38.9,-235.29" /></g><g
         transform="scale(1.65044)"
         id="g82"><path
           id="path84"
           style="fill:#5d587c;fill-opacity:1;fill-rule:nonzero;stroke:none"
           d="m 16274.1,6385.5 c 8.3,3.94 16.9,7.82 25.7,11.58 0,-2.85 0.1,-5.7 0.2,-8.55 -8.7,-0.9 -17.4,-1.93 -25.9,-3.03" /></g><g
         transform="scale(1.86464)"
         id="g86"><path
           id="path88"
           style="fill:#1a1a5a;fill-opacity:1;fill-rule:nonzero;stroke:none"
           d="m 14087.1,5007.33 c 115.3,-242.4 276.3,-383.87 491.6,-432.14 521.5,-117.13 1203,353.74 1438.6,533.13 -557.5,464.11 -1051.5,671.76 -1433,601.19 -285.9,-52.83 -426.6,-245.04 -461,-298.88 l -36.2,-403.3 m 664.2,-632.12 c -71.8,0 -142.8,7.02 -212.2,22.57 -277.1,62.05 -488.3,249.11 -627.4,555.87 l -10,21.83 44.1,490.39 8.7,16.25 c 7.1,13.4 179.8,329.02 596.7,406.13 463.4,85.7 1024.9,-154.5 1668.9,-713.8 l 79.9,-69.4 -80.7,-68.49 c -34.9,-29.65 -787.3,-661.35 -1468,-661.35" /></g><g
         transform="scale(1.69091)"
         id="g90"><path
           id="path92"
           style="fill:#ffffff;fill-opacity:1;fill-rule:nonzero;stroke:none"
           d="m 14576.4,8073.74 c 0,0 -434.5,-1088.17 350,-1721.02 480.5,-387.66 934.9,-447.51 1220.8,-513.98 149.3,-34.72 152.8,-245.79 4.6,-284.88 -7.1,-1.89 -14.1,-3.19 -21.4,-3.96 -167.2,-18.28 -2138.6,-191.38 -2395.2,1772.24 l 841.2,751.6" /></g><g
         transform="scale(1.68862)"
         id="g94"><path
           id="path96"
           style="fill:#1a1a5a;fill-opacity:1;fill-rule:nonzero;stroke:none"
           d="m 15905.5,5529.9 c -227.1,0 -572.1,26.95 -924.2,155.93 -716.5,262.4 -1134.7,815.58 -1243,1644.24 l 31.1,4.09 c 106.7,-816.17 518,-1360.82 1222.7,-1618.9 538.1,-197.08 1059.5,-153.08 1158.5,-142.24 6.5,0.7 12.8,1.89 19.1,3.55 73.3,19.3 98.5,81.37 97.8,128.68 -0.7,47.44 -27.8,108.97 -101.9,126.2 -33.5,7.76 -69.3,15.46 -107.3,23.63 -292.8,62.89 -693.9,149.11 -1121.5,494.07 -785.4,633.65 -359.5,1730.35 -355.1,1741.36 l 29.1,-11.6 c -4.3,-10.78 -421.6,-1086.39 345.7,-1705.36 421.8,-340.28 818.6,-425.56 1108.5,-487.85 38,-8.18 74,-15.88 107.7,-23.75 75.5,-17.53 125,-78.88 126.1,-156.22 1.2,-77.17 -46.4,-139.76 -121.1,-159.48 -7.8,-2.08 -15.6,-3.5 -23.7,-4.39 -35.4,-3.9 -124.3,-11.96 -248.5,-11.96" /></g><g
         transform="scale(1.67396)"
         id="g98"><path
           id="path100"
           style="fill:#babacd;fill-opacity:1;fill-rule:nonzero;stroke:none"
           d="m 16035.1,5694.69 c -390.1,0 -1121.7,81.48 -1606.7,632.69 11.7,88.59 21.5,177.42 27.2,266.67 4.5,58.31 7.6,116.79 7.7,175.57 429.4,-869.19 1325.5,-1037.12 1836.7,-1057.85 -3.2,-1.49 -6.6,-2.8 -10.6,-3.82 -2.2,-0.6 -4.5,-1.01 -6.7,-1.25 -37.2,-4.07 -125.7,-12.01 -247.6,-12.01" /></g><g
         transform="scale(1.69745)"
         id="g102"><path
           id="path104"
           style="fill:#1a1a5a;fill-opacity:1;fill-rule:nonzero;stroke:none"
           d="m 15823.7,5417.02 c -233.3,0 -587.7,27.68 -949.3,160.12 -511.9,187.46 -1151.4,635.24 -1291,1703.91 -7.2,54.67 31.3,104.74 86,111.87 54.7,7.07 104.8,-31.34 111.9,-86.01 241.5,-1847.36 2068.7,-1701.85 2276.2,-1679.17 2.1,0.24 4.3,0.65 6.6,1.24 30.5,8.07 34.8,31.87 34.6,45.36 -0.2,13.61 -5.2,37.47 -36.2,44.72 -33,7.65 -68.1,15.2 -105.4,23.21 -282.6,60.74 -709.9,152.52 -1150.9,508.29 -829.2,668.94 -383.2,1817.61 -378.6,1829.1 20.4,51.25 78.6,76.11 129.7,55.73 51.2,-20.44 76.1,-78.47 55.8,-129.61 -16.5,-41.59 -395.2,-1024.06 318.5,-1599.81 404,-325.96 787.5,-408.32 1067.5,-468.53 38.4,-8.25 74.6,-16.02 108.5,-23.91 112.4,-26.1 189,-121.07 190.7,-236.24 1.7,-115 -71.9,-211.97 -183.3,-241.31 -11.7,-3.12 -23.4,-5.3 -35.7,-6.65 -36.5,-4.01 -127.9,-12.31 -255.6,-12.31" /></g><g
         transform="scale(1.64511)"
         id="g106"><path
           id="path108"
           style="fill:#ffffff;fill-opacity:1;fill-rule:nonzero;stroke:none"
           d="M 14597.4,6943.55 C 12533.8,5414.9 8447.52,5595.98 7726.05,7668.97 c -630.6,1812.7 372.07,3063.43 969.54,5189.23 132.51,471.7 245.21,986.5 315.6,1560 l 5475.91,1327.4 131.3,31.8 c -2.2,-52.2 -4.2,-104.1 -5.3,-156.1 -24.8,-849.7 47.3,-1646.1 160,-2388.5 445.3,-2930.9 1526.9,-5028.3 -175.7,-6289.25" /></g><g
         transform="scale(1.30853)"
         id="g110"><path
           id="path112"
           style="fill:#3e4561;fill-opacity:1;fill-rule:nonzero;stroke:none"
           d="m 11737.3,14986.8 c -271.1,-507.5 -799.4,-217.5 -961.5,-1180.9 -59.8,-355.1 -583,-746.4 -995.26,-933 235.56,1018.7 821.96,2147.5 1215.66,3427.1 213.6,-132.2 1065.1,-707.5 741.1,-1313.2" /></g><g
         transform="scale(1.57786)"
         id="g114"><path
           id="path116"
           style="fill:#3e4561;fill-opacity:1;fill-rule:nonzero;stroke:none"
           d="m 15872.1,7816.86 c -384.7,164.27 -1046.4,568.05 -1039.3,1398.6 9.2,1100.64 842,1637.14 998.7,2417.64 64.8,-298.6 125.6,-586.7 178,-864.1 221.2,-1173.72 290.5,-2157.96 -137.4,-2952.14" /></g><g
         transform="scale(1.61558)"
         id="g118"><path
           id="path120"
           style="fill:#1a1a5a;fill-opacity:1;fill-rule:nonzero;stroke:none"
           d="m 11388.5,5937.76 c -608.3,0 -1196.1,81.58 -1715.36,241.71 -989.18,305.15 -1647.83,856.72 -1904.83,1595.15 -471.47,1354.87 -60.85,2435.18 414.65,3685.98 340.62,895.9 726.62,1911.3 888.91,3234.1 7.06,57.5 59.42,98.4 116.86,91.4 57.5,-7.1 98.42,-59.4 91.36,-116.9 -165.39,-1348 -556.21,-2376.1 -901.04,-3283.2 -479.95,-1262.4 -859.01,-2259.66 -412.6,-3542.48 295.8,-850.04 1124.98,-1265.06 1768.46,-1463.57 506.59,-156.29 1068.49,-231 1639.79,-231 1253.7,-0.06 2554.6,359.5 3427.2,1005.83 1264.2,936.39 955.4,2347.46 528.2,4300.42 -292.6,1337.3 -624.3,2852.9 -549.1,4615.2 2.5,57.8 50.9,103.3 109.2,100.3 57.9,-2.5 102.8,-51.4 100.4,-109.3 -74,-1735 254.5,-3236.6 544.4,-4561.4 427.4,-1953.56 765,-3496.6 -608.3,-4513.76 -657.6,-487.07 -1558.3,-833.64 -2536.5,-975.75 -334.7,-48.66 -671.2,-72.73 -1001.7,-72.73" /></g><g
         transform="scale(1.25101)"
         id="g122"><path
           id="path124"
           style="fill:#f6b0b0;fill-opacity:1;fill-rule:nonzero;stroke:none"
           d="m 16100.6,10591.1 c -199.5,-1350.54 -1552.8,-2269.32 -3022.9,-2052.21 -1470,217.1 -2500.1,1487.81 -2300.6,2838.31 199.4,1350.5 1552.8,2269.3 3022.8,2052.2 1470,-217.1 2500.1,-1487.8 2300.7,-2838.3" /></g><g
         transform="scale(1.4788)"
         id="g126"><path
           id="path128"
           style="fill:#ffffff;fill-opacity:1;fill-rule:nonzero;stroke:none"
           d="m 16300,7995.31 c 0,0 -40.7,-426.29 -111.2,-996.75 -21.1,-170.54 -44.8,-353.66 -70.7,-542.46 -141.7,-1029.89 -353.6,-2220.51 -586.6,-2350.28 -198.3,-110.83 -1339.3,-113.34 -1412.2,0 -100.1,154.72 -176.9,709.15 -231.8,1289.42 -1.9,17.38 -3.4,35.03 -5.1,52.41 -0.9,11.7 -1.9,22.79 -3.1,32.86 -14.2,156.89 -26.8,314.45 -37.9,465.04 -41.3,559.51 -61.3,1026.17 -61.3,1026.17 L 16300,7995.31" /></g><g
         transform="scale(1.43855)"
         id="g130"><path
           id="path132"
           style="fill:#686868;fill-opacity:1;fill-rule:nonzero;stroke:none"
           d="m 16300,5069.96 c -101.9,-449.27 -215.2,-783.36 -334,-849.54 -203.8,-113.37 -1376.8,-116.16 -1451.8,0 -78.9,122.42 -143.8,487.92 -195.4,921.56 415.8,61.93 1265.5,144.17 1981.2,-72.02" /></g><g
         transform="scale(1.48602)"
         id="g134"><path
           id="path136"
           style="fill:#1a1a5a;fill-opacity:1;fill-rule:nonzero;stroke:none"
           d="m 16258.5,7952.73 c 41.5,-178.06 38.5,-351.95 25.4,-524.69 -11.2,-173.02 -35.8,-344.48 -61.5,-515.74 -26.1,-171.27 -47.4,-343.07 -71.3,-514.67 -23.6,-171.6 -48.6,-343.13 -75.4,-514.53 -54,-342.72 -113.1,-684.98 -191,-1026.3 -39.9,-170.65 -82.9,-340.91 -144,-511.63 -15.5,-42.73 -32.5,-85.6 -52.2,-128.74 -19.4,-43.06 -42.3,-86.6 -73.8,-131.62 -7.3,-11.04 -16.8,-22.68 -26.7,-34.12 -8.7,-11.17 -22,-23.35 -34.4,-34.66 -12.5,-11.1 -31.9,-24.16 -47.1,-32.5 -15.5,-7.74 -31.7,-15.14 -44.3,-19.18 -53.8,-18.84 -99.4,-27.19 -145.8,-35.53 -182.2,-29.07 -356.8,-36.41 -533.5,-39.97 -176.6,-2.02 -351.5,1.28 -532.6,21.87 -45.5,5.45 -91.4,12.38 -141.4,24.43 -24.8,5.98 -51.9,13.93 -85.5,29.81 -10.4,5.79 -20.5,12.04 -30.4,18.71 -12.5,9.15 -30.5,28.53 -38.7,41.18 l -21.2,38.76 c -7.7,13.59 -11.7,24.97 -16.6,36.81 l -14.2,35.6 -21.9,68.17 c -12.3,44.61 -24,89.03 -33.3,132.7 -38.8,175.37 -63,348.11 -85.8,521.33 -43.9,346.09 -74,691.51 -99.9,1037.13 l -18.4,259.22 c -5.7,86.4 -16.4,172.47 -23.9,258.81 -7.4,86.27 -9.7,172.95 -3.9,259.95 6.7,87.08 21.1,174.5 59.9,262.99 9.5,21.4 34.4,31.16 55.8,21.74 8.8,-3.91 15.7,-10.43 20.1,-18.31 l 0.1,-0.2 c 46.4,-84.05 69.6,-169.04 85.4,-254.44 15,-85.39 22.6,-171.13 25.5,-257.2 2.8,-86 3,-172.27 8.8,-258.13 l 18,-257.54 c 25.8,-343 55.6,-685.86 98.7,-1025.02 22.2,-169.04 46.2,-338.69 82.2,-500.6 8.6,-40.71 19,-79.81 29.6,-118.5 l 17.7,-55.05 9.9,-24.49 c 3.2,-8.15 6.4,-17.17 9.8,-22.21 3.4,-5.99 6.5,-12.11 9.5,-18.31 -1.4,4.51 -11.9,15.88 -16.4,18.11 -0.5,1.07 -1.4,1.75 -2.6,1.88 5.6,-2.15 19.7,-7.87 36.9,-11.64 33.8,-8.15 73.5,-14.6 113.6,-19.31 162.2,-18.51 333.3,-22.35 501.9,-20.19 168.3,3.16 339.8,11.17 498.7,36.74 38.6,6.66 78.1,15.14 105.8,25.03 8,2.42 11.1,4.58 15.2,6.13 3.2,2.42 2.2,1.28 5.9,4.37 5.9,5.52 15.1,15.01 23.9,28.26 18.1,25.71 36.3,58.55 52.1,94.21 16.3,35.4 31.3,72.82 45.1,111.31 55.3,154.44 97.7,319.58 136.1,485.06 75.9,332.16 134.6,670.85 188,1010.28 26.5,169.85 51.4,340.03 74.8,510.49 23.5,170.52 46.8,341.11 63.4,512.58 16.7,171.39 32.7,342.86 60,513.05 25.3,170.45 59.1,339.97 134.2,505.58 l 0.2,0.2 c 9.1,20.18 32.9,29.07 53.1,19.99 11.7,-5.39 19.7,-15.82 22.4,-27.46" /></g><g
         transform="scale(1.91849)"
         id="g138"><path
           id="path140"
           style="fill:#ffffff;fill-opacity:1;fill-rule:nonzero;stroke:none"
           d="m 12135.6,16223.7 c 0,0 326.7,76.3 768.7,-100.4 556.7,-222.5 967.1,-837.3 972.7,-1241 0,0 -1213.1,-249.4 -1836.2,667.1 l 94.8,674.3" /></g><g
         transform="scale(1.91995)"
         id="g142"><path
           id="path144"
           style="fill:#1a1a5a;fill-opacity:1;fill-rule:nonzero;stroke:none"
           d="m 13500.6,14827.8 c -411.8,0 -1073.8,104.1 -1480.3,702 l 22.8,15.6 c 578.3,-850.7 1685.2,-684.7 1809.3,-662.9 -13.3,399.9 -423.7,1000.2 -963,1215.8 -432.7,172.9 -756.7,100.4 -759.9,99.7 l -6.3,26.8 c 3.3,0.8 335.8,75.2 776.4,-100.9 554.4,-221.6 975,-844.1 980.6,-1252.7 l 0.2,-11.4 -11.2,-2.3 c -4.2,-0.8 -151.7,-29.7 -368.6,-29.7" /></g><g
         transform="scale(1.92911)"
         id="g146"><path
           id="path148"
           style="fill:#1a1a5a;fill-opacity:1;fill-rule:nonzero;stroke:none"
           d="m 13430.4,14681.7 c -96.3,0 -205.6,5.7 -322.4,21.6 -521.3,71.4 -938.3,317.3 -1206.1,711.1 -27.3,40.2 -16.9,94.8 23.2,122.1 40.2,27.2 94.8,16.8 122.1,-23.3 491.7,-723.2 1393.1,-671.5 1659.7,-638.2 -51,372.1 -424.2,885.3 -906.2,1078 -409.2,163.6 -709,96.6 -712,95.9 -47.3,-11 -94.5,18.3 -105.5,65.6 -11,47.2 18.4,94.4 65.6,105.5 14.4,3.3 357.1,80 817.1,-103.9 595.1,-237.9 1016.6,-883.6 1022.5,-1314.4 l 1.1,-72.7 -71.2,-14.6 c -9.1,-1.8 -162.8,-32.7 -387.9,-32.7" /></g><g
         transform="scale(1.85702)"
         id="g150"><path
           id="path152"
           style="fill:#ffacbb;fill-opacity:1;fill-rule:nonzero;stroke:none"
           d="m 12728.3,16292.5 c 0,0 735.9,7.5 1171.5,-659.3 -18.7,-7.3 -558.9,-77.4 -901.6,210.9 -384.1,323.2 -269.9,448.4 -269.9,448.4" /></g><g
         transform="scale(1.85284)"
         id="g154"><path
           id="path156"
           style="fill:#ba809e;fill-opacity:1;fill-rule:nonzero;stroke:none"
           d="m 13575.5,15814.5 c -107,0 -249.9,11 -394.1,53.2 -53.1,152.4 -114.9,296.5 -185.2,432.3 162.4,-34.2 385.5,-108.3 598.3,-269.2 56.2,-59.8 110.1,-127.2 159.9,-203.6 -6.5,-2.6 -76.3,-12.7 -178.9,-12.7" /></g><g
         transform="scale(1.87864)"
         id="g158"><path
           id="path160"
           style="fill:#1a1a5a;fill-opacity:1;fill-rule:nonzero;stroke:none"
           d="m 13729.6,15445.4 c -94.5,88.4 -186.1,176.1 -290,247.8 l -37.6,28.1 c -13,8.8 -26.4,17 -39.5,25.6 -26.6,16.6 -52.1,34.3 -78.7,50.5 l -81.1,46.1 c -26.8,15.5 -55.4,27.9 -82.7,42.3 -111.2,54.5 -226.6,97.9 -343.6,135.8 -58.6,18.6 -117.6,35.9 -177.6,51.7 l -90.6,23.6 -47.1,12.4 -24.7,7 c -11,3.5 -23,7.6 -34.2,11.7 -45.6,16.8 -68.9,67.2 -52.1,112.7 13.6,37 49.4,59.3 86.8,57.4 l 29.7,-1.6 c 4.3,-0.2 7.7,-0.6 12.2,-1.3 l 22.5,-3.4 47.3,-7.9 c 32.2,-6.1 65.2,-11.8 97.7,-20 l 48.8,-11.7 48.4,-14 c 32.4,-8.9 64.2,-19.9 95.9,-31.3 126.9,-45 247.7,-107.2 360.7,-179.6 27.9,-18.8 56.9,-35.6 83.3,-56.5 l 79.7,-61.1 c 26.1,-20.9 50.5,-43.8 75.4,-66 12.3,-11.2 24.8,-22.1 36.9,-33.5 l 34.7,-36 c 94.4,-93.6 171.5,-202.4 239.9,-313.1 3.8,-6.1 1.9,-14.1 -4.2,-17.8 -5.1,-3.2 -11.5,-2.4 -15.6,1.5 l -0.6,0.6" /></g><g
         transform="scale(1.91849)"
         id="g162"><path
           id="path164"
           style="fill:#ffffff;fill-opacity:1;fill-rule:nonzero;stroke:none"
           d="m 7613.12,16223.7 c 0,0 -326.72,76.3 -768.73,-100.4 -556.74,-222.5 -967.06,-837.3 -972.69,-1241 0,0 1213.09,-249.4 1836.18,667.1 l -94.76,674.3" /></g><g
         transform="scale(1.91995)"
         id="g166"><path
           id="path168"
           style="fill:#1a1a5a;fill-opacity:1;fill-rule:nonzero;stroke:none"
           d="m 6233.13,14827.8 c -216.98,0 -364.43,28.9 -368.65,29.7 l -11.2,2.3 0.21,11.4 c 5.62,408.6 426.21,1031.1 980.6,1252.7 440.63,176.1 773.09,101.7 776.42,100.9 l -6.25,-26.8 c -3.28,0.7 -327.87,73 -759.91,-99.7 -539.39,-215.6 -949.77,-815.9 -963.05,-1215.8 123.96,-21.7 1230.97,-187.8 1809.32,662.9 l 22.81,-15.6 c -406.47,-597.8 -1068.46,-702 -1480.3,-702" /></g><g
         transform="scale(1.92911)"
         id="g170"><path
           id="path172"
           style="fill:#1a1a5a;fill-opacity:1;fill-rule:nonzero;stroke:none"
           d="m 6209.56,14681.7 c -225.08,0 -378.83,30.9 -387.85,32.7 l -71.17,14.7 1.04,72.6 c 5.96,430.8 427.4,1076.6 1022.54,1314.5 459.96,183.8 802.76,107.1 817.12,103.8 47.22,-11 76.56,-58.3 65.57,-105.5 -11.04,-47.2 -58.06,-76.5 -105.23,-65.7 -4.35,1 -307.65,66 -712.25,-95.8 -482.03,-192.7 -855.31,-705.9 -906.22,-1078 266.45,-33.3 1168,-85.1 1659.73,638.2 27.27,40.1 81.91,50.5 122.03,23.3 40.12,-27.3 50.54,-81.9 23.27,-122.1 -267.74,-393.8 -684.82,-639.7 -1206.15,-711.1 -116.69,-15.9 -226.12,-21.6 -322.43,-21.6" /></g><g
         transform="scale(1.85702)"
         id="g174"><path
           id="path176"
           style="fill:#ffacbb;fill-opacity:1;fill-rule:nonzero;stroke:none"
           d="m 7674.14,16292.5 c 0,0 -735.91,7.5 -1171.5,-659.3 18.74,-7.3 558.96,-77.4 901.6,210.9 384.17,323.2 269.9,448.4 269.9,448.4" /></g><g
         transform="scale(1.84525)"
         id="g178"><path
           id="path180"
           style="fill:#ba809e;fill-opacity:1;fill-rule:nonzero;stroke:none"
           d="m 6901.25,15879.6 c -79.23,0 -139.01,6 -165.35,9.9 36.8,31 74.47,60.5 113.92,87.7 l 38.26,28.6 c 13.22,9 26.82,17.4 40.21,26.1 27.04,16.9 53.06,35 80.1,51.5 l 82.59,46.8 c 27.26,15.8 56.41,28.5 84.21,43.1 102,50 207.57,90.9 314.7,126.7 -54.84,-112.2 -104.32,-229.9 -148.48,-353 -159.55,-53.9 -321.69,-67.4 -440.16,-67.4" /></g><g
         transform="scale(1.87871)"
         id="g182"><path
           id="path184"
           style="fill:#1a1a5a;fill-opacity:1;fill-rule:nonzero;stroke:none"
           d="m 6417.33,15460.5 c 68.4,110.8 145.58,219.5 239.96,313.1 l 34.7,36 c 12.03,11.4 24.54,22.3 36.89,33.5 24.86,22.2 49.34,45.2 75.37,66.1 l 79.73,61 c 26.35,20.9 55.36,37.7 83.25,56.5 113.01,72.4 233.78,134.6 360.73,179.6 31.67,11.4 63.5,22.4 95.86,31.3 l 48.44,14 48.81,11.7 c 32.47,8.2 65.42,13.9 97.62,20.1 l 47.32,7.8 22.52,3.4 c 4.47,0.7 7.98,1.1 12.24,1.4 l 29.54,1.5 c 48.44,2.5 89.69,-34.7 92.25,-83.1 2.02,-39.4 -22.31,-74 -57.39,-87 -11.22,-4.1 -23.2,-8.2 -34.27,-11.7 l -24.7,-7 -47.05,-12.4 -90.65,-23.6 c -59.94,-15.8 -118.91,-33.1 -177.57,-51.7 -117,-37.9 -232.39,-81.3 -343.54,-135.8 -27.3,-14.4 -55.94,-26.8 -82.71,-42.3 l -81.12,-46 c -26.56,-16.2 -52.11,-34 -78.67,-50.6 -13.15,-8.5 -26.51,-16.7 -39.5,-25.6 l -37.58,-28.1 c -103.9,-71.7 -195.5,-159.4 -290.04,-247.8 l -0.58,-0.5 c -5.22,-4.9 -13.36,-4.6 -18.26,0.6 -4.1,4.3 -4.58,10.8 -1.6,15.6" /></g><g
         transform="scale(2.11206)"
         id="g186"><path
           id="path188"
           style="fill:#93897f;fill-opacity:1;fill-rule:nonzero;stroke:none"
           d="m 10683.7,14816.2 c 0,0 497.4,507.9 451.9,1354.7 -4.9,91.2 -118.8,129.1 -177.1,58.9 -196.2,-235.8 -587.1,-622.5 -1168.15,-820.5 l 893.35,-593.1" /></g><g
         transform="scale(2.11094)"
         id="g190"><path
           id="path192"
           style="fill:#1a1a5a;fill-opacity:1;fill-rule:nonzero;stroke:none"
           d="m 10700.7,14812.9 -22.8,22.3 c 4.9,5 492.3,513.4 447.7,1343.4 -2.3,42.5 -31.4,67 -57.8,75.8 -26.4,8.7 -64.2,6.4 -91.3,-26.2 -184.3,-221.6 -582.1,-623.5 -1175.86,-825.8 l -10.29,30.1 c 586.45,199.9 979.55,597.1 1161.65,816.1 31.2,37.6 79.4,51.4 125.8,36 46.5,-15.4 77,-55.3 79.6,-104.3 45.4,-844.5 -451.7,-1362.3 -456.7,-1367.4" /></g><g
         transform="scale(2.09728)"
         id="g194"><path
           id="path196"
           style="fill:#d4d0cc;fill-opacity:1;fill-rule:nonzero;stroke:none"
           d="m 10256.2,15515.8 -47,62.4 c 435.1,221 734.4,529 888.5,714.3 4.2,5 9.1,7.5 14.7,7.5 2.3,0 4.7,-0.4 7.1,-1.2 8.7,-2.9 13.4,-9 13.9,-18.3 1,-18.7 1.7,-37.2 2.2,-55.6 -0.7,-3.6 -1.4,-7.1 -2,-10.7 -162.8,-194.9 -456.3,-489.3 -877.4,-698.4" /></g><g
         transform="scale(2.08659)"
         id="g198"><path
           id="path200"
           style="fill:#6e6774;fill-opacity:1;fill-rule:nonzero;stroke:none"
           d="m 10904.6,15253.6 c -121.2,95.1 -252.7,178 -394.5,248.5 193.9,36.9 562.2,187.7 680.5,795.2 0.7,0.9 1.5,1.8 2.2,2.7 10,-476.6 -157.6,-838.5 -288.2,-1046.4 m -591.4,335.9 c -3,1.2 -6,2.4 -9.1,3.6 1.6,0.7 3.2,1.5 4.7,2.3 l 4.4,-5.9" /></g><g
         transform="scale(2.08762)"
         id="g202"><path
           id="path204"
           style="fill:#9c99aa;fill-opacity:1;fill-rule:nonzero;stroke:none"
           d="m 10299.1,15585.4 c -32.9,12.8 -66.3,25 -100.2,36.7 19.4,9.2 38.6,18.7 57.5,28.3 l 47.3,-62.7 c -1.5,-0.8 -3.1,-1.6 -4.6,-2.3 m 886,703.9 c 0.7,3.5 1.3,7.1 2.1,10.7 0,-2.7 0.1,-5.3 0.1,-8 -0.7,-0.9 -1.5,-1.8 -2.2,-2.7" /></g><g
         transform="scale(2.11991)"
         id="g206"><path
           id="path208"
           style="fill:#1a1a5a;fill-opacity:1;fill-rule:nonzero;stroke:none"
           d="m 10644,14681.4 c -20.2,0 -40.4,7.6 -55.9,22.9 -31.5,30.8 -32,81.4 -1.2,112.9 6.9,7.2 470.4,495.5 427.6,1289.5 -0.5,9.2 -5.1,15.2 -13.7,18.1 -8.5,2.8 -15.7,0.7 -21.5,-6.2 -187.8,-225.8 -593.3,-635.5 -1199.46,-842 -41.75,-14.2 -87.17,8.1 -101.42,49.8 -14.24,41.8 8.07,87.2 49.86,101.5 569.12,193.9 951.12,580 1128.12,792.9 47.6,57.3 124.1,79.2 194.7,55.7 70.8,-23.4 119.1,-86.7 123.1,-161.2 46.7,-868.8 -451.8,-1388.2 -473,-1409.9 -15.7,-16 -36.4,-24 -57.2,-24" /></g><g
         transform="scale(2.11206)"
         id="g210"><path
           id="path212"
           style="fill:#93897f;fill-opacity:1;fill-rule:nonzero;stroke:none"
           d="m 7216.47,14816.2 c 0,0 -497.53,507.9 -451.98,1354.7 4.88,91.2 118.8,129.1 177.17,58.9 196.12,-235.8 587.06,-622.5 1168.06,-820.5 l -893.25,-593.1" /></g><g
         transform="scale(2.11095)"
         id="g214"><path
           id="path216"
           style="fill:#1a1a5a;fill-opacity:1;fill-rule:nonzero;stroke:none"
           d="m 7208.85,14812.9 c -5.02,5.1 -502.14,522.9 -456.71,1367.4 2.6,48.9 33.11,88.9 79.58,104.3 46.38,15.4 94.56,1.5 125.82,-36 182.15,-219 575.2,-616.2 1161.62,-816.1 l -10.28,-30.2 c -593.81,202.4 -991.55,604.3 -1175.83,825.9 -27.09,32.6 -64.99,34.9 -91.33,26.2 -26.44,-8.8 -55.47,-33.3 -57.75,-75.8 -44.67,-830.6 442.74,-1338.4 447.67,-1343.4 l -22.79,-22.3" /></g><g
         transform="scale(2.09728)"
         id="g218"><path
           id="path220"
           style="fill:#d4d0cc;fill-opacity:1;fill-rule:nonzero;stroke:none"
           d="m 7769.87,15515.7 c -413.68,205.5 -704.15,493.3 -868.55,688.2 -3.43,14.5 -6.77,29.3 -9.97,44.3 0.39,10.7 0.91,21.5 1.48,32.3 0.48,9.3 5.15,15.4 13.83,18.3 2.48,0.8 4.86,1.2 7.1,1.2 5.63,0 10.54,-2.5 14.69,-7.5 154.1,-185.3 453.44,-493.2 888.58,-714.2 l -47.16,-62.6" /></g><g
         transform="scale(2.08659)"
         id="g222"><path
           id="path224"
           style="fill:#6e6774;fill-opacity:1;fill-rule:nonzero;stroke:none"
           d="m 7236.93,15217 c -132.85,199.9 -321.96,575.5 -311.18,1083 3.6,-4.3 7.24,-8.7 10.93,-13.1 153.65,-645 549.85,-768.4 717.39,-791.5 -150.58,-78 -289.7,-170.8 -417.14,-278.4 m 543.33,339.1 29.43,39.1 c 9.53,-4.7 19.12,-9.4 28.75,-14 -19.6,-8.2 -38.96,-16.5 -58.18,-25.1" /></g><g
         transform="scale(2.09062)"
         id="g226"><path
           id="path228"
           style="fill:#9c99aa;fill-opacity:1;fill-rule:nonzero;stroke:none"
           d="m 7823.34,15551.1 c -9.61,4.7 -19.18,9.3 -28.7,14.1 l 47.31,62.7 c 25.97,-13.2 52.33,-26 79.26,-38.5 -33.06,-12.2 -65.77,-24.9 -97.87,-38.3 m -900.02,704.4 c -3.68,4.4 -7.32,8.8 -10.91,13.1 0.19,10.4 0.53,20.9 0.91,31.4 3.21,-15.1 6.55,-29.9 10,-44.5" /></g><g
         transform="scale(2.1199)"
         id="g230"><path
           id="path232"
           style="fill:#1a1a5a;fill-opacity:1;fill-rule:nonzero;stroke:none"
           d="m 7189.76,14681.5 c -20.75,0 -41.46,8 -57.12,24 -21.23,21.7 -519.75,541.1 -473.04,1409.9 4,74.5 52.36,137.8 123.11,161.2 70.67,23.4 147.09,1.5 194.73,-55.7 176.99,-212.9 558.99,-599 1128.07,-793 41.79,-14.2 64.11,-59.6 49.86,-101.4 -14.24,-41.8 -59.67,-64 -101.42,-49.9 -606.16,206.6 -1011.69,616.2 -1199.44,842.1 -5.76,6.9 -13.02,8.9 -21.56,6.2 -8.58,-2.9 -13.21,-9 -13.68,-18.1 -42.97,-799.3 422.85,-1284.6 427.57,-1289.5 30.9,-31.5 30.38,-82.1 -1.13,-113 -15.57,-15.2 -35.76,-22.8 -55.95,-22.8" /></g><g
         transform="scale(2.0138)"
         id="g234"><path
           id="path236"
           style="fill:#ffffff;fill-opacity:1;fill-rule:nonzero;stroke:none"
           d="m 12268.3,13002 c -0.6,-29 -1.4,-58.3 -2.5,-87.3 -48.7,84.3 -104.1,161 -165.3,231.1 -533,609.5 -1523.9,704.8 -2664.6,722.6 -89.48,1.7 -177.93,0.3 -265.77,-4.1 -1053.08,-49 -1963.8,-102.9 -2468.32,-672.9 -50.6,-56.9 -96.88,-119 -139.04,-186.9 -0.25,29.3 -0.25,58.3 0.3,87.6 13.41,860.6 202,1715.5 706.77,2324.6 146.19,176.2 318.9,332.3 521.75,461.5 419.61,267.7 967.93,421.8 1675,410.6 719.91,-11.3 1270.11,-188.9 1683.71,-478.8 866.1,-607.1 1135.2,-1707 1118,-2808" /></g><g
         transform="scale(2.01538)"
         id="g238"><path
           id="path240"
           style="fill:#1a1a5a;fill-opacity:1;fill-rule:nonzero;stroke:none"
           d="m 9355.95,13871.3 c 24.26,0 48.58,-0.2 72.79,-0.7 1044.86,-16.2 2111.96,-85.8 2672.06,-726.5 52.9,-60.5 101.1,-125.7 143.7,-194.4 0.4,14.1 0.7,28.2 1,42.3 14.2,909.6 -167,2132.8 -1111.5,2794.8 -435.6,305.4 -999.2,465.5 -1675.09,476.1 -664.79,10.4 -1225.23,-126.8 -1666.38,-408.3 -194.26,-123.7 -368.62,-278 -518.27,-458.4 -444.83,-536.7 -688.01,-1337.1 -703.24,-2314.6 -0.25,-14.3 -0.4,-28.6 -0.4,-42.8 35.77,53.8 74.73,104.5 116.16,151 518.41,585.7 1469.05,629.9 2475.51,676.8 63.81,3.1 128.71,4.7 193.66,4.7 m 2911.65,-1012.7 -22.8,39.4 c -47.1,81.4 -102.2,158.4 -163.8,228.8 -553.1,632.6 -1613.7,701.4 -2652.7,717.6 -88.53,1.6 -177.64,0.2 -264.72,-4.1 -1000.8,-46.6 -1946.08,-90.5 -2457.15,-667.9 -49.97,-56.2 -96.26,-118.4 -137.64,-185 l -23.87,-38.5 -0.45,45.3 c -0.25,29.3 -0.25,58.5 0.3,87.8 15.33,983.5 260.6,1789.5 709.25,2330.9 151.38,182.6 327.82,338.7 524.36,463.9 445.58,284.2 1011.23,423.2 1680.98,412.3 681.24,-10.6 1249.74,-172.3 1689.74,-480.7 953.9,-668.7 1137,-1900.9 1122.6,-2816.8 v 0 c -0.5,-29.1 -1.3,-58.5 -2.4,-87.5 l -1.7,-45.5" /></g><g
         transform="scale(1.95963)"
         id="g242"><path
           id="path244"
           style="fill:#3e4561;fill-opacity:1;fill-rule:nonzero;stroke:none"
           d="M 9423.71,14247.6 C 8233.18,14192 7219.98,14130.9 6744.17,13364 c -0.3,29.8 -0.2,59.8 0.26,90.1 13.98,884.4 207.69,1762.9 726.36,2388.5 369.35,330.2 1277.02,457.4 1740.38,-2.6 444.77,-441.5 295.46,-1325.3 212.54,-1592.4" /></g><g
         transform="scale(1.63825)"
         id="g246"><path
           id="path248"
           style="fill:#ffffff;fill-opacity:1;fill-rule:nonzero;stroke:none"
           d="m 14978,16056.4 c -29,39.1 -59.5,77 -91.5,113.5 -39.9,45.7 -81.9,89 -126,130.1 77.3,-54.4 149.9,-113.9 217.7,-178.8 0,-21.7 0,-43.2 -0.2,-64.8" /></g><g
         transform="scale(1.64348)"
         id="g250"><path
           id="path252"
           style="fill:#8d8dad;fill-opacity:1;fill-rule:nonzero;stroke:none"
           d="m 14930.1,15978.4 c -32.6,45.1 -67,88.2 -103.1,129.4 -52.2,59.8 -108.2,115.4 -167.5,167.2 -7.7,8.3 -15.4,16.7 -23.2,25 26.2,-16.8 52,-34.1 77.2,-51.9 43.9,-41 85.8,-84.1 125.6,-129.7 31.9,-36.4 62.3,-74.1 91.2,-113.1 -0.1,-8.9 -0.1,-18.1 -0.2,-26.9" /></g><g
         transform="scale(1.63581)"
         id="g254"><path
           id="path256"
           style="fill:#8d8dad;fill-opacity:1;fill-rule:nonzero;stroke:none"
           d="m 8183.9,16159.8 v 0 c 38.63,49.6 79.47,96.2 122.51,140.2 0,-0.2 -0.06,-0.3 -0.06,-0.5 -19.02,-19.4 -37.72,-39.3 -55.94,-59.9 -22.86,-25.7 -45.05,-52.3 -66.51,-79.8" /></g><g
         transform="scale(2.00209)"
         id="g258"><path
           id="path260"
           style="fill:#ffffff;fill-opacity:1;fill-rule:nonzero;stroke:none"
           d="m 7591.03,15676.4 c 455.63,414.2 1078.18,623.6 1858.61,623.6 23.53,0 47.26,-0.2 71.08,-0.6 315.77,-4.9 596.78,-41.9 846.68,-105.7 -205.2,39.2 -428.37,61.7 -670.61,65.5 -24.33,0.4 -48.35,0.6 -72.28,0.6 -676.34,0 -1204.89,-153.5 -1612.52,-413.6 -39.46,-25.1 -77.77,-51.3 -114.98,-78.4 -108.63,-20.7 -212.37,-51.9 -305.98,-91.4" /></g><g
         transform="scale(1.93672)"
         id="g262"><path
           id="path264"
           style="fill:#9fa2b0;fill-opacity:1;fill-rule:nonzero;stroke:none"
           d="m 6912.35,13649 c 19.87,933.7 232.86,1681 633.23,2221.9 91.03,123 191.61,234.5 301.64,334.5 96.76,40.9 204.01,73.1 316.31,94.6 -160.48,-116.9 -301.02,-251 -423.65,-398.9 -469.35,-566.3 -675.68,-1337.1 -724.06,-2133.7 -36.35,-37.1 -70.84,-76.5 -103.47,-118.4" /></g><g
         transform="scale(1.88492)"
         id="g266"><path
           id="path268"
           style="fill:#1a1a5a;fill-opacity:1;fill-rule:nonzero;stroke:none"
           d="m 9287.81,15637.2 c -5.67,-360 -211.83,-648.6 -460.55,-644.7 -248.65,3.9 -445.64,299 -439.96,658.9 5.68,360 211.89,648.6 460.55,644.7 248.66,-3.9 445.64,-298.9 439.96,-658.9" /></g><g
         transform="scale(1.84708)"
         id="g270"><path
           id="path272"
           style="fill:#ffffff;fill-opacity:1;fill-rule:nonzero;stroke:none"
           d="m 9246.87,16094.9 c -1.79,-111.4 -65.57,-200.7 -142.55,-199.5 -76.94,1.2 -137.9,92.5 -136.16,203.9 1.78,111.4 65.56,200.7 142.54,199.5 76.94,-1.2 137.9,-92.5 136.17,-203.9" /></g><g
         transform="scale(1.88492)"
         id="g274"><path
           id="path276"
           style="fill:#1a1a5a;fill-opacity:1;fill-rule:nonzero;stroke:none"
           d="m 10831.4,15637.2 c 5.7,-360 211.8,-648.6 460.5,-644.7 248.7,3.9 445.7,299 440,658.9 -5.7,360 -211.9,648.6 -460.6,644.7 -248.6,-3.9 -445.6,-298.9 -439.9,-658.9" /></g><g
         transform="scale(1.84708)"
         id="g278"><path
           id="path280"
           style="fill:#ffffff;fill-opacity:1;fill-rule:nonzero;stroke:none"
           d="m 11284.5,16094.9 c 1.8,-111.4 65.6,-200.7 142.6,-199.5 76.9,1.2 137.9,92.5 136.1,203.9 -1.8,111.4 -65.5,200.7 -142.5,199.5 -77,-1.2 -137.9,-92.5 -136.2,-203.9" /></g><g
         transform="scale(2.02481)"
         id="g282"><path
           id="path284"
           style="fill:#1a1a5a;fill-opacity:1;fill-rule:nonzero;stroke:none"
           d="m 12199,12760.6 c -1.3,0 -2.6,0.1 -3.9,0.1 -46.1,2.1 -81.9,41.3 -79.8,87.4 1.3,28.1 2.1,56.3 2.5,84.6 22.6,1432.6 -428.2,3147.9 -2703.95,3183.8 -987.1,15.8 -1725.29,-299.4 -2196.54,-936.1 -388.04,-524.2 -592.01,-1251.2 -606.33,-2160.8 -0.5,-28.4 -0.59,-56.5 -0.2,-84.7 0.59,-46.2 -36.35,-84.2 -82.58,-84.8 -45.63,-0.9 -84.2,36.3 -84.79,82.5 -0.4,29.9 -0.3,59.7 0.2,89.7 14.91,945.2 229.94,1704.8 639.17,2257.7 505.18,682.5 1290.14,1020 2333.69,1003.8 1043.43,-16.4 1817.53,-378.8 2301.03,-1076.9 391.6,-565.5 582.6,-1331.5 567.7,-2276.8 -0.5,-29.9 -1.3,-59.8 -2.7,-89.6 -2,-44.9 -39.1,-79.9 -83.5,-79.9" /></g><g
         transform="scale(1.89296)"
         id="g286"><path
           id="path288"
           style="fill:#4da2ff;fill-opacity:1;fill-rule:nonzero;stroke:none"
           d="m 13152.4,16262.2 c -2.8,12.7 -6.2,25.1 -10.2,37.2 l 3.6,0.6 6.6,-37.8" /></g><g
         transform="scale(1.89484)"
         id="g290"><path
           id="path292"
           style="fill:#1a1a5a;fill-opacity:1;fill-rule:nonzero;stroke:none"
           d="m 13125.6,16243.1 c -2.6,12.2 -5.9,24.2 -9.7,35.7 l -5,15.4 33.2,5.8 8.9,-51.5 -27.4,-5.4" /></g><g
         transform="scale(1.48025)"
         id="g294"><path
           id="path296"
           style="fill:#babacd;fill-opacity:1;fill-rule:nonzero;stroke:none"
           d="m 12861.8,13286 c -34.4,0 -68.9,0.3 -103.4,0.9 -921.4,15.2 -1768.1,230.9 -2444.8,582.6 -142.2,216.2 -371.6,392 -512.18,487.2 43.23,158.4 84.31,321.2 122.68,488.9 726.4,-485.4 1726.4,-793.8 2834.3,-812 34.6,-0.6 69,-0.9 103.5,-0.9 1125.2,0 2141.7,302.8 2869,793.8 h 0.1 c 0.1,0.1 0.2,0.2 0.3,0.2 186,125.6 353.2,263.6 498.3,411.9 21.2,-175 44.8,-347.4 70.4,-517.4 -12.4,-61.5 -22.2,-123.6 -29.2,-186.2 -705.2,-752.2 -1967.8,-1249 -3409,-1249" /></g><g
         transform="scale(1.30377)"
         id="g298"><path
           id="path300"
           style="fill:#33385f;fill-opacity:1;fill-rule:nonzero;stroke:none"
           d="m 11709.6,15746.8 c -226.6,117.8 -436.3,248.9 -626.6,391.5 15.3,53.5 30.3,107.4 45.1,161.7 159.7,-108.1 420.1,-307.6 581.5,-553.2" /></g><g
         transform="scale(1.48717)"
         id="g302"><path
           id="path304"
           style="fill:#1a1a5a;fill-opacity:1;fill-rule:nonzero;stroke:none"
           d="m 9716.23,14148.1 c -33.02,24.8 -65.5,50 -97.17,75.6 56.22,200.3 109.27,407.5 157.68,622.8 33.02,-23.7 66.91,-47.1 101.14,-70 -38.2,-167 -79.08,-329 -122.11,-486.7 -12.98,-47.6 -26.16,-94.9 -39.54,-141.7 m 6507.87,504.5 c -25.5,169.3 -49,340.8 -70.1,515 35.5,36.2 69.7,73.1 102.4,110.5 13.5,-117 28.1,-233.1 43.6,-347.9 -31.5,-90.5 -56.9,-183.3 -75.9,-277.6" /></g><g
         transform="scale(1.76353)"
         id="g306"><path
           id="path308"
           style="fill:#f6b0b0;fill-opacity:1;fill-rule:nonzero;stroke:none"
           d="m 14157,13972 c -0.3,-20.5 -1,-41.1 -2.2,-61.6 -67.7,-1212.6 -1591.6,-2161.6 -3445.9,-2131.2 -1831.89,30.2 -3312.67,1005.6 -3377.94,2200.2 -1.98,34.8 -2.72,69.9 -2.1,105.1 4.82,324.6 113.92,631.5 306.04,907.2 543.06,778.8 1749.21,1308.3 3141.9,1285.4 1392.5,-22.9 2582.3,-591.9 3101.5,-1388.5 183.8,-281.7 283.6,-592 278.7,-916.6" /></g><g
         transform="scale(1.51566)"
         id="g310"><path
           id="path312"
           style="fill:#1096cd;fill-opacity:1;fill-rule:nonzero;stroke:none"
           d="m 9198.22,14899.3 c -398.7,395.7 -640.97,864.3 -668.42,1366.3 -0.66,11.4 -1.12,22.9 -1.58,34.4 0.13,-2.1 0.19,-4.3 0.26,-6.4 0.4,-9.3 0.86,-18.7 1.39,-28 27.44,-501.9 269.65,-970.6 668.35,-1366.3 m 6851.28,211.6 v 0 c 74.5,96.7 140.2,197.1 196.1,300.6 -55.9,-103.5 -121.6,-203.9 -196.1,-300.6" /></g><g
         transform="scale(1.49237)"
         id="g314"><path
           id="path316"
           style="fill:#1a1a5a;fill-opacity:1;fill-rule:nonzero;stroke:none"
           d="m 16199.8,15224.9 c 0,0.1 0,0 0,0 35,40 68.4,80.6 100.2,121.8 v 0 c -31.8,-41.2 -65.2,-81.8 -100.2,-121.8" /></g><g
         transform="scale(1.54718)"
         id="g318"><path
           id="path320"
           style="fill:#1096cd;fill-opacity:1;fill-rule:nonzero;stroke:none"
           d="m 16136.1,15898.9 c 0.2,6.1 0.4,12.1 0.5,18.1 -0.1,-6 -0.3,-12 -0.5,-18.1 m -7782.63,122.2 c -0.07,11 0,22 0.13,33 1.23,83 8.46,165 21.45,245.9 0,-0.1 0,-0.1 0,-0.2 -12.92,-80.8 -20.1,-162.7 -21.32,-245.7 -0.13,-7.1 -0.2,-14.3 -0.26,-21.4 0,-3.8 0,-7.7 0,-11.6" /></g><g
         transform="scale(1.47385)"
         id="g322"><path
           id="path324"
           style="fill:#8a8aaa;fill-opacity:1;fill-rule:nonzero;stroke:none"
           d="m 15799.1,14890.8 h 0.1 -0.1 m 0.4,0.2 c 187,126.2 354.7,264.7 500.5,413.7 v 0 c -145.7,-149 -313.7,-287.5 -500.5,-413.7" /></g><g
         transform="scale(1.4832)"
         id="g326"><path
           id="path328"
           style="fill:#1a1a5a;fill-opacity:1;fill-rule:nonzero;stroke:none"
           d="m 16197.3,15208.2 v 0 c 35.6,36.4 69.9,73.3 102.7,110.9 0,-0.1 0,0 0,0 -32.8,-37.6 -67.1,-74.5 -102.7,-110.9" /></g><g
         transform="scale(1.54716)"
         id="g330"><path
           id="path332"
           style="fill:#b48396;fill-opacity:1;fill-rule:nonzero;stroke:none"
           d="m 12305.4,13425.8 c -33,0 -65.7,0.4 -98.8,0.9 -1334,21.9 -2504.63,483.6 -3195.63,1169.3 -390.59,387.6 -627.86,846.8 -654.75,1338.5 -0.52,9.1 -0.97,18.3 -1.36,27.4 0.39,-9.1 0.9,-18.2 1.42,-27.3 2.14,-36.2 5.17,-72.4 9.7,-108.4 10.98,91.5 29.21,181.5 54.42,269.9 335.91,-1181.7 1897.3,-2094.5 3786.2,-2125.6 32.9,-0.6 65.9,-0.8 98.7,-0.8 1872.6,0 3430.3,876.4 3764.8,2051.9 25.4,-89.2 43.8,-179.9 54.9,-271.8 -26.9,-227.6 -98.9,-446.1 -210.2,-652.1 -54.7,-101.3 -119,-199.7 -192,-294.4 -30.7,-39.9 -62.9,-79 -96.7,-117.5 -31.5,-36 -64.3,-71.5 -98.4,-106.3 -138.9,-141.9 -298.7,-273.8 -476.8,-394 -0.1,-0.1 -0.1,-0.1 -0.3,-0.2 v -0.1 c -695.9,-469.7 -1668.5,-759.4 -2745.2,-759.4 m 3829.8,2448.4 c 0.8,17.2 1.3,34.5 1.6,51.9 0.6,43.6 -0.3,86.8 -2.9,129.8 2.6,-43 3.7,-86.4 3,-129.9 0,-2.9 -0.1,-5.9 -0.1,-8.8 -0.1,-6 -0.3,-12.1 -0.5,-18.1 -0.3,-8.3 -0.6,-16.6 -1.1,-24.9 m -7781.63,158.7 c 0.06,7.1 0.13,14.3 0.26,21.4 1.22,82.9 8.4,164.9 21.32,245.7 l 0.07,-0.1 c -12.93,-80.7 -20.1,-162.6 -21.33,-245.5 -0.19,-7.2 -0.26,-14.4 -0.32,-21.5" /></g><g
         transform="scale(1.62864)"
         id="g334"><path
           id="path336"
           style="fill:#85e5ff;fill-opacity:1;fill-rule:nonzero;stroke:none"
           d="m 15326.3,15049.1 c 0.3,4.5 0.6,8.9 0.8,13.4 0.1,2.1 0.3,4 0.3,6 0,-2 -0.2,-4 -0.2,-6 -0.3,-4.5 -0.6,-8.9 -0.9,-13.4 m -7389.7,120.1 c -0.61,16.8 -0.98,33.6 -0.98,50.5 0.06,-16.9 0.43,-33.7 0.98,-50.5 m 7375.4,224.6 c -24.1,161.9 -72.1,319.4 -141.8,470.9 h 0.1 c 69.7,-151.5 117.7,-309 141.7,-470.9 m -7325.11,238.8 c 30.02,117.7 72.94,232.3 127.71,343.3 v 0 c -54.77,-111 -97.69,-225.6 -127.71,-343.3 m 7078.31,429.6 c -12.1,20 -24.6,39.8 -37.4,59.6 -39.6,60.6 -82.7,120.1 -129.3,178.2 0.3,-0.2 0.5,-0.5 0.7,-0.7 46.3,-57.9 89.3,-117.1 128.6,-177.5 12.9,-19.7 25.3,-39.5 37.4,-59.4 0,-0.1 0,-0.1 0,-0.2" /></g><g
         transform="scale(1.75458)"
         id="g338"><path
           id="path340"
           style="fill:#ffffff;fill-opacity:1;fill-rule:nonzero;stroke:none"
           d="m 13642.5,15336.4 c -0.2,0.2 -0.3,0.3 -0.5,0.4 -344.8,339.3 -823.3,615.8 -1385.5,795.5 0,0 0.1,0 0.1,0.1 562.5,-179.9 1041.1,-456.5 1385.9,-796 m -1807.5,908.8 c -96,21 -194,39.3 -293.5,54.8 99.5,-15.5 197.5,-33.7 293.5,-54.8 v 0" /></g><g
         transform="scale(1.6509)"
         id="g342"><path
           id="path344"
           style="fill:#8d8dad;fill-opacity:1;fill-rule:nonzero;stroke:none"
           d="m 14698.4,16079.6 c -0.2,0.2 -0.4,0.5 -0.7,0.7 -33.2,41.4 -68.1,82.1 -104.7,122.1 0.2,-0.2 0.4,-0.3 0.6,-0.5 36.7,-40.1 71.6,-80.8 104.8,-122.3 m -127.9,147.2 c -0.1,0 -0.2,0.1 -0.3,0.1 -23.1,24.7 -47,49.1 -71.4,73.1 0.2,-0.1 0.3,-0.2 0.5,-0.4 24.4,-24 48.1,-48.3 71.2,-72.8" /></g><g
         transform="scale(1.73881)"
         id="g346"><path
           id="path348"
           style="fill:#9fa2b0;fill-opacity:1;fill-rule:nonzero;stroke:none"
           d="m 8606.52,15962.2 c 0.06,0 0.06,0 0.11,0 h -0.11 m 1.9,1.1 c 0.34,0.1 0.74,0.4 1.09,0.6 -0.35,-0.2 -0.75,-0.5 -1.09,-0.6 m 1.95,1.1 c 0.64,0.3 1.33,0.7 1.96,1.1 -0.63,-0.4 -1.32,-0.8 -1.96,-1.1 m 2.07,1.1 c 235.74,134 499.89,246.9 785.6,334.5 v 0 c -285.77,-87.6 -549.8,-200.5 -785.6,-334.5" /></g><g
         transform="scale(1.6435)"
         id="g350"><path
           id="path352"
           style="fill:#c6c6d6;fill-opacity:1;fill-rule:nonzero;stroke:none"
           d="m 14659.3,16274.8 c -0.2,0.2 -0.4,0.4 -0.6,0.6 -7.6,8.2 -15.2,16.4 -22.9,24.6 0.1,-0.1 0.2,-0.1 0.3,-0.2 7.8,-8.3 15.5,-16.7 23.2,-25" /></g><g
         transform="scale(1.74547)"
         id="g354"><path
           id="path356"
           style="fill:#8d8dad;fill-opacity:1;fill-rule:nonzero;stroke:none"
           d="m 9362.17,16237.8 v 0 c 70.87,21.8 143.11,41.9 216.55,60.4 -73.38,-18.5 -145.74,-38.7 -216.55,-60.4 m 217.59,60.7 c 0.86,0.2 1.6,0.4 2.46,0.6 -0.86,-0.2 -1.6,-0.4 -2.46,-0.6 m 5.5,1.4 c 0.17,0 0.23,0 0.4,0.1 -0.17,-0.1 -0.23,-0.1 -0.4,-0.1" /></g><g
         transform="scale(1.74868)"
         id="g358"><path
           id="path360"
           style="fill:#8d8dad;fill-opacity:1;fill-rule:nonzero;stroke:none"
           d="m 12297.8,16186.7 c -136.3,43.6 -277.4,81.5 -422.8,113.3 v 0 c 145.4,-31.7 286.6,-69.7 422.9,-113.2 0,-0.1 -0.1,-0.1 -0.1,-0.1" /></g><g
         transform="scale(1.6049)"
         id="g362"><path
           id="path364"
           style="fill:#8d8dad;fill-opacity:1;fill-rule:nonzero;stroke:none"
           d="m 15394.6,16099.4 c -31.2,68.1 -66.9,134.9 -106.6,200.4 0,0.1 0.1,0.1 0.1,0.2 39.7,-65.6 75.3,-132.5 106.6,-200.6 h -0.1 m -7159.95,112.8 c 4.67,9.5 9.47,19 14.33,28.5 -4.86,-9.5 -9.6,-19 -14.33,-28.5 v 0" /></g><g
         transform="scale(1.76112)"
         id="g366"><path
           id="path368"
           style="fill:#fbd8d8;fill-opacity:1;fill-rule:nonzero;stroke:none"
           d="m 14166,13836.1 c 0,0.1 0,0.1 -0.1,0.2 3.7,30.8 6.4,61.8 8.1,93.1 0.4,5.3 0.7,10.7 0.9,16.2 -0.1,-3.5 -0.2,-7 -0.5,-10.6 0,-1.8 -0.1,-3.7 -0.3,-5.5 -0.2,-4.2 -0.4,-8.3 -0.7,-12.4 -1.8,-27.1 -4.2,-54.1 -7.4,-81 m -48.3,239 c -47.2,165.5 -121.7,324.9 -220.3,476 -519.9,797.7 -1711.3,1367.5 -3105.8,1390.5 -28.9,0.6 -57.8,0.8 -86.6,0.8 -1357.84,0 -2527.09,-524.3 -3059.59,-1288.1 -112.66,-161.4 -196.69,-333.6 -248.03,-513.8 -16.75,59 -30.03,118.6 -39.69,179.1 7.33,46.1 16.87,91.9 28.39,137.1 27.77,108.8 67.46,214.8 118.11,317.4 4.31,8.7 8.63,17.3 13.06,25.9 37.36,72.6 80.18,143.3 128.16,212.2 201.18,288.5 493.32,542.9 852.07,747.7 l 0.11,0.1 c 0.57,0.3 1.19,0.7 1.76,1 0.34,0.2 0.74,0.4 1.08,0.6 0.28,0.2 0.57,0.3 0.85,0.5 0.63,0.3 1.31,0.7 1.93,1.1 h 0.12 c 232.8,132.3 493.49,243.8 775.64,330.3 70.18,21.5 141.9,41.5 214.63,59.9 0.34,0.1 0.74,0.2 1.02,0.3 0.86,0.2 1.6,0.4 2.45,0.6 1.02,0.2 1.98,0.5 3.01,0.7 0.17,0.1 0.22,0.1 0.39,0.1 373.63,93.7 779.53,144.9 1203.63,144.9 29.1,0 58.2,-0.2 87.5,-0.7 242.6,-4 479.1,-24.5 707,-59.9 99.2,-15.4 196.7,-33.7 292.5,-54.6 144.4,-31.5 284.5,-69.2 419.9,-112.4 560.1,-179.1 1036.7,-454.6 1380.3,-792.6 22.9,-22.5 45.3,-45.4 67,-68.5 7.2,-7.6 14.3,-15.3 21.3,-23 34.4,-37.5 67.1,-75.6 98.2,-114.5 43,-53.7 83,-108.7 119.5,-164.8 11.9,-18.2 23.4,-36.6 34.6,-55.1 36.2,-59.6 68.7,-120.6 97.2,-182.6 64.4,-140.1 108.8,-285.8 131.1,-435.4 6.3,-43.2 10.9,-86.7 13.5,-130.6 -3,50 -8.5,99.6 -16.4,148.8 -9.6,-60.5 -22.9,-120.2 -39.6,-179" /></g><g
         transform="scale(1.52181)"
         id="g370"><path
           id="path372"
           style="fill:#88cbe6;fill-opacity:1;fill-rule:nonzero;stroke:none"
           d="m 8494.03,16227.8 c -0.07,2.1 -0.13,4.3 -0.26,6.4 -0.59,17.9 -0.99,35.9 -1.05,54 0,3.9 0,7.9 0,11.8 -0.07,-24.2 0.39,-48.2 1.31,-72.2" /></g><g
         transform="scale(1.54715)"
         id="g374"><path
           id="path376"
           style="fill:#dac1cb;fill-opacity:1;fill-rule:nonzero;stroke:none"
           d="m 16125,15749.8 c -11,92 -29.4,182.7 -54.8,271.9 19,66.9 34.1,134.9 45.1,203.7 8.9,-56 15.2,-112.5 18.7,-169.4 2.5,-43 3.5,-86.3 2.9,-129.8 -0.3,-17.4 -0.8,-34.7 -1.6,-51.9 -0.3,-6.3 -0.6,-12.4 -1,-18.5 -2,-35.6 -5.1,-70.9 -9.3,-106 m -7758.99,76.5 c -4.53,35.9 -7.56,72.1 -9.7,108.3 -0.51,9.1 -1.03,18.2 -1.42,27.4 -0.9,23.6 -1.36,47.2 -1.29,71 0.06,7.1 0.13,14.3 0.32,21.5 1.23,82.9 8.41,164.8 21.33,245.5 10.99,-68.8 26.11,-136.7 45.18,-203.9 -25.21,-88.3 -43.43,-178.4 -54.42,-269.8" /></g><g
         transform="scale(1.77387)"
         id="g378"><path
           id="path380"
           style="fill:#1a1a5a;fill-opacity:1;fill-rule:nonzero;stroke:none"
           d="m 10628.2,16087.3 c -1276.84,0 -2432,-481.2 -2959.38,-1237.7 -186.03,-267 -282.66,-552.5 -287.22,-848.6 -5.19,-346.7 114.6,-679.9 356.05,-990.2 562.05,-722.6 1677.3,-1184.2 2910.45,-1204.6 1260.4,-21.1 2400.9,417.9 2975.2,1145 230.9,292.4 350.6,609 355.6,940.9 v 0 c 4.6,296 -83.4,584.5 -261.4,857.7 -515.5,790.6 -1695,1315.3 -3005.1,1336.8 -28,0.5 -56.3,0.7 -84.2,0.7 z m 105.1,-4472.9 c -29.4,0 -58.8,0.3 -88.3,0.8 -1289.64,21.3 -2461.49,511.1 -3058.15,1278.2 -265.01,340.8 -402.05,724.7 -396.3,1110.5 5.18,334.9 113.36,656.1 321.55,955 574.28,823.8 1831.81,1341.1 3203.4,1318.7 1371.7,-22.5 2612.9,-581.3 3161.9,-1423.5 199.3,-305.6 297.7,-630.2 292.6,-964.9 v 0 c -5.7,-369.6 -142.8,-734.9 -396.8,-1056.4 -596.7,-755.5 -1755.8,-1218.4 -3039.9,-1218.4" /></g><g
         transform="scale(1.65779)"
         id="g382"><path
           id="path384"
           style="fill:#1a1a5a;fill-opacity:1;fill-rule:nonzero;stroke:none"
           d="m 9815.29,15802.2 c -116.24,-149.6 -294.67,-205.5 -398.61,-124.8 -103.87,80.7 -93.92,267.4 22.33,417.1 116.23,149.6 294.66,205.5 398.54,124.8 103.93,-80.7 93.92,-267.4 -22.26,-417.1" /></g><g
         transform="scale(1.51971)"
         id="g386"><path
           id="path388"
           style="fill:#1a1a5a;fill-opacity:1;fill-rule:nonzero;stroke:none"
           d="m 14452.9,16102.5 c 7.6,-161.9 -29.5,-306.3 -98.6,-428.7 -231.2,-413.9 -819.8,-575.7 -1227,-321.9 -100.8,62.4 -190.5,150.9 -260.7,267.2 -63.7,105 4.4,240.8 126.4,254.4 37.5,4.2 74.5,8.9 111.8,14.3 372.5,54 734,168.9 1070.1,340.1 l 32.6,16.6 c 109,55.5 239.6,-19.8 245.4,-142" /></g><g
         transform="scale(1.48493)"
         id="g390"><path
           id="path392"
           style="fill:#f9165e;fill-opacity:1;fill-rule:nonzero;stroke:none"
           d="m 14690.5,16040.9 c -236.7,-423.6 -839,-589.2 -1255.7,-329.5 237.5,423 839.1,588.6 1255.7,329.5" /></g><g
         transform="scale(1.52784)"
         id="g394"><path
           id="path396"
           style="fill:#1a1a5a;fill-opacity:1;fill-rule:nonzero;stroke:none"
           d="m 14207.9,16065.5 c -7.8,0 -16.6,-1.7 -25.8,-6.4 l -32.2,-16.4 c -380.8,-194 -789.1,-316.5 -1213.8,-363.8 -28.2,-3.2 -41,-23.5 -45.3,-32 -5.1,-10.3 -11.6,-31.1 2.1,-53.7 208.5,-344.5 583,-375.1 840.5,-296.6 257.3,78.4 551,312.7 531.9,714.9 -1.3,26.6 -18.2,40.2 -28.2,46 -5.2,3 -15.8,8 -29.2,8 z M 13497,15039.9 c -294.2,0 -604.3,125.2 -793.8,438.4 -49.3,81.4 -53.5,181.1 -11.4,266.6 42.4,86 124.5,143.7 219.7,154.4 398,44.4 780.8,159.2 1137.7,341 l 32.2,16.4 c 84.9,43.3 184.7,40.5 267.1,-7.4 82.1,-47.6 133.8,-132.6 138.4,-227.3 23.5,-495.5 -329,-827.9 -688.9,-937.6 -94.2,-28.8 -196.6,-44.5 -301,-44.5" /></g><g
         transform="scale(1.52063)"
         id="g398"><path
           id="path400"
           style="fill:#babacd;fill-opacity:1;fill-rule:nonzero;stroke:none"
           d="m 12085.2,6532.88 c 0,0 -0.2,0 -0.3,0 -607,0 -1203.9,79.37 -1742.2,245.42 -683.62,210.9 -1564.57,651.83 -1878.85,1554.95 -66.49,191.1 -115.74,376.22 -149.87,557 200.44,-349.46 495.71,-641.24 858,-875.75 334.92,-510.51 903.02,-888.65 1586.92,-989.66 119.2,-17.62 237.5,-26.1 354,-26.1 404.7,0 788.3,102.85 1116.6,285.21 1340.9,26.56 2730.7,410.22 3719.1,1135.77 117,-94.56 239,-169.79 351.4,-228.45 -107.6,-160.79 -241,-311.98 -404.1,-453.7 -2.3,11.38 -4.8,22.76 -7.4,34.13 -2.7,11.38 -10.6,21.58 -22,26.84 -5.3,2.36 -10.8,3.48 -16.2,3.48 -14.9,0 -29.1,-8.55 -35.7,-23.02 l -0.1,-0.19 c -3.4,-7.57 -6.7,-15.06 -10,-22.56 l -2374.2,-964.47 c -3.4,3.22 -7.4,5.92 -11.9,7.89 -5.4,2.37 -11.1,3.49 -16.7,3.49 -15.9,0 -31,-9.27 -37.8,-24.73 -20.4,-46.36 -33.8,-92.33 -43,-138.16 -406.7,-70.83 -823.5,-107.39 -1235.7,-107.39" /></g><g
         transform="scale(1.53721)"
         id="g402"><path
           id="path404"
           style="fill:#33385f;fill-opacity:1;fill-rule:nonzero;stroke:none"
           d="m 16124.2,8102.9 c -111.2,58.03 -232,132.45 -347.7,225.99 5,3.65 10,7.42 15,11.06 94.1,69.68 180.6,141.62 260.1,215.91 76.7,-53.21 160,-97.44 248.4,-131.34 -48.5,-111.24 -106.8,-218.45 -175.8,-321.62" /></g><g
         transform="scale(1.54715)"
         id="g406"><path
           id="path408"
           style="fill:#1a1a5a;fill-opacity:1;fill-rule:nonzero;stroke:none"
           d="m 11891.6,6310.04 c -1678,-0.06 -3244.43,603.3 -3676.38,1844.48 -111.95,322.27 -175.62,627.67 -200.95,923.44 42.72,-119.06 95.33,-232.29 157.19,-340.11 33.54,-177.68 81.96,-359.62 147.3,-547.45 308.89,-887.63 1174.74,-1321.01 1846.64,-1528.29 529.1,-163.21 1115.8,-241.22 1712.4,-241.22 0,0 0.2,0 0.3,0 405,0 814.8,35.93 1214.5,105.55 -7.8,-39.04 -12.4,-77.95 -15.4,-116.8 0,-0.19 0,-0.38 0,-0.51 -392.5,-65.93 -792.1,-99.09 -1185.6,-99.09 m 3750.5,1167.31 c -4,42.33 -10.1,84.86 -18.7,127.58 160.4,139.29 291.4,287.89 397.2,445.92 68.6,102.51 126.5,209.03 174.7,319.55 34.2,-13.12 69.1,-24.62 104.7,-34.51 -136.1,-316.65 -347.7,-602.85 -657.9,-858.54" /></g><g
         transform="scale(1.1409)"
         id="g410"><path
           id="path412"
           style="fill:#b48396;fill-opacity:1;fill-rule:nonzero;stroke:none"
           d="m 14811.7,9328.2 c -155.2,0 -312.9,11.3 -471.8,34.79 -911.5,134.63 -1668.7,638.61 -2115.1,1319.01 1010.4,-654.2 2413.4,-975.5 3876.1,-975.59 66.1,0 132.7,0.61 199.1,1.93 -437.6,-243.06 -948.8,-380.14 -1488.3,-380.14" /></g><g
         transform="scale(1.47441)"
         id="g414"><path
           id="path416"
           style="fill:#babacd;fill-opacity:1;fill-rule:nonzero;stroke:none"
           d="m 15792.7,4977.51 c -121,30.86 -244.9,53.72 -369.1,70.2 214.4,229.04 294.2,725.24 321.7,1144.53 15,229.65 -169.2,419.42 -390.8,419.42 -21.1,0 -42.4,-1.7 -63.9,-5.22 -35.5,-5.7 -72.5,-12.96 -110.8,-21.51 -540.2,-120.04 -856.5,-303.3 -1162.7,-303.37 -13.5,0 -27,0.41 -40.5,1.09 -2.7,65.24 -3.4,130.62 -5.5,195.87 -2.9,86.75 -10.5,173.15 -25.7,259.22 -15.9,86.07 -39.2,171.73 -86,256.44 l -0.2,0.21 c -2.1,3.8 -4.7,7.25 -7.9,10.31 l 2448.7,994.7 c -68.6,-159.52 -100.7,-322.44 -125.1,-486.3 -27.5,-171.52 -43.6,-344.34 -60.5,-517.09 -16.7,-172.81 -40.1,-344.74 -63.8,-516.61 -23.7,-171.8 -48.7,-343.32 -75.4,-514.51 -52.2,-331.59 -109.4,-662.57 -182.5,-987.38 m -1708.2,55.21 c -0.2,1.7 -0.4,3.32 -0.6,5.02 1.3,-1.56 2.6,-3.05 3.9,-4.54 -1.1,-0.14 -2.2,-0.27 -3.3,-0.48" /></g><g
         transform="scale(1.42852)"
         id="g418"><path
           id="path420"
           style="fill:#505064;fill-opacity:1;fill-rule:nonzero;stroke:none"
           d="m 15289.7,4282.05 c -147.6,0 -295.7,5.39 -437.3,21.56 -41.8,4.9 -83,11.62 -118.2,20.09 -10.6,2.31 -20,5.32 -27.1,7.84 -0.5,0.84 -0.9,1.68 -1.4,2.52 -3.6,5.25 -6.9,14.63 -10.2,23.1 l -10.3,25.48 -18.4,57.26 c -11,40.26 -21.9,80.93 -30.8,123.28 -37.4,168.42 -62.4,344.9 -85.5,520.75 -4.7,36.82 -9.2,73.64 -13.6,110.46 1.2,0.21 2.3,0.35 3.4,0.49 150.1,-170.38 380.4,-239.13 617.9,-239.13 236.5,0 480.1,68.11 659.2,171.86 36.8,21.35 70.6,49.07 101.6,82.25 128.2,-17.01 256.1,-40.6 381,-72.45 -2.4,-10.64 -4.8,-21.21 -7.2,-31.85 -40,-172.14 -84,-343.92 -141.6,-504.58 -14.4,-40.04 -30,-78.96 -46.9,-115.78 -16.4,-37.11 -35.4,-71.27 -54.1,-98.01 -9.2,-13.79 -18.8,-23.66 -25,-29.4 -3.8,-3.22 -2.8,-2.03 -6.1,-4.55 -4.2,-1.61 -7.5,-3.85 -15.8,-6.37 -28.8,-10.29 -69.9,-19.11 -110,-26.04 -165.4,-26.6 -343.8,-34.93 -518.9,-38.22 -28.2,-0.35 -56.4,-0.56 -84.7,-0.56 m -574.1,32.97 c -0.5,0.84 -0.9,1.68 -1.3,2.52 0.6,-0.98 1.1,-1.82 1.3,-2.52 m -18.2,20.16 c -0.6,0.21 -1.2,0.42 -1.6,0.63 0.6,-0.07 1.1,-0.28 1.6,-0.63" /></g><g
         transform="scale(1.48471)"
         id="g422"><path
           id="path424"
           style="fill:#1a1a5a;fill-opacity:1;fill-rule:nonzero;stroke:none"
           d="m 14714.2,4005.78 c -315.9,0 -615,27.61 -651.1,83.72 -99.7,154.1 -176.1,706.33 -230.8,1284.29 19.5,-157.33 74.8,-279.25 153.9,-370.98 0.2,-1.68 0.4,-3.3 0.6,-4.98 4.3,-35.43 8.6,-70.86 13.1,-106.29 22.2,-169.19 46.2,-338.99 82.2,-501.04 8.6,-40.75 19.1,-79.88 29.7,-118.61 l 17.7,-55.1 9.9,-24.51 c 3.2,-8.15 6.4,-17.18 9.8,-22.23 0.5,-0.81 0.9,-1.62 1.3,-2.42 6.9,-2.43 15.9,-5.32 26.1,-7.55 33.9,-8.15 73.6,-14.61 113.8,-19.33 136.2,-15.56 278.7,-20.74 420.7,-20.74 27.2,0 54.4,0.2 81.5,0.54 168.5,3.16 340.2,11.18 499.3,36.77 38.5,6.67 78.1,15.16 105.8,25.06 8,2.42 11.1,4.58 15.2,6.13 3.2,2.42 2.2,1.28 5.9,4.37 5.9,5.53 15.2,15.02 24,28.29 18,25.73 36.3,58.6 52.1,94.3 16.3,35.43 31.3,72.87 45.1,111.4 55.4,154.58 97.8,319.86 136.2,485.49 2.4,10.23 4.7,20.4 7,30.64 72.6,322.56 129.4,651.24 181.2,980.53 26.6,170 51.4,340.34 74.9,510.94 23.5,170.68 46.8,341.42 63.4,513.03 16.8,171.55 32.7,343.17 60.1,513.51 24.2,162.72 56.1,324.51 124.2,482.92 3.3,7.68 6.7,15.36 10.1,23.11 l 0.2,0.2 c 6.7,14.81 21.3,23.57 36.6,23.57 5.5,0 11.1,-1.15 16.5,-3.57 11.7,-5.39 19.8,-15.83 22.5,-27.48 2.7,-11.65 5.3,-23.3 7.6,-34.96 9,-44.52 15.3,-88.84 19.5,-132.95 -28.9,-23.84 -58.7,-47.49 -89.3,-70.79 -19.2,-178.96 -48.4,-443.73 -86.2,-750.32 -1,-8.21 -2.2,-16.37 -3.1,-24.85 -2.9,-23.31 -5.7,-46.88 -8.8,-70.45 -18,-142.19 -37.5,-291.51 -58.6,-445.01 -141.1,-1025.79 -352.2,-2211.68 -584.2,-2340.93 -99.3,-55.5 -436,-83.72 -755.6,-83.72 m -556.7,148.38 c 0.4,-0.81 0.8,-1.62 1.2,-2.43 -0.2,0.68 -0.6,1.48 -1.2,2.43 m -17.8,17.57 c 0.4,-0.2 0.9,-0.4 1.6,-0.6 -0.5,0.34 -1.1,0.54 -1.6,0.6 m -260,2067.35 c -38.6,2.16 -77.2,7.34 -116.3,16.23 -14.4,195.6 -23.6,338.66 -29.2,442.11 -35.6,-6.46 -71.3,-12.73 -106.9,-18.72 0,0.13 0,0.33 0,0.54 3.1,40.48 7.9,81.02 15.9,121.71 9.4,46.94 23.2,94.02 44,141.5 7,15.83 22.5,25.33 38.8,25.33 5.7,0 11.5,-1.15 17.1,-3.57 4.6,-2.02 8.6,-4.78 12.2,-8.08 3.1,-3.03 5.7,-6.47 7.8,-10.24 l 0.2,-0.2 c 46.4,-84.13 69.6,-169.19 85.4,-254.67 15.1,-85.47 22.7,-171.28 25.6,-257.42 2.1,-64.8 2.7,-129.73 5.4,-194.52" /></g><g
         transform="scale(1.83003)"
         id="g426"><path
           id="path428"
           style="fill:#c0f2ff;fill-opacity:1;fill-rule:nonzero;stroke:none"
           d="M 16300,11564.7 V 7997.84 c 0,-493.54 -400.1,-893.64 -893.6,-893.64 h -1362.5 c -493.6,0 -893.7,400.1 -893.7,893.64 v 3566.96 c 0,457.9 181.6,897.2 505,1221.4 v 0 c 270.2,270.8 421.9,637.7 421.9,1020.2 v 231.1 H 15373 v -231 c 0,-382.6 151.7,-749.5 421.9,-1020.3 323.5,-324.2 505.1,-763.5 505.1,-1221.5" /></g><g
         transform="scale(1.83004)"
         id="g430"><path
           id="path432"
           style="fill:#eae5bb;fill-opacity:1;fill-rule:nonzero;stroke:none"
           d="M 16300,11282.5 V 7997.68 c 0,-493.43 -400.3,-893.47 -893.7,-893.47 h -1362.4 c -493.7,0 -893.8,400.04 -893.8,893.47 v 3284.82 c 0,-159 705.2,-287.8 1575,-287.8 869.7,0 1574.9,128.8 1574.9,287.8" /></g><g
         transform="scale(1.81964)"
         id="g434"><path
           id="path436"
           style="fill:#aba89e;fill-opacity:1;fill-rule:nonzero;stroke:none"
           d="m 15494.3,7237.9 h -1370.2 c -352.9,0 -653.6,228.07 -762.3,544.56 145,-100.41 321,-159.1 510.9,-159.1 h 1370.1 c 496.3,0 898.9,402.33 898.9,898.58 v 540.6 c -4.1,1.54 -8.3,3.35 -12.3,5.11 -279.8,125.25 -674.4,405.41 -622.5,980.95 3.6,40.7 8.9,79.1 15.5,115.4 79.9,-377.64 380.9,-579.98 607,-681.16 41.2,-18.52 84.5,-27.25 127.1,-27.25 12.3,0 24.6,0.71 36.7,2.14 2.3,0.27 4.5,0.6 6.8,0.88 V 8043.39 c 0,-444.16 -361.4,-805.49 -805.7,-805.49" /></g><g
         transform="scale(1.84044)"
         id="g438"><path
           id="path440"
           style="fill:#1a1a5a;fill-opacity:1;fill-rule:nonzero;stroke:none"
           d="M 13168,11020.3 V 7952.52 c 0,-439.13 357.3,-796.39 796.6,-796.39 h 1354.7 c 439.2,0 796.6,357.26 796.6,796.39 v 3067.68 c -85.1,-36.1 -200.9,-67.1 -350.1,-94.4 -301.1,-54.9 -700.2,-85.3 -1123.9,-85.3 -423.7,0 -822.8,30.4 -1123.8,85.3 -149.3,27.3 -265.1,58.3 -350.1,94.5 m 2151.3,-4048.31 h -1354.7 c -540.8,0 -980.8,439.84 -980.8,980.53 v 3266.28 h 184.2 c 0,8.6 -2.9,14.5 -3.9,16.1 49.2,-71 547.9,-210.2 1477.8,-210.2 929.8,0 1428.6,139.2 1477.9,210.2 -1.1,-1.6 -3.9,-7.5 -3.9,-16.1 H 16300 V 7952.52 c 0,-540.69 -440,-980.53 -980.7,-980.53" /></g><g
         transform="scale(1.83004)"
         id="g442"><path
           id="path444"
           style="fill:#eae5bb;fill-opacity:1;fill-rule:nonzero;stroke:none"
           d="m 16300,11282.5 c 0,-159 -705.2,-287.8 -1574.9,-287.8 -869.8,0 -1575,128.8 -1575,287.8 0,158.9 705.2,287.8 1575,287.8 869.7,0 1574.9,-128.9 1574.9,-287.8" /></g><g
         transform="scale(1.81813)"
         id="g446"><path
           id="path448"
           style="fill:#c0bca8;fill-opacity:1;fill-rule:nonzero;stroke:none"
           d="m 14821.6,11159.9 c -874.2,0 -1372.1,121.6 -1478.5,196.5 106.4,74.9 604.3,196.5 1478.5,196.5 874.2,0 1372,-121.6 1478.4,-196.5 -106.4,-74.9 -604.2,-196.5 -1478.4,-196.5" /></g><g
         transform="scale(1.84044)"
         id="g450"><path
           id="path452"
           style="fill:#1a1a5a;fill-opacity:1;fill-rule:nonzero;stroke:none"
           d="m 16119.8,11202.6 h 0.2 -0.2 m -2938.4,16.2 c 105.1,-74 596.9,-194.1 1460.5,-194.1 863.6,0 1355.4,120.1 1460.5,194.1 -105.1,74 -596.9,194 -1460.5,194 -863.6,0 -1355.4,-120 -1460.5,-194 m 1460.5,-378.3 c -423.7,0 -822.8,30.4 -1123.8,85.3 -369.5,67.6 -534.3,157.9 -534.3,293 0,135 164.8,225.4 534.3,292.9 301,55 700.2,85.3 1123.8,85.3 423.7,0 822.8,-30.3 1123.9,-85.3 369.5,-67.5 534.2,-157.9 534.2,-292.9 0,-135.1 -164.7,-225.4 -534.2,-293 -301.1,-54.9 -700.2,-85.3 -1123.9,-85.3" /></g><g
         transform="scale(1.84044)"
         id="g454"><path
           id="path456"
           style="fill:#1a1a5a;fill-opacity:1;fill-rule:nonzero;stroke:none"
           d="m 13670,12676.6 v -0.6 l -26.9,-27.3 c -306.4,-307.1 -475.1,-715.3 -475.1,-1149.4 v -82 c 85,36.1 200.8,67.1 350.1,94.4 301,55 700.2,85.3 1123.8,85.3 423.7,0 822.8,-30.3 1123.9,-85.3 149.2,-27.3 265,-58.3 350.1,-94.4 v 82 c 0,214.5 -41.6,423.7 -123.4,622 -82.1,198.2 -200.6,375.7 -352,527.4 -288,288.8 -446.5,672.3 -446.5,1079.8 v 137.6 h -1104.4 v -137.8 c 0,-394.7 -148.7,-766.6 -419.6,-1051.7 z m 2445.9,-1457.8 h 0.2 z m 3.9,-16.2 c -49.3,71 -548.1,210.2 -1477.9,210.2 -929.8,0 -1428.6,-139.2 -1477.8,-210.2 1,1.6 3.9,7.6 3.9,16.2 h -184.2 v 280.5 c 0,470.4 178,913.4 502,1252 v 0.6 l 27,27.1 c 253.2,253.8 392.7,590.9 392.7,949.3 v 321.9 h 1472.6 v -321.7 c 0,-358.5 139.5,-695.7 392.7,-949.7 168.6,-168.9 300.4,-366.4 391.8,-587.2 91.2,-220.6 137.4,-453.5 137.4,-692.3 v -280.5 h -184.1 c 0,-8.6 2.8,-14.6 3.9,-16.2" /></g><g
         transform="scale(1.75102)"
         id="g458"><path
           id="path460"
           style="fill:#00c3ff;fill-opacity:1;fill-rule:nonzero;stroke:none"
           d="m 16300,14951.1 c 0,-74.4 -178.3,-139.7 -444.4,-175.4 -136.4,-18.1 -295.7,-28.6 -466,-28.6 -170.3,0 -329.7,10.5 -466.1,28.6 -266.1,35.7 -444.4,101 -444.4,175.4 0,112.6 407.6,203.9 910.5,203.9 502.8,0 910.4,-91.3 910.4,-203.9" /></g><g
         transform="scale(1.75102)"
         id="g462"><path
           id="path464"
           style="fill:#85e5ff;fill-opacity:1;fill-rule:nonzero;stroke:none"
           d="m 14609.2,14817.5 c -82.4,30.8 -130.1,66.7 -130.1,105.1 0,4.8 0.8,9.6 2.2,14.2 11.2,-36.3 65,-70 150.1,-98.7 -8.9,-6.7 -16.4,-13.5 -22.2,-20.6 m 1674.9,67.4 c -7.1,2.6 -14.5,5.2 -22.1,7.7 18.9,14.2 31.1,29 35.8,44.2 1.5,-4.6 2.2,-9.4 2.2,-14.2 0,-12.9 -5.7,-25.5 -15.9,-37.7" /></g><g
         transform="scale(1.75078)"
         id="g466"><path
           id="path468"
           style="fill:#80e1ff;fill-opacity:1;fill-rule:nonzero;stroke:none"
           d="m 14633.4,14840.1 c -85.1,28.7 -138.9,62.5 -150.1,98.8 32.8,105.9 426.9,189.6 908.4,189.6 481.5,0 875.6,-83.7 908.3,-189.6 -4.7,-15.3 -16.9,-30.1 -35.8,-44.2 -163.1,54.9 -441.8,91 -758.2,91 -412.4,0 -760.6,-61.4 -872.6,-145.6" /></g><g
         transform="scale(1.75102)"
         id="g470"><path
           id="path472"
           style="fill:#00c3ff;fill-opacity:1;fill-rule:nonzero;stroke:none"
           d="m 16300,14951.1 v -350.6 c 0,-112.6 -407.6,-204 -910.4,-204 -502.9,0 -910.5,91.4 -910.5,204 v 350.6 c 0,-74.4 178.3,-139.7 444.4,-175.4 136.4,-18.1 295.8,-28.6 466.1,-28.6 170.3,0 329.6,10.5 466,28.6 266.1,35.7 444.4,101 444.4,175.4" /></g><g
         transform="scale(1.75913)"
         id="g474"><path
           id="path476"
           style="fill:#1a1a5a;fill-opacity:1;fill-rule:nonzero;stroke:none"
           d="m 16152.2,14870.6 h 0.3 z m -1655.1,12 c 33.7,-24 136.9,-69.5 367.6,-100.5 137.2,-18.2 294.2,-27.8 454,-27.8 159.6,0 316.5,9.6 453.8,27.8 230.6,31 333.8,76.5 367.5,100.5 -65.3,49.1 -344.5,127.2 -821.3,127.2 -477.1,0 -756.3,-78.1 -821.6,-127.2 z m 821.6,-278.8 c -166.3,0 -330.2,10.1 -473.9,29.1 -507.7,68.2 -507.7,204.5 -507.7,249.2 0,270.5 881.1,278.3 981.6,278.3 100.4,0 981.3,-7.8 981.3,-278.3 0,-44.7 0,-181 -507.6,-249.2 -143.9,-19 -307.6,-29.1 -473.7,-29.1" /></g><g
         transform="scale(1.76141)"
         id="g478"><path
           id="path480"
           style="fill:#1a1a5a;fill-opacity:1;fill-rule:nonzero;stroke:none"
           d="m 16114.5,14838.7 h 0.3 z M 14489.9,14532 c 57.7,-45.6 339.6,-124.2 809,-124.2 469.2,0 751,78.6 808.7,124.2 v 313.3 c -57.8,45.5 -339.7,124.1 -808.7,124.1 -469.3,0 -751.2,-78.6 -809,-124.1 z m 809,-316.6 c -167.3,0 -1001.4,14.4 -1001.4,299 v 348.5 c 0,284.5 834.1,298.9 1001.4,298.9 167.1,0 1001.1,-14.4 1001.1,-298.9 v -348.5 c 0,-284.6 -834,-299 -1001.1,-299" /></g><g
         transform="scale(1.86619)"
         id="g482"><path
           id="path484"
           style="fill:#686868;fill-opacity:1;fill-rule:nonzero;stroke:none"
           d="m 16082,10787.1 c -55.9,71.9 -141.5,114 -232.5,116.2 -228.4,5.6 -672.2,-66.6 -729.3,-700.4 -50.7,-561.22 334.2,-834.51 606.8,-956.52 150.5,-67.36 327.6,-2.63 399,145.97 75.4,156.89 154.3,388.65 163.1,681.35 10.9,363.2 -113.9,593.3 -207.1,713.4" /></g><g
         transform="scale(1.86506)"
         id="g486"><path
           id="path488"
           style="fill:#85e5ff;fill-opacity:1;fill-rule:nonzero;stroke:none"
           d="m 16299.1,10079.8 c 0.8,27.4 0.9,53.9 0.2,79.8 0.7,-25.9 0.6,-52.4 -0.2,-79.8" /></g><g
         transform="scale(1.7311)"
         id="g490"><path
           id="path492"
           style="fill:#f5f2dd;fill-opacity:1;fill-rule:nonzero;stroke:none"
           d="m 16295.3,10915 c 0.5,27.3 2.1,55.3 4.7,84 v 0 0 c -2.6,-28.7 -4.2,-56.7 -4.7,-84" /></g><g
         transform="scale(1.86498)"
         id="g494"><path
           id="path496"
           style="fill:#85e5ff;fill-opacity:1;fill-rule:nonzero;stroke:none"
           d="m 16300,10160.9 c 0,0.1 0,0.1 0,0.2 0,-0.1 0,-0.1 0,-0.2" /></g><g
         transform="scale(1.74269)"
         id="g498"><path
           id="path500"
           style="fill:#f5f2dd;fill-opacity:1;fill-rule:nonzero;stroke:none"
           d="m 16194.1,10950.5 c 16.4,152.9 54.3,274.2 105.9,370.3 -47.9,-89.4 -84.1,-200.6 -102.1,-338.6 -1.4,-10.4 -2.7,-21 -3.8,-31.7" /></g><g
         transform="scale(1.86386)"
         id="g502"><path
           id="path504"
           style="fill:#85e5ff;fill-opacity:1;fill-rule:nonzero;stroke:none"
           d="m 16300,10297.6 c -9.4,75.1 -24.8,142.6 -43.7,202.9 18.9,-60.2 34.3,-127.7 43.7,-202.7 0,-0.1 0,-0.2 0,-0.2" /></g><g
         transform="scale(1.74273)"
         id="g506"><path
           id="path508"
           style="fill:#f5f2dd;fill-opacity:1;fill-rule:nonzero;stroke:none"
           d="m 16299.9,11321.2 c 0.1,0.1 0,0 0,0 v 0" /></g><g
         transform="scale(1.84342)"
         id="g510"><path
           id="path512"
           style="fill:#85e5ff;fill-opacity:1;fill-rule:nonzero;stroke:none"
           d="m 16300,10894.4 c -6.6,9.1 -13,17.8 -19.4,25.9 -2.2,2.9 -4.6,5.9 -7,8.7 v 0 c 2.5,-2.9 4.8,-5.8 7.1,-8.7 6.3,-8.2 12.8,-16.8 19.3,-25.9" /></g><g
         transform="scale(1.84044)"
         id="g514"><path
           id="path516"
           style="fill:#8d8dad;fill-opacity:1;fill-rule:nonzero;stroke:none"
           d="m 16300,10946.7 c -0.8,1 -1.6,1.9 -2.4,2.8 0.8,-0.9 1.6,-1.8 2.4,-2.8 v 0" /></g><g
         transform="scale(1.8157)"
         id="g518"><path
           id="path520"
           style="fill:#8d8dad;fill-opacity:1;fill-rule:nonzero;stroke:none"
           d="m 16300,11206.1 c -3.3,0.2 -6.6,0.3 -9.8,0.4 -4.4,0.1 -8.8,0.2 -13.3,0.3 4.4,-0.1 8.9,-0.2 13.2,-0.3 3.3,-0.1 6.6,-0.2 9.9,-0.4" /></g><g
         transform="scale(1.86386)"
         id="g522"><path
           id="path524"
           style="fill:#b4b4b4;fill-opacity:1;fill-rule:nonzero;stroke:none"
           d="m 16274.9,10177.5 c -41.9,170.3 -113.6,290.5 -172.7,366.5 -56.1,72.1 -141.8,114.2 -233,116.5 -7.4,0.1 -15.2,0.2 -23,0.2 -202.7,0 -543.3,-65.9 -666.7,-482.6 -12.6,37.7 -22.9,77.2 -30.5,119.1 -1.4,-9.5 -2.8,-19.2 -4.1,-29 16.8,129.1 50.6,233.1 95.4,316.7 0.1,0.2 0.2,0.4 0.3,0.6 v 0 c 152.1,282.7 430.6,331.7 605.9,331.7 3.3,0 6.5,0 9.8,0 4.4,-0.1 8.7,-0.1 13,-0.2 3.1,-0.1 6.3,-0.2 9.5,-0.4 82.7,-4.6 160,-42 214,-104.7 0.8,-0.9 1.6,-1.8 2.4,-2.8 2.3,-2.8 4.6,-5.7 6.9,-8.6 6.3,-8 12.6,-16.6 19.1,-25.6 46.5,-64.9 97.7,-155.5 135.1,-274.4 18.9,-60.3 34.3,-127.8 43.7,-202.9 -4.7,-42.5 -13.3,-82.6 -25.1,-120.1" /></g><g
         transform="scale(1.73284)"
         id="g526"><path
           id="path528"
           style="fill:#aba89e;fill-opacity:1;fill-rule:nonzero;stroke:none"
           d="m 16299.9,10673.1 c -15,71 -22.5,147.8 -20.9,231 -0.5,-26.4 -0.1,-52.1 1.2,-77.2 2.8,-54.1 9.5,-105.2 19.8,-153.6 0,0 -0.1,-0.1 -0.1,-0.2" /></g><g
         transform="scale(1.81889)"
         id="g530"><path
           id="path532"
           style="fill:#7f7d89;fill-opacity:1;fill-rule:nonzero;stroke:none"
           d="m 16263.3,9459.51 c -42.7,0 -86,8.74 -127.2,27.27 -226.2,101.21 -527.3,303.64 -607.3,681.42 0,0 0.1,0.1 0.1,0.1 79.9,-377.82 381.1,-580.31 607,-681.47 41.4,-18.53 84.8,-27.32 127.5,-27.32 12.3,0 24.5,0.71 36.6,2.14 -12.2,-1.43 -24.4,-2.14 -36.7,-2.14" /></g><g
         transform="scale(1.86498)"
         id="g534"><path
           id="path536"
           style="fill:#1096cd;fill-opacity:1;fill-rule:nonzero;stroke:none"
           d="m 16090.1,9328.54 c 18.2,20.59 33.9,43.97 46.4,69.92 34.3,71.53 69.5,158.61 98.3,259.9 -28.8,-101.29 -63.9,-188.32 -98.2,-259.79 -12.5,-26.01 -28.2,-49.44 -46.5,-70.03 m 190.5,540.17 c 7.4,48.79 13.1,99.95 16.4,153.09 1.3,19.2 2.1,38.8 2.8,58.4 v 0 0 c -2.3,-74.5 -9.1,-145.06 -19.2,-211.49 m 19.4,291.29 c 0,0.3 0,0.6 0,0.9 0,-0.3 0,-0.6 0,-0.9 m 0,1.1 c -1.2,45.8 -4.6,89.3 -9.8,130.5 0,0.2 0.1,0.5 0.1,0.7 5.1,-41.3 8.5,-85.1 9.7,-131.2" /></g><g
         transform="scale(1.73136)"
         id="g538"><path
           id="path540"
           style="fill:#aba89e;fill-opacity:1;fill-rule:nonzero;stroke:none"
           d="m 16297.6,10997.4 c 0.7,8.3 1.5,16.5 2.4,24.7 -0.9,-8.1 -1.7,-16.4 -2.4,-24.7" /></g><g
         transform="scale(1.86463)"
         id="g542"><path
           id="path544"
           style="fill:#505064;fill-opacity:1;fill-rule:nonzero;stroke:none"
           d="m 15864.4,9227.45 c -41.6,0 -83.9,8.58 -124.3,26.66 -220.4,98.67 -514.3,296.19 -592.2,664.79 -9.5,45 -15.8,92.5 -18.4,142.8 1.4,-25.2 3.6,-49.6 6.7,-73.51 7.9,68.61 20.5,130.31 37,185.71 2.9,-8.7 5.9,-17.4 9.1,-25.9 94.6,-253.93 312.2,-372.45 530.2,-372.45 237,0 474.6,139.81 555.7,397.75 13.4,-54.2 23.7,-113.5 29.6,-178.08 0.9,9.48 1.6,18.88 2.2,28.48 -3.3,-53.21 -9,-104.37 -16.4,-153.17 -11.5,-75.67 -27.4,-145.93 -45.8,-210.39 -28.9,-101.31 -64,-188.4 -98.4,-259.95 -12.4,-25.95 -28.1,-49.34 -46.3,-69.93 -50.2,-56.63 -119.4,-91.98 -193,-100.72 -11.8,-1.39 -23.7,-2.09 -35.7,-2.09" /></g><g
         transform="scale(1.8652)"
         id="g546"><path
           id="path548"
           style="fill:#65a8cd;fill-opacity:1;fill-rule:nonzero;stroke:none"
           d="m 16295,10020.6 c 1.2,19.2 2.2,38.7 2.7,58.4 2.3,76.1 -1.3,146.4 -9.4,211.1 0,0.1 0,0.2 0,0.3 5.1,-41.2 8.5,-84.7 9.7,-130.5 0,-0.1 0,-0.1 0,-0.3 0,-0.2 0,-0.5 0,-0.8 0.7,-25.9 0.7,-52.4 -0.1,-79.8 v 0 c -0.7,-19.7 -1.6,-39.2 -2.9,-58.4" /></g><g
         transform="scale(1.73177)"
         id="g550"><path
           id="path552"
           style="fill:#b3b1b5;fill-opacity:1;fill-rule:nonzero;stroke:none"
           d="m 16290.2,10833.6 c -1.2,25.1 -1.7,50.8 -1.2,77.2 0.5,27.3 2.1,55.2 4.7,83.9 v 0 c 0.8,8.4 1.6,16.7 2.4,24.8 1.2,10.8 2.5,21.4 3.9,31.9 -2.4,-18.4 -4.5,-37.3 -6.2,-56.6 -5.1,-56.4 -6.2,-110.1 -3.6,-161.2" /></g><g
         transform="scale(1.8652)"
         id="g554"><path
           id="path556"
           style="fill:#858599;fill-opacity:1;fill-rule:nonzero;stroke:none"
           d="m 15131.6,9985.14 c -3.1,23.86 -5.4,48.26 -6.7,73.46 -2.4,47.4 -1.4,97.3 3.3,149.7 1.6,17.9 3.5,35.4 5.8,52.5 1.2,9.8 2.6,19.5 4.1,29 7.5,-41.9 17.8,-81.4 30.4,-119 -16.4,-55.4 -29,-117.1 -36.9,-185.66 m 1161.2,7.02 c -5.9,64.54 -16.2,123.84 -29.6,178.04 11.8,37.5 20.3,77.5 25.1,119.9 8.1,-64.7 11.7,-135 9.4,-211.1 -0.5,-19.7 -1.5,-39.2 -2.7,-58.4 -0.6,-9.5 -1.3,-19 -2.2,-28.44" /></g><g
         transform="scale(1.87664)"
         id="g558"><path
           id="path560"
           style="fill:#1a1a5a;fill-opacity:1;fill-rule:nonzero;stroke:none"
           d="m 15736.2,10752.6 c -258.5,0 -564.8,-110.1 -610.3,-614.7 -44.1,-488.02 275,-737.34 550.3,-860.6 104.2,-46.62 229.2,-0.95 278.6,101.84 65.2,135.88 144.8,357.33 153.3,641.06 9.8,326.7 -96.3,534.5 -187,651.4 -38.6,49.7 -97.7,79.1 -162.2,80.7 -7.5,0.2 -15.1,0.3 -22.7,0.3 z m 28.4,-1675.07 c -54.1,0 -109.2,11.25 -162.1,34.91 -269.4,120.58 -712.9,416.22 -656.5,1041.76 64.9,719.3 593.1,784 817.3,778.7 118.9,-3 228.4,-57.8 300.4,-150.6 108.9,-140.2 236.3,-387.2 224.9,-767.5 -9.4,-315.36 -98.3,-562.24 -171.1,-713.84 -67.8,-141.21 -206.7,-223.43 -352.9,-223.43" /></g><g
         transform="scale(1.56673)"
         id="g562"><path
           id="path564"
           style="fill:#f7f5e4;fill-opacity:1;fill-rule:nonzero;stroke:none"
           d="m 16038.8,10460.4 c -144.2,0 -261.2,358.6 -261.2,801 0,442.3 117,801 261.2,801 144.3,0 261.2,-358.7 261.2,-801 0,-442.4 -116.9,-801 -261.2,-801" /></g><g
         transform="scale(1.56673)"
         id="g566"><path
           id="path568"
           style="fill:#f7f5e4;fill-opacity:1;fill-rule:nonzero;stroke:none"
           d="m 16038.8,9493.85 c -144.2,0 -261.2,179.29 -261.2,400.45 0,221.2 117,400.5 261.2,400.5 144.3,0 261.2,-179.3 261.2,-400.5 0,-221.16 -116.9,-400.45 -261.2,-400.45" /></g><g
         transform="scale(1.65779)"
         id="g570"><path
           id="path572"
           style="fill:#1a1a5a;fill-opacity:1;fill-rule:nonzero;stroke:none"
           d="m 12984.5,15802.2 c 116.2,-149.6 294.7,-205.5 398.6,-124.8 103.9,80.7 93.9,267.4 -22.3,417.1 -116.3,149.6 -294.7,205.5 -398.6,124.8 -103.9,-80.7 -93.9,-267.4 22.3,-417.1" /></g></g></g></svg>