<?xml version="1.0" encoding="UTF-8" standalone="no"?>
<svg
   xmlns:dc="http://purl.org/dc/elements/1.1/"
   xmlns:cc="http://creativecommons.org/ns#"
   xmlns:rdf="http://www.w3.org/1999/02/22-rdf-syntax-ns#"
   xmlns:svg="http://www.w3.org/2000/svg"
   xmlns="http://www.w3.org/2000/svg"
   viewBox="0 0 4666.6665 2666.6667"
   height="2666.6667"
   width="4666.6665"
   xml:space="preserve"
   id="svg2"
   version="1.1"><metadata
     id="metadata8"><rdf:RDF><cc:Work
         rdf:about=""><dc:format>image/svg+xml</dc:format><dc:type
           rdf:resource="http://purl.org/dc/dcmitype/StillImage" /></cc:Work></rdf:RDF></metadata><defs
     id="defs6"><clipPath
       id="clipPath430"
       clipPathUnits="userSpaceOnUse"><path
         id="path428"
         d="m 18274.8,2196.5 v 0 l 7.6,66.2 v 0 l -7.6,-66.2" /></clipPath></defs><g
     transform="matrix(1.3333333,0,0,-1.3333333,0,2666.6667)"
     id="g10"><g
       transform="scale(0.1)"
       id="g12"><g
         transform="scale(2.14724)"
         id="g14"><path
           id="path16"
           style="fill:#ffffff;fill-opacity:1;fill-rule:nonzero;stroke:none"
           d="M 16300,0 H 0 V 9314.29 H 16300 V 0" /></g><g
         transform="scale(2.00861)"
         id="g18"><path
           id="path20"
           style="fill:#caf0ff;fill-opacity:1;fill-rule:nonzero;stroke:none"
           d="m 11802.8,9376.88 c 2277.9,-1397.44 1562,-3772.75 2537,-4483.65 1263.7,-921.49 1960.2,-4727.642 -556.6,-4803.5168 -5005.4,-150.8503 -11473.72,0 -11473.72,0 0,0 -1818.293,1636.4068 -748.15,4358.5268 1070.14,2722.15 3838.02,2012.09 4865.59,3237 1027.57,1224.91 3097.91,3089.06 5375.88,1691.64" /></g><g
         transform="scale(1.71887)"
         id="g22"><path
           id="path24"
           style="fill:#4e92e7;fill-opacity:1;fill-rule:nonzero;stroke:none"
           d="m 16300,193.732 h -3006.9 c -19.9,23.272 -142.7,163.133 -357.5,321.027 116.9,146.026 186.8,331.323 186.8,532.971 0,160.39 -44.3,310.49 -121.3,438.72 h 433.7 v 90.46 h -496.3 c -156.3,197.52 -398.2,324.29 -669.6,324.29 -109.5,0 -214.2,-20.66 -310.4,-58.24 l 65,84.07 v 237.42 c 0,42.59 -25.6,81.39 -65.3,96.93 -15.1,5.99 -29.9,13.32 -44.2,21.99 v 65.51 h -80.7 c -79.8,82.67 -145.3,206.7 -198.6,345.4 v 47.65 h -17.6 c -140.8,395.02 -188.3,881.04 -188.3,881.04 h -388.7 c 65,-176.68 119.6,-416.26 164.6,-668.93 v -14.43 h 2.5 c 34.8,-197.39 63.6,-402.12 86.8,-590.73 h -89.3 v -195.31 h 112.2 c 36,-324.92 53,-564.15 53,-564.15 l -15.1,-26.59 h -150.1 v -180.46 h -311.8 c -7.1,3.95 -13.8,8.2 -19.9,12.74 l -42.1,-0.18 33.7,802.86 -211.4,-53.99 -2,-756.08 c -1.6,-1.52 -2.9,-3.32 -4.1,-5.35 h -230.7 c -7.1,3.95 -13.8,8.2 -19.8,12.74 l -27.7,-0.12 67.8,728.5 -248.8,20.31 -2,-749.68 c -6.2,-1.11 -11.6,-5.41 -15.3,-11.75 h -99.1 c -768.44,41.18 -794.97,574.15 -671.29,927.41 123.63,353.31 276.47,437.73 276.47,437.73 0,0 -1884.91,-225.5 -2141.42,-295.19 h -102.27 v -54.23 c -97.97,-80.57 -157.49,-222.7 -190.77,-330.85 -22.4,-73.02 31.71,-147.08 108.09,-148.3 l 82.68,-1.22 v -75.63 h 476.94 c -202.05,-79.59 -366.41,-234.05 -458.91,-429.24 h -18.03 v -40.66 c -41.13,-100.07 -63.82,-209.62 -63.82,-324.46 0,-471.419 382.11,-853.532 853.47,-853.532 47.76,0 94.65,3.957 140.26,11.52 1.69,-5.295 3.32,-9.483 4.31,-11.986 h -609.82 c -259.77,201.878 -425.75,254.763 -528.38,254.763 -113.03,0 -149.34,-64.171 -149.34,-64.171 0,0 -62.77,200.189 -734.09,278.673 -71.38,8.319 -130.14,12.042 -178.2,12.042 -403.66,0 -49.51,-263.196 -49.51,-263.196 -12.5,0.116 -24.49,0.173 -36.18,0.173 -82.91,0 -145.45,-3.257 -191.29,-8.959 -58.06,86.335 -143.09,177.211 -262.22,228.93 -38.96,16.931 -76.25,24.144 -111.61,24.144 -213.33,0 -355.11,-264.128 -355.11,-264.128 -59.94,191.522 -173.56,237.423 -268.66,237.423 -87.46,0 -159.26,-38.804 -159.26,-38.804 -143.38,308.17 -284.09,398.462 -399.8,398.462 -163.91,0 -277.65,-181.284 -277.65,-181.284 -10.77,1.164 -21.06,1.689 -30.96,1.689 -213.51,0 -228.9,-255.053 -228.9,-255.053 L 3951.22,193.732 H 2859.94 v 720.825 h 441.8 v 85.231 480.552 h 441.8 v -279.02 h 201.52 v 759.57 h 697.59 v -395.26 h 193.77 v 3016.06 l 2294.27,21.93 V 3264.19 l 85.23,-1.11 h 108.56 v 1156.06 h 154.99 v 334.11 h 224.8 v 975.36 h 325.51 v -975.36 h 224.79 v -334.11 h 155.05 V 3367.63 h 185.99 v 2559.63 h 100.77 v 343.17 h 292.28 c 3.79,-122.96 40.96,-462.99 336.5,-462.99 0.06,0 0.06,0 0.12,0 0,0 2.15,-0.12 6.05,-0.12 12.69,0 44.04,1.45 80,14.11 11.28,2.8 45.73,13.38 81.91,40.6 l -85.69,-142.91 239.75,-210.89 c 0,0 13.55,24.43 33.45,59.86 v -1267 l 294.55,7.74 v 1040.46 h 837.1 l 37.6,-1955.83 125.1,7.8 v 660.14 h 271.3 v 519.3 h 162.8 v 348.83 h 635.6 V 4580.7 h 162.7 v -519.3 h 271.3 V 2842.75 l 232.6,7.74 v 1208.64 h 777.3 V 2922.05 l 501.6,6.04 -7.8,1420.13 h 751.8 V 3170.06 h 155.1 V 1309.82 h 124 V 999.788 h 124 v 403.052 h 565.8 V 999.788 h 155 V 1201.32 H 16300 V 193.732 M 6218.58,1866.06 v -351.63 h 271.46 v 351.63 h -271.46 m -775.7,0 v -351.63 h 271.48 v 351.63 h -271.48 m 8845.62,201.53 v -195.37 h 150.8 v 195.37 h -150.8 m -252.1,0 v -195.37 h 150.8 v 195.37 h -150.8 m -1278.2,-99.95 v -90.53 h 676.6 v 90.53 h -676.6 m -6198.29,499.05 v -351.63 h 271.46 v 351.63 h -271.46 m -699.88,0 v -351.63 h 271.46 v 351.63 h -271.46 m 6182.37,-117.81 v -195.31 h 150.8 v 195.31 h -150.8 m 2498.3,66.9 v -195.3 h 150.8 v 195.3 h -150.8 m -1782.5,-57.48 v -90.52 h 676.6 v 90.52 h -676.6 m 1782.5,405.67 v -195.3 h 150.8 v 195.3 h -150.8 m -252.2,0 v -195.3 h 150.8 v 195.3 h -150.8 M 7432.99,2712.2 v -90.53 h 832.58 v 90.53 h -832.58 m 5325.21,36.77 v -90.53 h 676.6 v 90.53 h -676.6 m -2711.1,20.65 v -90.47 h 676.6 v 90.47 h -676.6 m -3828.52,462.45 v -351.68 h 271.46 v 351.68 h -271.46 m -775.7,0 v -351.68 h 271.48 v 351.68 h -271.48 m -417.16,0 v -351.68 h 271.48 v 351.68 h -271.48 m 9010.68,-119.84 v -195.36 h 150.8 v 195.36 h -150.8 m -1994,22.69 v -195.31 h 150.8 v 195.31 h -150.8 m -279.2,0 v -195.31 h 150.8 v 195.31 h -150.8 m -1716.1,25.42 v -90.52 h 676.6 v 90.52 h -676.6 m -2614.11,71.56 v -90.52 h 832.58 v 90.52 h -832.58 m 1328.2,112.75 v -195.36 h 150.8 v 195.36 h -150.8 m 3997.01,-9.66 v -90.52 h 676.6 v 90.52 h -676.6 m 1782.5,125.43 v -195.36 h 150.8 v 195.36 h -150.8 m -504.3,0 v -195.36 h 150.8 v 195.36 h -150.8 m -2552.5,67.55 v -195.36 h 150.8 v 195.36 h -150.8 m -6041.02,274.07 v -351.68 h 271.48 v 351.68 h -271.48 m 9097.82,6.58 v -195.36 h 150.8 v 195.36 h -150.8 m -1782.5,-82.96 v -90.53 h 676.6 v 90.53 h -676.6 m -2711.1,20.65 v -90.47 h 676.6 v 90.47 h -676.6 m -2614.11,5.29 v -90.46 h 832.58 v 90.46 h -832.58 m 4609.41,169.36 v -195.3 h 150.8 v 195.3 h -150.8 m -837.7,0 v -195.3 h 150.8 v 195.3 h -150.8 m 1553.5,0 v -90.47 h 676.6 v 90.47 h -676.6 m -3369.56,113.21 v -195.36 h 150.79 v 195.36 h -150.79 m -1955.65,-22.69 v -90.52 h 832.58 v 90.52 h -832.58 m 7107.71,145.33 v -195.3 h 150.8 v 195.3 h -150.8 m -504.3,0 v -195.3 h 150.8 v 195.3 h -150.8 m -7476.49,206.3 v -351.63 h 271.46 v 351.63 h -271.46 m -699.88,0 v -351.63 h 271.46 v 351.63 h -271.46 m -417.15,0 v -351.63 h 271.48 v 351.63 h -271.48 m -417.16,0 v -351.63 h 271.48 v 351.63 h -271.48 m 2407.27,-91.75 v -90.52 h 832.58 v 90.52 h -832.58 m 1641.89,107.58 v -195.37 h 150.86 v 195.37 h -150.86 m -313.69,0 v -195.37 h 150.8 v 195.37 h -150.8 m 1285.91,-46.6 v -90.53 h 676.6 v 90.53 h -676.6 m 1889.3,119.26 v -195.36 h 150.8 v 195.36 h -150.8 m -324,0 v -195.36 h 150.8 v 195.36 h -150.8 m -1565.3,76.1 v -90.53 h 676.6 v 90.53 h -676.6 m -658.46,196 v -195.36 h 150.79 v 195.36 h -150.79 m -627.45,0 v -195.36 h 150.8 v 195.36 h -150.8 m 1285.91,194.66 v -90.52 h 676.6 v 90.52 h -676.6 m -658.46,150.1 V 4873.1 h 150.79 v 195.36 h -150.79 m -313.76,0 V 4873.1 h 150.86 v 195.36 h -150.86 m 972.22,45.2 v -90.46 h 676.6 v 90.46 h -676.6 m -658.46,299.56 v -195.36 h 150.79 v 195.36 h -150.79 m -627.45,0 v -195.36 h 150.8 v 195.36 h -150.8 m 313.69,344.71 v -195.3 h 150.86 v 195.3 h -150.86 m -313.69,0 v -195.3 h 150.8 v 195.3 h -150.8 M 11412.7,193.732 H 10282 l 720.5,5.237 c 0,0 -394.7,227.3 -581.7,227.3 -40.8,0 -71.7,-10.82 -86.5,-37.175 0,0 -269.8,55.792 -450.33,55.792 -172.74,0 -263.55,-51.081 42.35,-251.154 h -1063.9 c -66.32,57.888 -122.87,104.255 -170.81,140.734 231.6,152.658 384.5,415.1 384.5,713.264 0,60.27 -6.23,119.03 -18.1,175.81 121.3,-95.24 237.25,-103.61 274.14,-103.61 7.85,0 12.1,0.4 12.1,0.4 h 2055.05 l 22,28.39 c -3.9,-33.1 -5.9,-66.84 -5.9,-100.99 0,-203.102 71,-389.679 189.4,-536.171 -94.9,-54.512 12.4,-192.685 12.4,-192.685 -56.8,11.229 -100.9,15.999 -134.9,15.999 -170.4,0 -86.3,-119.381 -69.6,-141.141 m -5317.46,0 h -101.69 c -2.62,8.086 -7.56,22.631 -15.13,41.714 47.18,-18.326 91.34,-33.335 116.82,-41.714 M 8785.62,1689.2 c -140.21,123.16 -321.2,201.06 -520.05,210.95 v 4.77 l 478.05,-7.33 c 11.05,-76.8 25.25,-146.03 42,-208.39" /></g><g
         transform="scale(1.44309)"
         id="g26"><path
           id="path28"
           style="fill:#ffffff;fill-opacity:1;fill-rule:nonzero;stroke:none"
           d="m 14574.7,12687.1 c -297.4,0 -550.5,-188.7 -646.5,-452.8 -67.9,37.8 -146.1,59.5 -229.4,59.5 -260.5,0 -471.8,-211.3 -471.8,-471.8 0,-15.5 0.8,-30.8 2.3,-45.8 H 16300 c -38.7,168.3 -189.2,293.9 -369.3,293.9 -33.1,0 -65.1,-4.3 -95.7,-12.2 -88.9,190 -281.7,321.7 -505.4,321.7 -57.7,0 -113.5,-8.8 -166,-25.2 -120.3,199.4 -339.1,332.7 -588.9,332.7" /></g><path
         id="path30"
         style="fill:#ffffff;fill-opacity:1;fill-rule:nonzero;stroke:none"
         d="m 7178.36,10969.3 c 29.51,128.5 144.46,224.3 281.88,224.3 25.23,0 49.7,-3.2 73.04,-9.3 67.81,145 215,245.5 385.69,245.5 44.13,0 86.68,-6.7 126.71,-19.1 91.88,152.1 258.83,253.8 449.53,253.8 226.9,0 420.16,-144 493.39,-345.6 51.83,28.9 111.5,45.5 175.06,45.5 198.88,0 360.1,-161.3 360.1,-360.1 0,-11.8 -0.6,-23.5 -1.71,-35 H 7178.36" /><g
         transform="scale(1.10843)"
         id="g32"><path
           id="path34"
           style="fill:#ffffff;fill-opacity:1;fill-rule:nonzero;stroke:none"
           d="m 13736.4,13032.5 c 32.2,140.4 157.9,245.2 308.1,245.2 27.6,0 54.3,-3.5 79.8,-10.2 74.1,158.6 235,268.4 421.6,268.4 48.2,0 94.7,-7.3 138.5,-21 100.4,166.3 282.9,277.6 491.3,277.6 248,0 459.3,-157.5 539.3,-377.8 56.7,31.6 121.9,49.6 191.4,49.6 217.4,0 393.6,-176.2 393.6,-393.6 0,-12.9 -0.6,-25.6 -1.9,-38.2 h -2561.7" /></g><g
         transform="scale(1.5987)"
         id="g36"><path
           id="path38"
           style="fill:#ffffff;fill-opacity:1;fill-rule:nonzero;stroke:none"
           d="m 14522.6,7987.62 c 22.3,97.35 109.4,169.99 213.6,169.99 19.1,0 37.6,-2.47 55.3,-7.07 51.4,109.92 163,186.09 292.3,186.09 33.4,0 65.7,-5.09 96,-14.54 69.7,115.31 196.2,192.41 340.7,192.41 172,0 318.4,-109.13 373.9,-261.92 39.3,21.9 84.5,34.42 132.7,34.42 150.7,0 272.9,-122.17 272.9,-272.9 0,-8.94 -0.4,-17.77 -1.3,-26.48 h -1776.1" /></g><path
         id="path40"
         style="fill:#ffffff;fill-opacity:1;fill-rule:nonzero;stroke:none"
         d="m 4339.71,9044.2 c 35.76,155.6 175.04,271.7 341.54,271.7 30.56,0 60.21,-3.9 88.47,-11.3 82.17,175.8 260.5,297.5 467.3,297.5 53.46,0 105.03,-8.1 153.52,-23.2 111.33,184.3 313.58,307.6 544.64,307.6 274.91,0 509.05,-174.5 597.77,-418.7 62.8,35 135.1,55 212.1,55 240.97,0 436.3,-195.3 436.3,-436.3 0,-14.3 -0.73,-28.4 -2.08,-42.3 H 4339.71" /><path
         id="path42"
         style="fill:#ffffff;fill-opacity:1;fill-rule:nonzero;stroke:none"
         d="m 9569.43,10491.9 -96.95,78.3 c 2.45,3.1 61.45,75.9 175.05,201.1 l 92.33,-83.7 c -110.91,-122.3 -169.85,-195 -170.43,-195.7" /><g
         transform="scale(1.46301)"
         id="g44"><path
           id="path46"
           style="fill:#ffffff;fill-opacity:1;fill-rule:nonzero;stroke:none"
           d="m 11784,9622.3 c -120.2,7.13 -242.3,10.16 -362.3,9.01 l -0.7,85.21 c 121.8,1.12 246,-1.93 368.1,-9.16 l -5.1,-85.06 m -1084.5,-47.21 -12.4,84.3 c 121.4,17.76 244.5,31.56 366,41.03 l 6.6,-84.94 c -119.5,-9.33 -240.7,-22.92 -360.2,-40.39 m 1803.3,-44.6 c -118.6,23.31 -239,42.83 -357.9,58.04 l 10.8,84.51 c 120.8,-15.45 243.1,-35.28 363.5,-58.95 l -16.4,-83.6 m -2512.25,-106.9 -23.03,82.01 c 118.28,33.31 238.58,63.09 357.28,88.51 l 17.8,-83.31 c -116.9,-25.05 -235.4,-54.39 -352.05,-87.21 m 3213.15,-78.26 c -115.2,38.26 -232.1,73.15 -347.6,103.7 l 21.9,82.37 c 117.1,-30.99 235.7,-66.4 352.6,-105.21 l -26.9,-80.86 m -3898.45,-160.1 -32.6,78.69 c 113.74,47.2 229.39,91.32 343.81,131.17 l 28.02,-80.46 c -112.84,-39.3 -226.99,-82.84 -339.23,-129.4 m 4572.45,-108.48 c -110.4,51.35 -222.4,99.8 -333.2,143.98 l 31.6,79.13 c 112.2,-44.78 225.8,-93.85 337.6,-145.86 l -36,-77.25 m -5226.99,-206.08 -40.87,74.74 c 108,59.12 218.04,115.69 327.06,168.15 l 36.91,-76.78 c -107.65,-51.82 -216.4,-107.7 -323.1,-166.11 M 14519.4,8736.8 c -104.8,62.35 -211.3,122.27 -316.6,178.11 l 39.9,75.27 c 106.5,-56.49 214.3,-117.1 320.3,-180.15 l -43.6,-73.23 m -6488.23,-246.22 -47.98,70.4 c 101.5,69.17 205.33,136.41 308.61,199.82 l 44.56,-72.6 C 8234.24,8625.49 8131.58,8559 8031.17,8490.58 m 7095.73,-153 c -99.2,71.39 -199.9,140.8 -299.4,206.31 l 46.8,71.17 c 100.6,-66.16 202.3,-136.26 302.3,-208.35 l -49.7,-69.13 m -7677.41,-283.59 -54.13,65.79 c 94.46,77.74 191.66,154.19 288.92,227.22 l 51.2,-68.13 C 7639.17,8206.6 7543,8130.94 7449.49,8053.99 m 8250.61,-164.14 c -93.4,78.72 -188.5,155.87 -282.4,229.32 l 52.4,67.13 c 94.8,-74.09 190.7,-151.89 284.9,-231.27 l -54.9,-65.18 M 6908.96,7567 l -59.87,60.61 c 85.71,84.68 175.8,169.57 267.66,252.3 l 57.01,-63.31 c -90.91,-81.85 -179.97,-165.84 -264.8,-249.6 M 16241,7402.67 c -88.2,84.69 -177.8,168.14 -266.5,248.03 l 57.1,63.28 c 89.2,-80.48 179.5,-164.54 268.4,-249.86 l -59,-61.45" /></g><g
         transform="scale(1.49774)"
         id="g48"><path
           id="path50"
           style="fill:#ffffff;fill-opacity:1;fill-rule:nonzero;stroke:none"
           d="m 16239.8,6854.59 c -40.2,42.08 -81.1,84.39 -121.8,125.78 l 59.3,58.32 c 41,-41.65 82.2,-84.24 122.7,-126.58 l -60.2,-57.52" /></g><g
         transform="scale(1.46354)"
         id="g52"><path
           id="path54"
           style="fill:#ffffff;fill-opacity:1;fill-rule:nonzero;stroke:none"
           d="m 16300,12805.5 c -0.1,0.1 -0.3,0.2 -0.5,0.3 0.2,-0.1 0.4,-0.2 0.5,-0.3 m -3.6,2.3 c -0.2,0.1 -0.4,0.3 -0.6,0.4 0.2,-0.1 0.4,-0.2 0.6,-0.4 m -10.1,6.5 c -0.4,0.2 -0.7,0.4 -1,0.6 0.3,-0.2 0.7,-0.4 1,-0.6 m -3.5,2.2 c -0.6,0.4 -1,0.6 -1.5,1 0.5,-0.4 1,-0.7 1.5,-1 m -3.9,2.5 c -0.6,0.4 -1.2,0.7 -1.7,1.1 0.5,-0.4 1.1,-0.7 1.7,-1.1 m -4,2.5 c -0.7,0.5 -1.7,1.1 -2.4,1.6 0.8,-0.6 1.6,-1.1 2.4,-1.6 m -5.2,3.3 c -0.9,0.6 -1.7,1 -2.6,1.6 0.9,-0.5 1.7,-1 2.6,-1.6 m -4.3,2.8 c -0.8,0.4 -1.7,1 -2.4,1.5 0.7,-0.5 1.6,-1.1 2.4,-1.5 m -4.2,2.6 c -0.8,0.5 -1.8,1.1 -2.5,1.6 0.8,-0.6 1.7,-1.1 2.5,-1.6 m -4.1,2.6 c -1.3,0.8 -2.7,1.6 -4,2.5 1.3,-0.9 2.7,-1.7 4,-2.5 m -4.5,2.8 c -1.1,0.7 -2.5,1.5 -3.6,2.3 1.2,-0.8 2.4,-1.6 3.6,-2.3 m -5.1,3.2 c -0.9,0.5 -1.8,1.1 -2.7,1.7 0.9,-0.6 1.8,-1.2 2.7,-1.7 m -4.2,2.6 c -1,0.6 -2,1.3 -3,1.8 1.1,-0.6 2,-1.2 3,-1.8 m -4.2,2.6 c -2.6,1.7 -5.7,3.6 -8.3,5.2 2.8,-1.7 5.6,-3.5 8.3,-5.2 m -9.5,6 c -1.1,0.7 -1.9,1.1 -3,1.8 1,-0.6 2,-1.2 3,-1.8 m -4.4,2.7 c -1.1,0.7 -1.9,1.2 -3,1.9 1,-0.7 2,-1.3 3,-1.9 m -4.3,2.6 c -2.6,1.6 -5.6,3.6 -8.3,5.2 2.8,-1.7 5.5,-3.5 8.3,-5.2 m -9.5,5.9 c -1.1,0.7 -1.9,1.2 -3.1,1.9 1,-0.6 2.1,-1.2 3.1,-1.9 m -4.5,2.8 c -0.9,0.5 -2,1.2 -3,1.8 1.1,-0.6 2,-1.2 3,-1.8 m -4.2,2.6 c -1.3,0.8 -2.9,1.7 -4.2,2.6 1.4,-0.9 2.8,-1.8 4.2,-2.6 m -6.6,4 c -0.5,0.4 -1.1,0.7 -1.6,1 0.5,-0.3 1.1,-0.7 1.6,-1 m -2.4,1.5 c -0.6,0.4 -0.9,0.6 -1.5,0.9 0.5,-0.3 1,-0.6 1.5,-0.9 m -2.5,1.6 c -0.5,0.2 -0.9,0.5 -1.3,0.7 0.4,-0.2 0.8,-0.5 1.3,-0.7 m -2.9,1.7 c -0.2,0.1 -0.5,0.3 -0.7,0.4 0.2,-0.1 0.5,-0.3 0.7,-0.4" /></g><g
         transform="scale(1.67571)"
         id="g56"><path
           id="path58"
           style="fill:#daf5ff;fill-opacity:1;fill-rule:nonzero;stroke:none"
           d="m 14482.2,7939.62 c -28.9,9.02 -59.7,13.87 -91.6,13.87 -19.5,0 -38.5,-1.81 -57,-5.28 -171.7,28.65 -341.9,70.86 -510.2,115.01 -430.4,112.87 -859.7,240.28 -1258.7,437.21 -230.7,113.87 -452.4,251.4 -699.5,322.94 -363.7,105.28 -751.8,59.57 -1129.1,91.69 -153.2,13.03 -316.8,48.77 -453.4,118.93 -29,24.46 -61.7,44.67 -97.2,59.63 -81.1,59.38 -145.6,135.7 -182.2,232.52 -82.26,218.04 15.9,473.04 185.9,632.42 170.1,159.34 398.5,239.94 624.5,297.24 177.9,45.1 368.2,83.1 503.9,206.8 112.3,102.2 174.4,253 295.1,345.2 115,87.9 260.8,107.8 408.8,107.8 64,0 128.4,-3.8 190.9,-7.3 56,-3.2 112.4,-5.8 169,-7.2 -179.5,-53.7 -323.2,-190.3 -386.7,-365.2 -58.5,32.6 -125.8,51.2 -197.6,51.2 -224.3,0 -406.3,-181.9 -406.3,-406.3 0,-13.3 0.7,-26.4 2,-39.4 H 12891 c -62.1,-2.2 -124.1,-5 -186.1,-7.9 -99.3,-4.5 -217.5,-20.9 -260.8,-110.4 -20.5,-42.57 -18,-92.97 -6.6,-138.91 60.4,-244.14 335,-371.47 585.3,-396.9 250.2,-25.42 508.2,15.42 750.9,-50.27 333.1,-90.13 582.8,-364.45 894.5,-512.5 169.5,-80.51 357.1,-121.49 544.7,-121.48 119.2,0 238.2,16.53 352.6,49.94 150.3,43.95 291.4,115.41 440.7,162.79 125.5,-321.57 216.8,-642.62 293.8,-951.95 -241.2,-94.11 -512,-63.02 -771.4,-76.9 -133.4,-7.13 -265.8,-26.61 -398.4,-43.98 -66.8,108.17 -186.5,180.25 -323,180.25 -137.9,0 -258.6,-73.56 -325,-183.57 m -279.4,2077.48 c -244.3,0 -492.1,74.4 -738,106.6 -66.7,8.8 -133.6,14.4 -200.6,17.7 h 773 v 0 c -33.3,144.9 -163,253.1 -318.1,253.1 -28.4,0 -56,-3.7 -82.3,-10.5 -76.6,163.6 -242.7,277 -435.2,277 -49.8,0 -97.9,-7.6 -143,-21.6 -79.2,131 -207.6,228.9 -359.7,267.9 185.2,14 367.1,49.3 537.3,122.7 220.7,95 410.5,249.2 613.7,377.4 95.7,-49.3 191.7,-103.1 288.1,-161.8 0.2,-0.1 0.4,-0.3 0.6,-0.4 0.5,-0.3 0.9,-0.6 1.4,-0.9 0.3,-0.2 0.7,-0.4 1.1,-0.6 0.3,-0.2 0.6,-0.4 0.9,-0.6 0.5,-0.3 0.8,-0.5 1.3,-0.8 0.2,-0.1 0.5,-0.3 0.7,-0.4 0.5,-0.3 1,-0.6 1.5,-0.9 0.7,-0.4 1.3,-0.9 2,-1.3 v 0 c 1.2,-0.7 2.5,-1.5 3.7,-2.2 0.3,-0.3 0.8,-0.5 1.1,-0.7 0.8,-0.5 1.8,-1.1 2.6,-1.6 0.4,-0.3 0.8,-0.5 1.2,-0.8 1,-0.6 1.7,-1 2.7,-1.6 0.3,-0.2 0.7,-0.4 1,-0.6 2.4,-1.5 5,-3.1 7.3,-4.6 0.4,-0.2 0.8,-0.4 1.1,-0.6 1,-0.6 1.7,-1 2.6,-1.7 0.4,-0.2 0.9,-0.5 1.3,-0.7 0.9,-0.6 1.6,-1 2.5,-1.6 0.4,-0.3 0.8,-0.5 1.1,-0.7 2.3,-1.4 5,-3.1 7.3,-4.5 0.3,-0.3 0.8,-0.5 1.1,-0.7 0.8,-0.5 1.7,-1.1 2.5,-1.6 0.4,-0.3 0.9,-0.6 1.3,-0.8 0.9,-0.5 1.7,-1 2.4,-1.5 0.5,-0.3 0.9,-0.6 1.3,-0.8 1,-0.6 2.2,-1.4 3.1,-2 0.2,-0.1 0.3,-0.2 0.5,-0.3 1.2,-0.7 2.3,-1.4 3.5,-2.2 0.5,-0.3 0.9,-0.5 1.4,-0.9 0.6,-0.4 1.5,-0.9 2.2,-1.3 0.5,-0.4 1,-0.7 1.5,-1 0.7,-0.4 1.4,-0.9 2.1,-1.3 0.5,-0.3 1,-0.7 1.6,-1 0.7,-0.5 1.4,-0.9 2.2,-1.4 0.8,-0.5 1.6,-1 2.4,-1.5 0.7,-0.5 1.5,-1 2.2,-1.4 0.6,-0.4 1.3,-0.8 1.9,-1.2 0.5,-0.3 1,-0.7 1.5,-1 0.7,-0.4 1.4,-0.9 2.1,-1.3 0.5,-0.3 0.8,-0.6 1.3,-0.9 0.8,-0.5 1.5,-0.9 2.2,-1.4 0.3,-0.2 0.6,-0.3 0.9,-0.5 2.7,-1.8 5.5,-3.5 8.3,-5.3 0.1,-0.1 0.3,-0.2 0.5,-0.4 0.9,-0.5 1.8,-1.1 2.7,-1.7 0.2,-0.1 0.3,-0.2 0.5,-0.3 502,-321.8 877.5,-684.4 1164.9,-1066.2 -134,24.4 -269.7,42.9 -404.1,42.9 -98,0 -195.3,-9.8 -290.7,-34.4 -95.6,-24.7 -187.2,-63.7 -283.3,-85.8 -73,-16.8 -146.4,-23.5 -220.2,-23.5" /></g><g
         transform="scale(1.44309)"
         id="g60"><path
           id="path62"
           style="fill:#ffffff;fill-opacity:1;fill-rule:nonzero;stroke:none"
           d="m 16300,11776.2 h -897.7 c -66.1,3.2 -132.4,4.6 -198.8,4.6 -78.1,0 -156.3,-1.9 -234.5,-4.6 h -1739.7 c -1.5,15 -2.3,30.3 -2.3,45.8 0,260.5 211.3,471.8 471.8,471.8 83.3,0 161.5,-21.7 229.4,-59.5 73.8,203.1 240.7,361.7 449,424 39.5,-1 79,-1.6 118.5,-1.6 83.6,0 167.3,2.6 250.3,8.9 176.6,-45.3 325.7,-159 417.6,-311.2 52.5,16.4 108.3,25.2 166,25.2 223.7,0 416.5,-131.7 505.4,-321.7 30.6,7.9 62.6,12.2 95.7,12.2 180.1,0 330.6,-125.6 369.3,-293.9" /></g><g
         transform="scale(1.05711)"
         id="g64"><path
           id="path66"
           style="fill:#ffffff;fill-opacity:1;fill-rule:nonzero;stroke:none"
           d="m 16300,14320.5 c -54.4,28 -106,59.4 -154.1,94.5 56.3,-23.7 108.1,-55.7 154.1,-94.5" /></g><g
         transform="scale(1.55545)"
         id="g68"><path
           id="path70"
           style="fill:#ffffff;fill-opacity:1;fill-rule:nonzero;stroke:none"
           d="m 15882,8523.13 c -147.6,0 -294.5,15.25 -440.3,39.59 20,3.73 40.5,5.69 61.5,5.69 34.3,0 67.5,-5.24 98.7,-14.95 71.5,118.52 201.6,197.77 350.1,197.77 147.1,0 276,-77.66 348,-194.19 -118.9,-15.58 -237.8,-29.58 -357.6,-33.04 -20.1,-0.58 -40.3,-0.87 -60.4,-0.87" /></g><path
         id="path72"
         style="fill:#ffffff;fill-opacity:1;fill-rule:nonzero;stroke:none"
         d="m 12759,15270.5 c 0,0 0,0 0,0 33.2,34.2 65.6,69.1 97.3,104.9 -31.7,-35.9 -64.1,-70.7 -97.3,-104.9 m 97.6,105.2 c 0.7,0.8 1.4,1.6 2.1,2.3 -0.6,-0.7 -1.4,-1.6 -2.1,-2.3 m 2.6,2.9 c 0.5,0.6 1,1.2 1.6,1.8 -0.6,-0.6 -1.1,-1.3 -1.6,-1.8 m 2.3,2.6 c 0.4,0.4 0.8,0.9 1.2,1.3 -0.4,-0.4 -0.8,-0.9 -1.2,-1.3 m 3,3.5 c 0.2,0.1 0.3,0.3 0.5,0.5 -0.1,-0.2 -0.3,-0.4 -0.5,-0.5 m 1.9,2 c 0,0.1 0.1,0.2 0.1,0.2 l -0.1,-0.2 m 36.6,42.6 c 0.2,0.3 0.4,0.5 0.6,0.7 -0.1,-0.1 -0.4,-0.5 -0.6,-0.7 m 2.5,3 c 0.3,0.4 0.7,0.8 1,1.2 -0.4,-0.5 -0.6,-0.8 -1,-1.2 m 1.8,2.1 c 0.7,0.8 1.3,1.5 1.9,2.3 -0.6,-0.8 -1.2,-1.5 -1.9,-2.3 m 4.7,5.7 c 0.3,0.3 0.6,0.6 0.9,1 -0.4,-0.5 -0.5,-0.6 -0.9,-1 m 3.2,3.7 c 0.2,0.2 0.4,0.5 0.6,0.7 -0.2,-0.2 -0.5,-0.5 -0.6,-0.7 m 3.5,4.1 c 0.1,0.2 0.2,0.4 0.4,0.5 -0.1,-0.1 -0.3,-0.3 -0.4,-0.5 m 3.2,3.9 c 0.1,0.1 0.1,0.2 0.2,0.2 l -0.2,-0.2 m 6.2,7.4 c 0.2,0.2 0.4,0.5 0.6,0.7 -0.2,-0.3 -0.3,-0.4 -0.6,-0.7 m 16.3,19.3 c 0.1,0.2 0.3,0.3 0.4,0.5 -0.1,-0.2 -0.3,-0.3 -0.4,-0.5" /><g
         transform="scale(1.00993)"
         id="g74"><path
           id="path76"
           style="fill:#daf5ff;fill-opacity:1;fill-rule:nonzero;stroke:none"
           d="m 6109.58,10885.4 c -121.18,0 -242.05,7.2 -361.94,26.1 -344.29,54.3 -665.73,202.1 -982.07,348.4 -30.83,14.3 -61.66,28.5 -92.47,42.8 444.95,443.4 930.05,793.8 1436.6,1080.2 484.17,-61.7 972.22,-92.8 1460.28,-92.8 227.94,0 455.9,6.8 683.46,20.4 156.6,9.4 314.91,22.3 463.68,72.2 113.68,38.1 219.19,96.8 329.89,142.8 504.85,209.8 1075.19,141.9 1620.49,182 163.8,12 332.6,36 472.4,122.2 313.6,193.1 380.1,620.1 617.2,901.8 268.6,319 715.5,410.9 1070.1,630.4 129.4,80.1 259.2,202.7 250.7,354.7 -8.6,156.1 -157.4,263.5 -296.7,334.4 -48.5,24.7 -97.8,47.6 -147.7,69.3 32.9,33.8 65,68.4 96.3,103.8 0.1,0.1 0.2,0.2 0.3,0.3 0.7,0.8 1.5,1.7 2.1,2.4 0.2,0.1 0.3,0.3 0.5,0.5 0.5,0.6 1,1.2 1.6,1.8 0.2,0.2 0.4,0.5 0.7,0.8 0.4,0.4 0.8,0.9 1.2,1.3 0.6,0.7 1.2,1.4 1.8,2.1 0.2,0.2 0.4,0.4 0.5,0.5 0.4,0.5 0.8,1.1 1.3,1.6 l 0.1,0.2 c 12.2,13.8 24.3,27.8 36.2,42 0.2,0.1 0.5,0.5 0.6,0.6 0.6,0.8 1.3,1.5 1.9,2.2 0.3,0.5 0.5,0.8 0.9,1.2 0.3,0.4 0.6,0.7 0.8,1 0.7,0.8 1.3,1.5 1.9,2.2 v 0 c 1,1.2 1.9,2.3 2.8,3.4 0.4,0.4 0.5,0.5 0.9,1 0.8,0.9 1.5,1.8 2.3,2.7 0.1,0.2 0.4,0.5 0.6,0.7 0.8,1.1 1.8,2.2 2.8,3.4 0.1,0.1 0.3,0.3 0.4,0.5 0.9,1.1 1.9,2.2 2.8,3.3 l 0.2,0.2 c 2,2.4 4,4.7 5.9,7.1 0.3,0.3 0.4,0.5 0.6,0.8 5.2,6.1 10.4,12.2 15.6,18.4 0.1,0.1 0.3,0.3 0.4,0.4 261.5,310 556.1,639.7 880.4,973.3 127,-69.5 254.3,-139.1 388,-191.8 199.1,-78.5 413.2,-118.7 627.1,-118.7 67.9,0 135.7,4 202.9,12.2 38.8,4.7 78.9,10.4 118,10.4 38.6,0 76,-5.6 110.1,-23.3 44,-22.9 76,-63.4 103.7,-104.5 285.8,-424.2 207.2,-1054.4 -174.1,-1395.3 -257.2,-229.9 -616.7,-328.8 -852,-581.1 -227.2,-243.7 -300.9,-588.6 -446.8,-888.2 -276,-566.6 -820.8,-970.7 -1414.5,-1182.1 -499.6,-177.9 -1033.5,-231.8 -1565.5,-231.8 -100.2,0 -200.4,1.9 -300.3,5.3 -238.6,8 -479.1,23.8 -718.05,23.8 -235.92,0 -470.35,-15.4 -699.91,-68.9 -123.75,-28.8 -244.11,-68.3 -362.89,-112.9 -85.1,60.9 -189.37,96.7 -302,96.7 -188.83,0 -354.14,-100.7 -445.11,-251.4 -39.64,12.3 -81.77,19 -125.47,19 -169.01,0 -314.75,-99.5 -381.89,-243.1 -23.11,6 -47.34,9.2 -72.32,9.2 -91.27,0 -172.52,-42.7 -224.96,-109.2 -150.91,-19.6 -302.61,-34.7 -453.87,-49.7 -198.75,-19.6 -399.06,-39.2 -598.45,-39.2 m 5022.02,1206.2 c -140.9,-105.7 -281.7,-216.5 -418.5,-329.1 l 78.4,-95.3 c 135.4,111.4 274.8,221.1 414.3,325.7 l -74.2,98.7 m 880.1,599.5 c -149.6,-91.9 -300,-189.3 -447.1,-289.5 l 69.5,-102 c 145.5,99.2 294.2,195.5 442.1,286.3 l -64.5,105.2 m 934.5,511 c -157.9,-76 -317.4,-157.9 -473.8,-243.6 l 59.2,-108.3 c 154.6,84.7 312.1,165.6 468.1,240.7 l -53.5,111.2 m 984.4,407.8 c -165.7,-57.7 -333.3,-121.6 -498,-190 l 47.2,-114 c 162.6,67.5 327.9,130.5 491.4,187.5 l -40.6,116.5" /></g><path
         id="path78"
         style="fill:#ffffff;fill-opacity:1;fill-rule:nonzero;stroke:none"
         d="m 7233.05,11083.3 c 52.96,67.2 135.02,110.3 227.19,110.3 25.23,0 49.7,-3.2 73.04,-9.3 67.81,145 215,245.5 385.69,245.5 44.13,0 86.68,-6.7 126.71,-19.1 91.88,152.1 258.83,253.8 449.53,253.8 113.75,0 219.06,-36.2 305.01,-97.7 -287.18,-107.9 -565.11,-245.7 -858.38,-337.3 -230.75,-72.1 -468.75,-114.9 -708.79,-146.2" /><path
         id="path80"
         style="fill:#ffffff;fill-opacity:1;fill-rule:nonzero;stroke:none"
         d="m 10898.7,11783.1 -79.2,96.2 c 138.2,113.8 280.4,225.6 422.7,332.5 l 74.9,-99.7 c -140.9,-105.7 -281.6,-216.4 -418.4,-329 m 851,638.7 -70.2,103 c 148.5,101.2 300.4,199.6 451.5,292.4 l 65.2,-106.3 c -149.4,-91.7 -299.6,-189 -446.5,-289.1 m 906.4,556.1 -59.8,109.3 c 158,86.5 319,169.3 478.5,246.1 l 54,-112.4 c -157.5,-75.8 -316.6,-157.5 -472.7,-243 m 957.6,460.2 -47.7,115.1 c 166.4,69.1 335.6,133.6 503,191.9 l 41,-117.7 c -165.1,-57.5 -332.1,-121.2 -496.3,-189.3" /><g
         transform="scale(1.13083)"
         id="g82"><path
           id="path84"
           style="fill:#4a8fe6;fill-opacity:1;fill-rule:nonzero;stroke:none"
           d="m 16300,7635.25 h -1028.4 v 137.51 H 16300 v -137.51" /></g><path
         id="path86"
         style="fill:#407ede;fill-opacity:1;fill-rule:nonzero;stroke:none"
         d="m 8638.53,6895.2 h 466.641 v 604.402 H 8638.53 Z" /><path
         id="path88"
         style="fill:#407ede;fill-opacity:1;fill-rule:nonzero;stroke:none"
         d="m 8638.53,4951 h 466.641 v 604.5 H 8638.53 Z" /><path
         id="path90"
         style="fill:#407ede;fill-opacity:1;fill-rule:nonzero;stroke:none"
         d="m 9355.57,6895.2 h 466.641 v 604.402 H 9355.57 Z" /><path
         id="path92"
         style="fill:#407ede;fill-opacity:1;fill-rule:nonzero;stroke:none"
         d="m 10072.6,6895.2 h 466.598 v 604.402 H 10072.6 Z" /><path
         id="path94"
         style="fill:#407ede;fill-opacity:1;fill-rule:nonzero;stroke:none"
         d="m 10072.6,3635.5 h 466.598 v 604.402 H 10072.6 Z" /><path
         id="path96"
         style="fill:#407ede;fill-opacity:1;fill-rule:nonzero;stroke:none"
         d="m 9355.57,5930.7 h 466.641 v 604.5 H 9355.57 Z" /><path
         id="path98"
         style="fill:#407ede;fill-opacity:1;fill-rule:nonzero;stroke:none"
         d="m 9355.57,2603.1 h 466.641 v 604.398 H 9355.57 Z" /><path
         id="path100"
         style="fill:#407ede;fill-opacity:1;fill-rule:nonzero;stroke:none"
         d="m 9355.57,4951 h 466.641 v 604.5 H 9355.57 Z" /><path
         id="path102"
         style="fill:#407ede;fill-opacity:1;fill-rule:nonzero;stroke:none"
         d="m 10688.9,4951 h 466.598 v 604.5 H 10688.9 Z" /><path
         id="path104"
         style="fill:#407ede;fill-opacity:1;fill-rule:nonzero;stroke:none"
         d="m 10688.9,2603.1 h 466.598 v 604.398 H 10688.9 Z" /><path
         id="path106"
         style="fill:#407ede;fill-opacity:1;fill-rule:nonzero;stroke:none"
         d="m 11275.6,6895.2 h 466.598 v 604.402 H 11275.6 Z" /><path
         id="path108"
         style="fill:#407ede;fill-opacity:1;fill-rule:nonzero;stroke:none"
         d="m 15059.3,9561.4 h 259.199 v 335.699 H 15059.3 Z" /><path
         id="path110"
         style="fill:#407ede;fill-opacity:1;fill-rule:nonzero;stroke:none"
         d="m 15598.5,9561.4 h 259.301 v 335.699 H 15598.5 Z" /><path
         id="path112"
         style="fill:#407ede;fill-opacity:1;fill-rule:nonzero;stroke:none"
         d="m 15059.3,8968.8 h 259.199 v 335.801 H 15059.3 Z" /><g
         transform="scale(1.00595)"
         id="g114"><path
           id="path116"
           style="fill:#407ede;fill-opacity:1;fill-rule:nonzero;stroke:none"
           d="m 16300,8915.74 h -257.7 v 333.82 h 257.7 v -333.82" /></g><path
         id="path118"
         style="fill:#407ede;fill-opacity:1;fill-rule:nonzero;stroke:none"
         d="m 15598.5,8376.2 h 259.301 v 335.801 H 15598.5 Z" /><g
         transform="scale(1.00595)"
         id="g120"><path
           id="path122"
           style="fill:#407ede;fill-opacity:1;fill-rule:nonzero;stroke:none"
           d="m 16300,8326.65 h -257.7 v 333.81 h 257.7 v -333.81" /></g><path
         id="path124"
         style="fill:#407ede;fill-opacity:1;fill-rule:nonzero;stroke:none"
         d="m 15059.3,7783.6 h 259.199 v 335.797 H 15059.3 Z" /><g
         transform="scale(1.00595)"
         id="g126"><path
           id="path128"
           style="fill:#407ede;fill-opacity:1;fill-rule:nonzero;stroke:none"
           d="m 16300,7737.56 h -257.7 v 333.81 h 257.7 v -333.81" /></g><path
         id="path130"
         style="fill:#407ede;fill-opacity:1;fill-rule:nonzero;stroke:none"
         d="m 15059.3,7191 h 259.199 v 335.801 H 15059.3 Z" /><path
         id="path132"
         style="fill:#407ede;fill-opacity:1;fill-rule:nonzero;stroke:none"
         d="m 15598.5,7191 h 259.301 v 335.801 H 15598.5 Z" /><g
         transform="scale(1.00595)"
         id="g134"><path
           id="path136"
           style="fill:#407ede;fill-opacity:1;fill-rule:nonzero;stroke:none"
           d="m 16300,6559.36 h -257.7 v 333.82 h 257.7 v -333.82" /></g><path
         id="path138"
         style="fill:#407ede;fill-opacity:1;fill-rule:nonzero;stroke:none"
         d="m 15059.3,5413.2 h 259.199 v 335.801 H 15059.3 Z" /><g
         transform="scale(1.19745)"
         id="g140"><path
           id="path142"
           style="fill:#407ede;fill-opacity:1;fill-rule:nonzero;stroke:none"
           d="m 16300,5347.93 h -216.5 v 280.35 h 216.5 v -280.35" /></g><g
         transform="scale(1.2858)"
         id="g144"><path
           id="path146"
           style="fill:#407ede;fill-opacity:1;fill-rule:nonzero;stroke:none"
           d="m 16300,4980.49 h -201.6 v 261.08 h 201.6 v -261.08" /></g><g
         transform="scale(1.24045)"
         id="g148"><path
           id="path150"
           style="fill:#407ede;fill-opacity:1;fill-rule:nonzero;stroke:none"
           d="m 16300,5897.79 h -209 v 270.71 h 209 v -270.71" /></g><g
         transform="scale(1.49606)"
         id="g152"><path
           id="path154"
           style="fill:#407ede;fill-opacity:1;fill-rule:nonzero;stroke:none"
           d="m 16300,4551.48 h -173.3 v 224.39 h 173.3 v -224.39" /></g><g
         transform="scale(1.54925)"
         id="g156"><path
           id="path158"
           style="fill:#407ede;fill-opacity:1;fill-rule:nonzero;stroke:none"
           d="m 16300,4395.24 h -167.3 v 216.68 h 167.3 v -216.68" /></g><g
         transform="scale(1.54925)"
         id="g160"><path
           id="path162"
           style="fill:#407ede;fill-opacity:1;fill-rule:nonzero;stroke:none"
           d="m 16300,4008.85 h -167.3 v 216.76 h 167.3 v -216.76" /></g><g
         transform="scale(1.49606)"
         id="g164"><path
           id="path166"
           style="fill:#407ede;fill-opacity:1;fill-rule:nonzero;stroke:none"
           d="m 16300,3751.32 h -173.3 v 224.45 h 173.3 v -224.45" /></g><g
         transform="scale(1.54925)"
         id="g168"><path
           id="path170"
           style="fill:#407ede;fill-opacity:1;fill-rule:nonzero;stroke:none"
           d="m 16300,3622.54 h -167.3 v 216.75 h 167.3 v -216.75" /></g><g
         transform="scale(1.49606)"
         id="g172"><path
           id="path174"
           style="fill:#407ede;fill-opacity:1;fill-rule:nonzero;stroke:none"
           d="m 16300,3351.27 h -173.3 v 224.45 h 173.3 v -224.45" /></g><g
         transform="scale(1.52265)"
         id="g176"><path
           id="path178"
           style="fill:#407ede;fill-opacity:1;fill-rule:nonzero;stroke:none"
           d="m 16300,2899.68 h -170.2 v 220.47 h 170.2 v -220.47" /></g><g
         transform="scale(1.54925)"
         id="g180"><path
           id="path182"
           style="fill:#407ede;fill-opacity:1;fill-rule:nonzero;stroke:none"
           d="m 16300,2849.9 h -167.3 v 216.69 H 16300 V 2849.9" /></g><g
         transform="scale(1.54925)"
         id="g184"><path
           id="path186"
           style="fill:#407ede;fill-opacity:1;fill-rule:nonzero;stroke:none"
           d="m 16300,2463.59 h -167.3 v 216.68 h 167.3 v -216.68" /></g><g
         transform="scale(1.49606)"
         id="g188"><path
           id="path190"
           style="fill:#407ede;fill-opacity:1;fill-rule:nonzero;stroke:none"
           d="m 16300,2151.05 h -173.3 v 224.46 h 173.3 v -224.46" /></g><g
         transform="scale(1.52265)"
         id="g192"><path
           id="path194"
           style="fill:#407ede;fill-opacity:1;fill-rule:nonzero;stroke:none"
           d="m 16300,2113.49 h -170.2 v 220.53 h 170.2 v -220.53" /></g><g
         transform="scale(1.27461)"
         id="g196"><path
           id="path198"
           style="fill:#407ede;fill-opacity:1;fill-rule:nonzero;stroke:none"
           d="m 16300,5739.7 h -203.4 v 263.45 H 16300 V 5739.7" /></g><g
         transform="scale(1.2269)"
         id="g200"><path
           id="path202"
           style="fill:#407ede;fill-opacity:1;fill-rule:nonzero;stroke:none"
           d="m 16300,4668.92 h -211.3 v 273.69 h 211.3 v -273.69" /></g><g
         transform="scale(1.18182)"
         id="g204"><path
           id="path206"
           style="fill:#407ede;fill-opacity:1;fill-rule:nonzero;stroke:none"
           d="m 16300,4275.43 h -3.7 v 20.99 c 1.2,-7.03 2.5,-14.05 3.7,-20.99" /></g><g
         transform="scale(1.25635)"
         id="g208"><path
           id="path210"
           style="fill:#407ede;fill-opacity:1;fill-rule:nonzero;stroke:none"
           d="m 16300,4021.81 h -206.3 v 267.2 h 206.3 v -267.2" /></g><g
         transform="scale(1.2858)"
         id="g212"><path
           id="path214"
           style="fill:#407ede;fill-opacity:1;fill-rule:nonzero;stroke:none"
           d="m 16300,3929.7 h -201.6 v 261.08 H 16300 V 3929.7" /></g><g
         transform="scale(1.2269)"
         id="g216"><path
           id="path218"
           style="fill:#407ede;fill-opacity:1;fill-rule:nonzero;stroke:none"
           d="m 16300,3774.63 c -8.4,22.01 -16.6,44.26 -24.6,66.75 h 24.6 v -66.75" /></g><g
         transform="scale(1.19339)"
         id="g220"><path
           id="path222"
           style="fill:#407ede;fill-opacity:1;fill-rule:nonzero;stroke:none"
           d="m 16300,3101.84 h -161.6 v 281.31 h 128.7 c 12,-97.29 22.9,-191.56 32.9,-281.31" /></g><g
         transform="scale(1.25635)"
         id="g224"><path
           id="path226"
           style="fill:#407ede;fill-opacity:1;fill-rule:nonzero;stroke:none"
           d="m 16300,3123.97 c -38.8,23.32 -75.5,53.65 -110.3,89.63 h 110.3 v -89.63" /></g><g
         transform="scale(1.2858)"
         id="g228"><path
           id="path230"
           style="fill:#407ede;fill-opacity:1;fill-rule:nonzero;stroke:none"
           d="m 16300,2878.91 h -201.6 V 3140 h 201.6 v -261.09" /></g><g
         transform="scale(1.19738)"
         id="g232"><path
           id="path234"
           style="fill:#407ede;fill-opacity:1;fill-rule:nonzero;stroke:none"
           d="m 16152.7,1984.42 h -68.2 v 259.06 h 215.5 l -147.3,-259.06" /></g><path
         id="path236"
         style="fill:#407ede;fill-opacity:1;fill-rule:nonzero;stroke:none"
         d="m 11275.6,3635.5 h 466.598 v 604.402 H 11275.6 Z" /><path
         id="path238"
         style="fill:#4284e2;fill-opacity:1;fill-rule:nonzero;stroke:none"
         d="m 12776.3,7186.3 h 1431.1 v 155.598 h -1431.1 z" /><g
         transform="scale(1.13083)"
         id="g240"><path
           id="path242"
           style="fill:#4284e2;fill-opacity:1;fill-rule:nonzero;stroke:none"
           d="m 16300,6744.49 h -1028.4 v 137.6 H 16300 v -137.6" /></g><g
         transform="scale(1.13083)"
         id="g244"><path
           id="path246"
           style="fill:#4284e2;fill-opacity:1;fill-rule:nonzero;stroke:none"
           d="m 16300,6447.54 h -1028.4 v 137.6 H 16300 v -137.6" /></g><g
         transform="scale(1.13083)"
         id="g248"><path
           id="path250"
           style="fill:#4284e2;fill-opacity:1;fill-rule:nonzero;stroke:none"
           d="m 16300,5556.87 h -1028.4 v 137.51 H 16300 v -137.51" /></g><g
         transform="scale(1.41672)"
         id="g252"><path
           id="path254"
           style="fill:#4284e2;fill-opacity:1;fill-rule:nonzero;stroke:none"
           d="m 16300,4647.41 h -820.9 v 109.76 h 820.9 v -109.76" /></g><g
         transform="scale(1.41672)"
         id="g256"><path
           id="path258"
           style="fill:#4284e2;fill-opacity:1;fill-rule:nonzero;stroke:none"
           d="m 16300,4410.39 h -820.9 v 109.83 h 820.9 v -109.83" /></g><g
         transform="scale(1.41672)"
         id="g260"><path
           id="path262"
           style="fill:#4284e2;fill-opacity:1;fill-rule:nonzero;stroke:none"
           d="m 16300,3936.41 h -820.9 v 109.83 h 820.9 v -109.83" /></g><g
         transform="scale(1.41672)"
         id="g264"><path
           id="path266"
           style="fill:#4284e2;fill-opacity:1;fill-rule:nonzero;stroke:none"
           d="m 16300,3225.4 h -820.9 v 109.83 H 16300 V 3225.4" /></g><g
         transform="scale(1.41672)"
         id="g268"><path
           id="path270"
           style="fill:#4284e2;fill-opacity:1;fill-rule:nonzero;stroke:none"
           d="m 16300,2751.42 h -820.9 v 109.83 h 820.9 v -109.83" /></g><g
         transform="scale(1.41672)"
         id="g272"><path
           id="path274"
           style="fill:#4284e2;fill-opacity:1;fill-rule:nonzero;stroke:none"
           d="m 16300,2277.44 h -820.9 v 109.83 h 820.9 v -109.83" /></g><g
         transform="scale(1.41672)"
         id="g276"><path
           id="path278"
           style="fill:#4284e2;fill-opacity:1;fill-rule:nonzero;stroke:none"
           d="m 16300,1803.46 h -526.1 c -23.1,38.26 -48.4,74.89 -76,109.76 h 602.1 v -109.76" /></g><g
         transform="scale(1.13083)"
         id="g280"><path
           id="path282"
           style="fill:#4284e2;fill-opacity:1;fill-rule:nonzero;stroke:none"
           d="m 16300,4666.11 h -1028.4 v 137.6 H 16300 v -137.6" /></g><g
         transform="scale(1.13083)"
         id="g284"><path
           id="path286"
           style="fill:#4284e2;fill-opacity:1;fill-rule:nonzero;stroke:none"
           d="m 16300,4072.3 h -1028.4 v 137.51 H 16300 V 4072.3" /></g><path
         id="path288"
         style="fill:#4284e2;fill-opacity:1;fill-rule:nonzero;stroke:none"
         d="m 12776.3,6739.6 h 1431.1 v 155.598 h -1431.1 z" /><path
         id="path290"
         style="fill:#4284e2;fill-opacity:1;fill-rule:nonzero;stroke:none"
         d="m 12776.3,6293 h 1431.1 v 155.5 h -1431.1 z" /><path
         id="path292"
         style="fill:#4284e2;fill-opacity:1;fill-rule:nonzero;stroke:none"
         d="m 12776.3,5399.6 h 1431.1 v 155.598 h -1431.1 z" /><path
         id="path294"
         style="fill:#4284e2;fill-opacity:1;fill-rule:nonzero;stroke:none"
         d="m 12776.3,4506.3 h 1431.1 v 155.598 h -1431.1 z" /><path
         id="path296"
         style="fill:#4284e2;fill-opacity:1;fill-rule:nonzero;stroke:none"
         d="m 12776.3,4122 v 93.2 h 175.8 c -0.2,-0.1 -0.5,-0.1 -0.7,-0.2 -65,-17.8 -123.2,-50.4 -175.1,-93" /><path
         id="path298"
         style="fill:#4284e2;fill-opacity:1;fill-rule:nonzero;stroke:none"
         d="m 13596.1,3166.3 h -819.8 v 130 l 1431.1,-22 v -8.2 c -24.5,1.2 -49,1.8 -73.8,1.8 -189.7,0 -371,-36 -537.5,-101.6" /><path
         id="path300"
         style="fill:#4284e2;fill-opacity:1;fill-rule:nonzero;stroke:none"
         d="m 12776.3,2358.6 v 69.9 h 31 c -10.9,-22.9 -21.3,-46.3 -31,-69.9" /><g
         transform="scale(1.13083)"
         id="g302"><path
           id="path304"
           style="fill:#4a8fe6;fill-opacity:1;fill-rule:nonzero;stroke:none"
           d="m 16300,7338.3 h -1028.4 v 137.6 H 16300 v -137.6" /></g><path
         id="path306"
         style="fill:#ff5b7e;fill-opacity:1;fill-rule:nonzero;stroke:none"
         d="m 9154.05,9713.4 c 1.21,96.2 80.17,173.2 176.35,172 96.18,-1.2 173.17,-80.2 171.96,-176.3 -1.22,-96.2 -80.17,-173.2 -176.35,-172 -96.18,1.2 -173.17,80.2 -171.96,176.3 z m -171.83,-138.3 335.87,-666.7 352.56,658 c 104.38,241.4 -63.17,516.7 -325.91,527.7 -3.89,0.1 -7.79,0.2 -11.71,0.3 -3.91,0 -7.82,0 -11.71,0 -262.93,-4.3 -437.36,-275.4 -339.1,-519.3" /><path
         id="path308"
         style="fill:#70c0fd;fill-opacity:1;fill-rule:nonzero;stroke:none"
         d="m 4212.52,3192.2 c 140.71,27.8 249.73,141.3 275.89,284.4 74.03,404.7 308.17,1117.1 1039.76,1130.1 861.72,15.4 1015.39,-630.7 995.05,-1101.3 -5.11,-118.4 91.38,-215 208.01,-210.2 254.9,10.6 626.63,-48.5 626.63,-483.3 0,0 230.51,-818.8 -425.01,-1016.2 -655.52,-197.4 -972.47,62.2 -1253.41,-201 -259.47,-243.1 -1105.79,-495.6 -1514.52,57.7 -63.92,86.5 -143.44,160 -233.26,218.2 -153.48,99.4 -355.48,340.6 -186.61,893.8 65.58,214.9 239.54,379 456.37,425.5 3.67,0.8 7.37,1.5 11.1,2.3" /><path
         id="path310"
         style="fill:#07085b;fill-opacity:1;fill-rule:nonzero;stroke:none"
         d="m 5810.71,2480.3 c -59.39,-45.7 -115.54,-97.8 -166.55,-156.9 -12.89,-14.9 -25.42,-30.3 -37.61,-46.2 4.47,72.8 13.12,130.4 26.6,167.8 15.53,43 60.6,115.8 115.9,218.9 60.36,75.9 134.09,153.4 212.99,220.1 85.12,71.6 178.19,132.6 284.14,166.4 -110.69,-17.3 -212.94,-64.7 -307.75,-123.7 -29.97,-18.7 -60.35,-39.2 -90.37,-61.4 126.33,285.2 250.47,702.6 199.36,1257.6 0,0 -14.35,-373.1 -94.58,-713.7 -13.2,55.3 -31.48,108.2 -52.52,159 -53.34,122.2 -88.58,175.8 -162.56,280.7 61.76,-113.2 90.66,-170.2 129.88,-296 78.04,-268.1 27.36,-358.4 -14.8,-449.7 -125.34,-271.3 -276.99,-466.6 -341.55,-625.6 -24.21,51.7 -48.83,102.9 -73.85,153.9 -53.55,108.8 -108.56,216.5 -165.86,322.6 -9.29,17.2 -18.65,34.4 -28.04,51.6 -6.76,22.9 -16.86,55 -28.69,129 -6.13,37.7 -11.24,75.8 -14.86,114.2 -9.14,99 -9.14,153.2 -7.78,232 -8.76,-80.6 -13.47,-134.1 -13.37,-233.4 0.12,-39.2 1.78,-78.4 4.52,-117.7 0.44,-6.4 1.01,-12.9 1.56,-19.4 l -0.95,1.7 c -29.88,52.1 -60.23,103.9 -91.82,154.7 -31.53,50.9 -63.94,101 -97.87,149.8 -33.93,48.7 -69.54,96 -108.07,139.8 35.85,-46.7 68.4,-96.4 99.23,-147.4 30.81,-51 60.01,-103.2 88.29,-156.1 28.33,-52.8 55.4,-106.5 81.96,-160.5 26.59,-54 52.33,-108.6 77.58,-163.4 3.25,-7 6.46,-14.1 9.68,-21.1 -16.94,5.2 -33.03,9.9 -61.43,17.1 -129.67,32.6 -236.81,41.8 -334.54,48.7 89.21,-16.1 196.29,-36.1 326.28,-83.9 30.51,-11.3 66.4,-25.6 96.24,-40.4 37.53,-83.7 73.81,-168 109.19,-252.8 23.24,-56 46.05,-112.1 68.23,-168.5 11.01,-28.1 22.03,-56.4 32.58,-84.6 l 0.27,-0.7 c -0.09,-7.2 0.09,-14.3 0.65,-21.3 3.93,-50.2 13.43,-171 23.65,-325 -81.43,42.2 -171.56,74.2 -270.45,93.4 -108.64,21.1 -189.36,17.7 -357.12,23.7 -13.89,9.2 -35.38,27.3 -56.5,51.2 -52.29,59.2 -89.32,136.6 -103.26,229.7 5.57,-94.4 35.79,-178.7 85.65,-248.1 7.65,-10.6 15.77,-20.9 24.34,-30.7 -47.51,2.4 -94.88,5.9 -142.08,11.7 -51.44,6.5 -102.7,15.7 -152.68,31.2 -49.81,15.5 -98.88,37.2 -141.63,71.8 40.52,-38 88.86,-64.1 138.37,-83.9 45.76,-18.2 92.99,-31.1 140.52,-41.5 -9.6,-1.6 -19.2,-3.2 -28.81,-4.8 -35.04,-6.3 -69.96,-13.4 -104.6,-21.9 -34.62,-8.7 -69.06,-18.3 -102.93,-30.2 -33.8,-12 -67.15,-25.8 -99.04,-43.1 32.94,14.5 66.87,25.3 101.07,34.3 34.27,8.8 68.93,15.4 103.64,21 34.76,5.5 69.68,9.6 104.61,12.7 34.87,3.1 135.06,6.7 169.64,7.4 h -0.03 c 179.13,-24.1 287.52,-25 408.8,-58.7 105.26,-29.4 200.24,-74.2 279.28,-128.5 3.46,-2.3 6.86,-4.8 10.28,-7.2 25.74,-418 49.08,-990.398 -5.62,-1135.098 -81.6,-215.8 413.6,-138.203 413.6,-138.203 0,0 -166.59,92.801 -232.5,578.301 -38.32,282.3 -81.12,647.2 -83.62,922.7 2.25,5.1 4.55,10.3 6.93,15.4 7.71,16.7 16.2,33.2 25.04,49.4 17.79,32.5 37.4,64 58.56,94.3 42.37,60.7 90.81,116.4 143.55,166.9 83.37,82.1 211.91,171.5 360.98,234.3 -153.06,-44.4 -292.22,-118.4 -387.35,-193.7" /><path
         id="path312"
         style="fill:#70c0fd;fill-opacity:1;fill-rule:nonzero;stroke:none"
         d="m 9232.87,2381.1 c 333.76,-6.2 662.86,85.3 942.43,267.6 224.8,146.6 435.5,362.5 474.4,667.1 89,696.2 -312.1,673.2 -410.4,957.1 -98.4,283.9 193.4,411 67.4,928.2 -67.6,277.8 -281.7,398.1 -615.53,844.5 -333.86,446.5 -738.25,675.3 -1033.36,508.8 -295.1,-166.5 -283.26,-524.5 -502.7,-643.8 -219.44,-119.3 -556.66,-535.4 -428.02,-1326.8 128.64,-791.3 -741.55,-496.2 -401.04,-1411.7 249.65,-671.3 1341.78,-780.5 1906.82,-791" /><path
         id="path314"
         style="fill:#07085b;fill-opacity:1;fill-rule:nonzero;stroke:none"
         d="m 8835.57,2979.6 c 31.03,-439.7 76.45,-2190.799 10.5,-2342.998 -98.36,-227 417.6,55.8 417.6,55.8 0,0 -137.11,1045.498 -216.56,1556.098 -35.36,227.3 -100.19,911.1 -100.8,970.6 2.71,5.4 5.47,10.8 8.35,16.2 9.29,17.6 19.52,34.9 30.18,52 21.45,34.1 45.08,67.3 70.6,99.2 51.07,63.8 109.47,122.4 173.06,175.5 119.72,102.9 284.44,191 435.16,246.4 -188.85,-47.7 -355.77,-126.9 -466.96,-203.7 -71.6,-48 -139.29,-102.9 -200.78,-165.1 -15.53,-15.7 -30.65,-31.8 -45.34,-48.5 5.39,76.5 15.81,137.2 32.07,176.4 18.71,45.3 73.04,121.9 139.72,230.3 70.49,77.5 160.32,160.4 256.76,231.5 104.9,77 216.75,140.1 342.54,175.1 -131.88,-18 -254.46,-66.9 -371.01,-130.1 -36.76,-20.1 -72.79,-41.4 -108.93,-64.6 152.29,299.9 301.95,739.1 240.33,1322.8 0,0 -17.3,-392.4 -114.02,-750.7 -15.92,58.2 -37.95,113.8 -63.31,167.3 -64.43,128.7 -106.95,185.1 -195.97,295.2 74.13,-118.6 109.19,-178.7 156.57,-311.4 91.04,-272.8 36.83,-369.7 -17.84,-473 -151.11,-285.4 -333.92,-490.8 -411.75,-658 -29.18,54.3 -58.86,108.2 -89.03,161.9 -64.55,114.4 -130.87,227.7 -199.95,339.3 -11.19,18.1 -22.47,36.2 -33.8,54.2 -10.5,31 -11.7,32.9 -22.17,76.6 -4.51,19.6 -8.77,39.3 -12.41,59.2 -7.39,39.7 -13.56,79.7 -17.93,120.1 -4.26,40.3 -7.74,80.9 -9,121.6 -2.26,42.8 -1,90.4 -0.38,122.4 -3.84,-30.9 -10.17,-79.1 -12.39,-122.3 -2.99,-40.9 -3.77,-82 -3.72,-123.2 0.16,-41.2 2.14,-82.5 5.46,-123.7 0.52,-6.9 1.22,-13.7 1.87,-20.5 l -1.13,1.8 c -36.03,54.8 -72.62,109.3 -110.7,162.7 -38.01,53.5 -77.08,106.3 -117.98,157.5 -40.91,51.3 -83.84,101 -130.28,147.1 43.21,-49.1 82.46,-101.4 119.62,-155 37.14,-53.7 72.34,-108.6 106.43,-164.2 34.16,-55.6 66.78,-112.1 98.81,-168.9 32.05,-56.8 63.08,-114.1 93.53,-171.8 3.91,-7.4 7.77,-14.8 11.67,-22.2 -69.17,18.5 -137.17,31.7 -207.9,42.7 -115.49,16.5 -158.42,19.7 -269.46,26.5 109.88,-17.2 151.76,-24.4 264.42,-51.6 115.05,-29.2 197.66,-58.6 244.93,-79.2 45.25,-88 88.99,-176.7 131.63,-265.9 28.03,-58.8 55.52,-117.9 82.26,-177.2 10.71,-23.9 26.45,-46.2 31.85,-71.8 19.65,-93 45.58,-498.4 45.58,-498.4" /><g
         transform="scale(1.53873)"
         id="g316"><path
           id="path318"
           style="fill:#07085b;fill-opacity:1;fill-rule:nonzero;stroke:none"
           d="m 15896.2,6044.14 c 1,62.52 52.5,112.3 115.1,111.26 62.4,-1.1 112.3,-52.64 111.2,-115.1 -1.1,-62.51 -52.6,-112.29 -115.1,-111.26 -62.5,1.05 -112.3,52.58 -111.2,115.1 z m -112.1,-89.43 216.4,-434.25 230.9,426.65 c 68.6,156.56 -39.5,335.99 -210.3,343.86 -2.5,0.06 -5,0.19 -7.6,0.19 -2.5,0.07 -5,0.07 -7.6,0.07 -170.8,-2.08 -285,-177.75 -221.8,-336.52" /></g><path
         id="path320"
         style="fill:#70c0fd;fill-opacity:1;fill-rule:nonzero;stroke:none"
         d="m 6525.2,953 c 0,0 28.89,480 446.67,435.5 0,0 568.89,906.7 1164.44,-373.3 0,0 537.75,290.6 735.54,-341.399 0,0 331.12,616.899 802.24,412.499 471.11,-204.402 631.81,-765.8 631.81,-765.8 L 6828.81,246.402 6525.2,953" /><g
         transform="scale(1.03717)"
         id="g322"><path
           id="path324"
           style="fill:#ffc0bb;fill-opacity:1;fill-rule:nonzero;stroke:none"
           d="m 16300,9670.16 c -16.7,-11.14 -311.9,-541.58 -311.9,-541.58 l -397.3,349.5 386,643.52 323.2,-181.33 v -270.11" /></g><g
         transform="scale(1.03717)"
         id="g326"><path
           id="path328"
           style="fill:#f99893;fill-opacity:1;fill-rule:nonzero;stroke:none"
           d="m 15753.4,9749.26 c 49,-138.41 149.5,-321.8 350.4,-414.26 84.7,150.31 186.7,328.75 196.2,335.16 v 270.11 l -323.2,181.33 -223.4,-372.34" /></g><path
         id="path330"
         style="fill:#ffffff;fill-opacity:1;fill-rule:nonzero;stroke:none"
         d="m 12598.4,4471.7 c 0,0 -116.5,82.2 -227.9,-180.9 -111.3,-263.2 38.3,-367.8 38.3,-367.8 0,0 191.5,141.7 189.6,168.7 -1.8,27 -8.7,366.8 -8.7,366.8 l 8.7,13.2" /><path
         id="path332"
         style="fill:#ff5b7e;fill-opacity:1;fill-rule:nonzero;stroke:none"
         d="m 12790,4566.6 c 0,0 -94.3,58.1 -200.3,-108.1 -39.1,-61.2 -79.8,-152.9 -118,-289.2 -141.7,-506.1 0,-506.1 0,-506.1 l 237.9,101.2 c 0,0 227.7,580.3 214.2,627.6 -13.5,47.2 -133.8,174.6 -133.8,174.6" /><path
         id="path334"
         style="fill:#283f56;fill-opacity:1;fill-rule:nonzero;stroke:none"
         d="m 14790.9,5869.7 h -3956.8 c -30.9,0 -56,-25.1 -56,-56 v -43.1 c 0,-31 25.1,-56.1 56,-56.1 h 3956.8 c 30.9,0 56,25.1 56,56.1 v 43.1 c 0,30.9 -25.1,56 -56,56" /><path
         id="path336"
         style="fill:#283f56;fill-opacity:1;fill-rule:nonzero;stroke:none"
         d="m 14082.8,5068.4 h -273.3 v 723.7 h 273.3 v -723.7" /><path
         id="path338"
         style="fill:#283f56;fill-opacity:1;fill-rule:nonzero;stroke:none"
         d="m 11889.1,5265.8 h -91.5 c -65.5,0 -118.7,53.2 -118.7,118.8 v 549.2 h 328.9 v -549.2 c 0,-65.6 -53.1,-118.8 -118.7,-118.8" /><path
         id="path340"
         style="fill:#283f56;fill-opacity:1;fill-rule:nonzero;stroke:none"
         d="m 11962.3,5430.3 c 39.3,-44.9 997,-946.4 997,-946.4 l -81,-111.4 -1012.2,998.3 96.2,59.5" /><g
         transform="scale(1.28322)"
         id="g342"><path
           id="path344"
           style="fill:#ffe5b6;fill-opacity:1;fill-rule:nonzero;stroke:none"
           d="m 16100.4,2936.29 h 41.8 c 87.1,0 157.8,-70.69 157.8,-157.81 v -202.46 h -194.6 c 0,0 -86.7,149.86 -118.3,118.3 -31.5,-31.57 113.3,241.97 113.3,241.97" /></g><path
         id="path346"
         style="fill:#1a1a1a;fill-opacity:1;fill-rule:nonzero;stroke:none"
         d="m 15600.6,1800.9 c 0,-810.298 -656.8,-1467.099 -1467,-1467.099 -810.2,0 -1467,656.801 -1467,1467.099 0,810.2 656.8,1467 1467,1467 810.2,0 1467,-656.8 1467,-1467" /><path
         id="path348"
         style="fill:#9e9da2;fill-opacity:1;fill-rule:nonzero;stroke:none"
         d="m 14794.9,1800.9 c 0,-365.2 -296.1,-661.3 -661.3,-661.3 -365.2,0 -661.3,296.1 -661.3,661.3 0,365.2 296.1,661.2 661.3,661.2 365.2,0 661.3,-296 661.3,-661.2" /><g
         transform="scale(1.38378)"
         id="g350"><path
           id="path352"
           style="fill:#1a1a1a;fill-opacity:1;fill-rule:nonzero;stroke:none"
           d="m 16300,1301.44 c 0,-585.573 -474.6,-1060.216 -1060.1,-1060.216 -585.6,0 -1060.3,474.643 -1060.3,1060.216 0,585.49 474.7,1060.14 1060.3,1060.14 585.5,0 1060.1,-474.65 1060.1,-1060.14" /></g><g
         transform="scale(1.33434)"
         id="g354"><path
           id="path356"
           style="fill:#9e9da2;fill-opacity:1;fill-rule:nonzero;stroke:none"
           d="m 16300,1349.65 c 0,-273.69 -221.8,-495.596 -495.5,-495.596 -273.7,0 -495.6,221.906 -495.6,495.596 0,273.7 221.9,495.53 495.6,495.53 273.7,0 495.5,-221.83 495.5,-495.53" /></g><path
         id="path358"
         style="fill:#283f56;fill-opacity:1;fill-rule:nonzero;stroke:none"
         d="m 15885.3,2017 h -3465.8 c -168.6,0 -305.2,136.6 -305.2,305.1 V 2636 c 0,168.6 136.6,305.2 305.2,305.2 h 3465.8 V 2017" /><g
         transform="scale(1.02747)"
         id="g360"><path
           id="path362"
           style="fill:#ff5b7e;fill-opacity:1;fill-rule:nonzero;stroke:none"
           d="m 16106.4,4546.01 h -2809.1 c -107,0 -193.6,86.72 -193.6,193.68 v 149.01 c 0,106.96 86.6,193.58 193.6,193.58 h 2809.1 c 107,0 193.6,-86.62 193.6,-193.58 v -149.01 c 0,-106.96 -86.6,-193.68 -193.6,-193.68" /></g><g
         transform="scale(1.2679)"
         id="g364"><path
           id="path366"
           style="fill:#333333;fill-opacity:1;fill-rule:nonzero;stroke:none"
           d="m 13118.4,3724.74 c 0,0 -207.1,-114.44 -374.7,-593.43 -167.7,-478.9 -131.8,-1201.43 910,-1257.27 h 1600.6 l 159.6,280.7 c 0,0 -135.7,1910.64 -447,2756.84 h 526.8 c 0,0 159.1,-1626.39 717.8,-1845.89 53.8,-21.05 88.5,-73.66 88.5,-131.39 v -321.87 l -846.2,-1093.62 h -2786 c 0,0 -654.6,-57.73 -814.3,1053.71 l -1888.85,28.94 c -103.55,1.66 -176.9,102.06 -146.54,201.04 58.99,191.82 178.96,462.42 396.69,521.89 345.5,94.33 2903.6,400.35 2903.6,400.35" /></g><g
         transform="scale(1.02042)"
         id="g368"><path
           id="path370"
           style="fill:#283f56;fill-opacity:1;fill-rule:nonzero;stroke:none"
           d="m 12508.2,4053.51 c 3.2,-5.39 6.5,-10.78 9.9,-16.17 h 3372.1 l 34.4,79.38 c 185.6,406.5 375.4,511.36 375.4,511.36 h -3458.6 c -294.8,0 -483.9,-321.04 -333.2,-574.57" /></g><path
         id="path372"
         style="fill:#ff5b7e;fill-opacity:1;fill-rule:nonzero;stroke:none"
         d="m 12555.2,2941.2 h 2570.9 c 276.3,0 470.2,272.5 379.5,533.4 -137,394 -455.3,817.8 -1239,890.4 -1012.2,93.7 -1624.3,-715.1 -1866.5,-1164.1 -63.3,-117.3 21.8,-259.7 155.1,-259.7" /><g
         transform="scale(1.38647)"
         id="g374"><path
           id="path376"
           style="fill:#ff5b7e;fill-opacity:1;fill-rule:nonzero;stroke:none"
           d="m 14132.3,1388.93 569.4,919.82 c 0,0 292,226.33 868.8,109.48 358.1,-72.55 569.9,-311.58 678.9,-482.23 50.6,-79.19 -5.8,-182.91 -99.7,-182.91 h -876.8 c -268.9,0 -523.2,-121.68 -691.9,-330.98 l -22.5,-27.92 c -121.8,-151.03 -305.4,-238.88 -499.4,-238.88 -131.2,0 -257.4,50.06 -353,139.93 l -99.4,93.69 h 525.6" /></g><g
         transform="scale(1.20854)"
         id="g378"><path
           id="path380"
           style="fill:#ff5b7e;fill-opacity:1;fill-rule:nonzero;stroke:none"
           d="m 16300,6203.44 c 0,88.7 -81.1,155.39 -168.1,138.26 -370.5,-72.9 -759.4,-369.7 -759.4,-724.92 0,-355.14 388.9,-651.95 759.4,-724.84 87,-17.13 168.1,49.56 168.1,138.26 v 1173.24" /></g><g
         transform="scale(1.24017)"
         id="g382"><path
           id="path384"
           style="fill:#ffffff;fill-opacity:1;fill-rule:nonzero;stroke:none"
           d="M 15884.3,6042.15 V 4904.97 c 241,76.6 415.7,302.13 415.7,568.55 0,266.49 -174.7,492.03 -415.7,568.63" /></g><path
         id="path386"
         style="fill:#ff5b7e;fill-opacity:1;fill-rule:nonzero;stroke:none"
         d="m 14556.8,5869.7 h -3488.6 v 2103.6 h 3488.6 V 5869.7" /><path
         id="path388"
         style="fill:#d12a56;fill-opacity:1;fill-rule:nonzero;stroke:none"
         d="m 14631,8238.2 h -3637 v -264.9 h 3637 v 264.9" /><path
         id="path390"
         style="fill:#282828;fill-opacity:1;fill-rule:nonzero;stroke:none"
         d="m 11915.5,5442.9 c 0,-39.8 -32.3,-72.1 -72.1,-72.1 -39.9,0 -72.2,32.3 -72.2,72.1 0,39.9 32.3,72.1 72.2,72.1 39.8,0 72.1,-32.2 72.1,-72.1" /><path
         id="path392"
         style="fill:#333333;fill-opacity:1;fill-rule:nonzero;stroke:none"
         d="m 14929.6,3725.7 h -1661.4 c -19.2,0 -34.7,15.5 -34.7,34.7 v 26.7 c 0,19.2 15.5,34.7 34.7,34.7 h 1661.4 c 19.1,0 34.7,-15.5 34.7,-34.7 v -26.7 c 0,-19.2 -15.6,-34.7 -34.7,-34.7" /><path
         id="path394"
         style="fill:#333333;fill-opacity:1;fill-rule:nonzero;stroke:none"
         d="m 14929.6,3482.4 h -1661.4 c -19.2,0 -34.7,15.6 -34.7,34.7 v 26.8 c 0,19.1 15.5,34.7 34.7,34.7 h 1661.4 c 19.1,0 34.7,-15.6 34.7,-34.7 v -26.8 c 0,-19.1 -15.6,-34.7 -34.7,-34.7" /><g
         transform="scale(1.10057)"
         id="g396"><path
           id="path398"
           style="fill:#ffc0bb;fill-opacity:1;fill-rule:nonzero;stroke:none"
           d="m 16300,3316.46 -115.2,-1237.63 -99.1,-178.36 -177.9,128.75 3.6,1318.95 388.6,-31.71" /></g><g
         transform="scale(1.14569)"
         id="g400"><path
           id="path402"
           style="fill:#ffc0bb;fill-opacity:1;fill-rule:nonzero;stroke:none"
           d="m 16300,3297.3 -54.6,-1300.34 -95,-171.34 -171,123.68 3.4,1267.01 317.2,80.99" /></g><g
         transform="scale(1.17321)"
         id="g404"><path
           id="path406"
           style="fill:#daeef7;fill-opacity:1;fill-rule:nonzero;stroke:none"
           d="m 16289.8,1703.87 -720.8,-2.47 c -5.6,0 -10.2,4.52 -10.2,10.15 l -0.2,54.21 c 0,5.62 4.5,10.23 10.2,10.31 l 720.7,2.39 c 5.6,0 10.2,-4.52 10.2,-10.15 l 0.2,-54.21 c 0.1,-5.62 -4.5,-10.23 -10.1,-10.23" /></g><g
         transform="scale(1.17354)"
         id="g408"><path
           id="path410"
           style="fill:#ff5b7e;fill-opacity:1;fill-rule:nonzero;stroke:none"
           d="m 15587.4,2002.15 -23.9,-207.49 c -3,-25.57 11.4,-48.74 30.3,-48.66 l 652.9,2.13 c 16.9,0.09 33.6,10.74 42.5,30.68 9.1,20.45 10.8,51.12 -18.6,92.37 -58.7,82.48 -250.9,101.91 -345,172.21 l -304.1,-1.02 c -17.1,-0.08 -31.5,-17.13 -34.1,-40.22" /></g><g
         transform="scale(1.15325)"
         id="g412"><path
           id="path414"
           style="fill:#daeef7;fill-opacity:1;fill-rule:nonzero;stroke:none"
           d="m 16159.3,1956.65 v 0 c -4.9,2.86 -6.6,11.02 -3.9,17.17 13,28.96 53.6,99.46 136.5,85.32 4.8,-0.86 8.1,-7.19 7.3,-13.78 l -0.1,-0.17 c -0.7,-6.42 -5,-10.58 -9.7,-9.8 -74.4,12.49 -108.8,-49.69 -119.3,-73.97 -2.3,-5.2 -6.8,-7.2 -10.8,-4.77" /></g><g
         transform="scale(1.15814)"
         id="g416"><path
           id="path418"
           style="fill:#daeef7;fill-opacity:1;fill-rule:nonzero;stroke:none"
           d="m 16159.9,1921.54 v 0 c -4.9,2.93 -6.6,10.96 -3.9,17.09 12.9,28.84 53.2,99.13 136,84.97 4.7,-0.78 8,-7.17 7.2,-13.64 l -0.1,-0.26 c -0.7,-6.31 -5,-10.45 -9.6,-9.76 -74.1,12.43 -108.4,-49.47 -118.8,-73.65 -2.3,-5.18 -6.9,-7.17 -10.8,-4.75" /></g><g
         transform="scale(1.16268)"
         id="g420"><path
           id="path422"
           style="fill:#daeef7;fill-opacity:1;fill-rule:nonzero;stroke:none"
           d="m 16160.4,1889.08 v 0 c -4.8,2.93 -6.5,10.93 -3.8,17.03 12.8,28.73 53,98.74 135.4,84.63 4.7,-0.77 8,-7.13 7.2,-13.59 l -0.1,-0.25 c -0.6,-6.28 -4.9,-10.41 -9.6,-9.64 -73.8,12.3 -107.9,-49.36 -118.3,-73.45 -2.3,-5.07 -6.8,-7.14 -10.8,-4.73" /></g><g
         id="g424"><g
           clip-path="url(#clipPath430)"
           id="g426"><g
             transform="scale(1.12162)"
             id="g432"><path
               id="path434"
               style="fill:#312b28;fill-opacity:1;fill-rule:nonzero;stroke:none"
               d="m 16293.2,2017.35 h 6.8 v -59.02 h -6.8" /></g></g></g><g
         transform="scale(1.13524)"
         id="g436"><path
           id="path438"
           style="fill:#f84d64;fill-opacity:1;fill-rule:nonzero;stroke:none"
           d="m 16123.6,1804.91 -0.1,22.55 c 0,4.49 -2.9,8.37 -6.9,9.77 0.3,0.53 0.4,1.06 0.7,1.59 9.3,21.14 11.1,52.85 -19.2,95.49 -0.1,0.17 -0.3,0.35 -0.3,0.52 l 6.7,58.32 c 3.7,0.35 7.7,0.53 11.8,0.53 51.7,0 133.9,-28.1 183.7,-188.16 l -176.4,-0.61" /></g><path
         id="path440"
         style="fill:#333333;fill-opacity:1;fill-rule:nonzero;stroke:none"
         d="m 14929.6,3239.2 h -1661.4 c -19.2,0 -34.7,15.5 -34.7,34.7 v 26.7 c 0,19.2 15.5,34.7 34.7,34.7 h 1661.4 c 19.1,0 34.7,-15.5 34.7,-34.7 v -26.7 c 0,-19.2 -15.6,-34.7 -34.7,-34.7" /><g
         transform="scale(1.15107)"
         id="g442"><path
           id="path444"
           style="fill:#282828;fill-opacity:1;fill-rule:nonzero;stroke:none"
           d="m 15757.6,4912.66 c 87.1,-6.69 448.7,-154.03 495.5,-415.18 46.9,-261.15 0,-2290.05 0,-2290.05 h -401.7 c 0,0 -321.5,1607.12 -321.5,1653.94 0,46.91 227.7,1051.29 227.7,1051.29" /></g><g
         transform="scale(1.15201)"
         id="g446"><path
           id="path448"
           style="fill:#333333;fill-opacity:1;fill-rule:nonzero;stroke:none"
           d="m 12988.2,5490.65 c 6.7,-20.05 -88.2,-916.57 825.7,-990.18 913.8,-73.61 1442.4,-194 1442.4,-194 0,0 -127.1,-2027.24 -120.4,-2127.59 0,0 314.4,-53.47 448.2,-33.42 0,0 715.9,2247.98 508.5,2709.61 -207.4,461.71 -1859.9,635.58 -1859.9,635.58 h -1244.5" /></g><g
         transform="scale(1.12812)"
         id="g450"><path
           id="path452"
           style="fill:#f9b7b4;fill-opacity:1;fill-rule:nonzero;stroke:none"
           d="m 14816.9,7252.97 c 0,0 9.6,-445.61 39.3,-486.91 29.6,-41.22 1443.8,-581.42 1443.8,-581.42 l -232.2,-262.47 -1041.9,297.67 c 0,0 -746.3,267.7 -738.6,287.02 7.6,19.33 48.6,293.5 85.6,400.85 36.9,107.44 176.1,350.14 176.1,350.14 l 267.9,-4.88" /></g><g
         transform="scale(1.03992)"
         id="g454"><path
           id="path456"
           style="fill:#feb546;fill-opacity:1;fill-rule:nonzero;stroke:none"
           d="m 15507.6,9554.87 c 0,0 -1024.9,-372.43 -1141.7,-2395.76 l -50,-1150.67 c 0,0 1167.4,-500.33 1834.4,-66.73 0,0 67.6,2053.71 137.8,2804.54 11.9,126.64 -39.7,250.79 -137.6,331.95 -223.7,185.2 -605.2,494.08 -642.9,476.67" /></g><g
         transform="scale(1.12532)"
         id="g458"><path
           id="path460"
           style="fill:#ffc0bb;fill-opacity:1;fill-rule:nonzero;stroke:none"
           d="m 14002,7501.25 c 0,0 -231.6,-957.24 92.1,-1220.27 201.9,-164.05 2084.5,-485.73 2084.5,-485.73 l 121.4,293.42 c 0,0 -1499.1,535.05 -1588.6,596.99 -89.5,62.03 60.7,880.37 60.7,880.37 l -770.1,-64.78" /></g><g
         transform="scale(1.03262)"
         id="g462"><path
           id="path464"
           style="fill:#f4a640;fill-opacity:1;fill-rule:nonzero;stroke:none"
           d="m 16056.9,9245.03 c -92.4,82.02 -224.8,103.62 -338.7,55.59 -157.7,-66.53 -383.4,-255.66 -505.4,-788 l -103.5,-459.32 c 0,0 766.9,-188.25 1002.1,-177.6 l 120.4,710.13 c 0,0 68.2,443.73 -174.9,659.2" /></g><path
         id="path466"
         style="fill:#333333;fill-opacity:1;fill-rule:nonzero;stroke:none"
         d="m 13988,8238.2 h -648.5 L 12123.7,5869.7 c 106.1,0 436.3,0 648.5,0 L 13988,8238.2" /><path
         id="path468"
         style="fill:#ffe5b6;fill-opacity:1;fill-rule:nonzero;stroke:none"
         d="m 12952.7,7384.9 c -27.6,14.2 -61.6,3.3 -75.8,-24.4 L 12749,7111.4 c -14.2,-27.6 -3.2,-61.6 24.4,-75.8 l 435.2,-223.4 c 27.6,-14.2 61.6,-3.2 75.8,24.4 l 127.9,249.1 c 14.2,27.6 3.2,61.6 -24.4,75.8 z m 219.5,-643.6 -435.2,223.4 c -66.7,34.3 -93.1,116.4 -58.9,183.1 L 12806,7397 c 34.2,66.7 116.4,93.1 183.1,58.8 l 435.2,-223.4 c 66.7,-34.2 93.2,-116.4 58.9,-183.1 l -127.9,-249.1 c -34.2,-66.7 -116.4,-93.1 -183.1,-58.9" /><g
         transform="scale(1.01382)"
         id="g470"><path
           id="path472"
           style="fill:#ffc0bb;fill-opacity:1;fill-rule:nonzero;stroke:none"
           d="m 16247,10582.5 c 53,-115.1 10,-244.4 -96,-288.6 -106.1,-44.2 -234.9,13.3 -287.9,128.4 -52.9,115.2 -9.9,244.4 96.1,288.7 105.9,44.2 234.9,-13.3 287.8,-128.5" /></g><g
         transform="scale(1.12296)"
         id="g474"><path
           id="path476"
           style="fill:#daeef7;fill-opacity:1;fill-rule:nonzero;stroke:none"
           d="m 16289.4,1780.12 -753,-2.58 c -5.9,0 -10.7,4.72 -10.7,10.6 l -0.2,56.63 c -0.1,5.88 4.7,10.69 10.6,10.78 l 753,2.49 c 5.9,0 10.7,-4.72 10.7,-10.6 l 0.2,-56.63 c 0,-5.88 -4.7,-10.69 -10.6,-10.69" /></g><g
         transform="scale(1.12329)"
         id="g478"><path
           id="path480"
           style="fill:#ff5b7e;fill-opacity:1;fill-rule:nonzero;stroke:none"
           d="m 15555.6,2091.72 -24.9,-216.78 c -3.2,-26.7 11.9,-50.92 31.5,-50.83 l 682.2,2.22 c 17.7,0.09 35.1,11.22 44.4,32.05 9.4,21.37 11.2,53.42 -19.4,96.51 -61.4,86.17 -262.1,106.47 -360.5,179.91 l -317.8,-1.06 c -17.7,-0.09 -32.8,-17.9 -35.5,-42.02" /></g><g
         transform="scale(1.103)"
         id="g482"><path
           id="path484"
           style="fill:#daeef7;fill-opacity:1;fill-rule:nonzero;stroke:none"
           d="m 16152.8,2045.78 v 0 c -5,3 -6.9,11.52 -4,17.96 13.6,30.28 55.9,103.98 142.8,89.21 5,-0.91 8.4,-7.53 7.5,-14.42 v -0.18 c -0.8,-6.71 -5.3,-11.06 -10.2,-10.24 -77.7,13.05 -113.7,-51.95 -124.7,-77.34 -2.4,-5.44 -7.2,-7.53 -11.4,-4.99" /></g><g
         transform="scale(1.10788)"
         id="g486"><path
           id="path488"
           style="fill:#daeef7;fill-opacity:1;fill-rule:nonzero;stroke:none"
           d="m 16153.5,2008.7 v 0 c -5,3.06 -6.9,11.46 -4,17.87 13.5,30.15 55.7,103.62 142.1,88.82 5.1,-0.82 8.4,-7.5 7.6,-14.27 v -0.27 c -0.8,-6.59 -5.3,-10.92 -10.1,-10.2 -77.5,13 -113.4,-51.72 -124.2,-76.99 -2.4,-5.41 -7.2,-7.49 -11.4,-4.96" /></g><g
         transform="scale(1.11244)"
         id="g490"><path
           id="path492"
           style="fill:#daeef7;fill-opacity:1;fill-rule:nonzero;stroke:none"
           d="m 16154,1974.41 v 0 c -4.9,3.05 -6.8,11.41 -3.9,17.79 13.4,30.03 55.4,103.2 141.5,88.46 5,-0.81 8.4,-7.46 7.5,-14.2 v -0.27 c -0.8,-6.57 -5.3,-10.88 -10.1,-10.07 -77.1,12.86 -112.8,-51.6 -123.7,-76.77 -2.3,-5.3 -7.1,-7.46 -11.3,-4.94" /></g><g
         transform="scale(1.07027)"
         id="g494"><path
           id="path496"
           style="fill:#312b28;fill-opacity:1;fill-rule:nonzero;stroke:none"
           d="m 16299.5,1960.72 c 0,2.34 0.2,4.67 0.5,7.1 -0.3,-2.43 -0.5,-4.76 -0.5,-7.1" /></g><g
         transform="scale(1.08499)"
         id="g498"><path
           id="path500"
           style="fill:#f84d64;fill-opacity:1;fill-rule:nonzero;stroke:none"
           d="m 16111.4,1888.5 c -18.5,0 -33.1,20.93 -33,45.62 0,2.31 0.2,4.61 0.5,7.01 v 0 l 16.6,144.33 c 3.9,0.37 8,0.56 12.4,0.56 54,0 140.1,-29.4 192.1,-196.87 l -188.5,-0.65 c 0,0 0,0 -0.1,0" /></g><g
         transform="scale(1.22506)"
         id="g502"><path
           id="path504"
           style="fill:#283f56;fill-opacity:1;fill-rule:nonzero;stroke:none"
           d="m 16150.8,1279.53 h -3491.1 c -82.4,0 -149.2,66.78 -149.2,149.22 v 114.94 c 0,82.36 66.8,149.22 149.2,149.22 h 3491.1 c 82.4,0 149.2,-66.86 149.2,-149.22 v -114.94 c 0,-82.44 -66.8,-149.22 -149.2,-149.22" /></g><path
         id="path506"
         style="fill:#f4fcff;fill-opacity:1;fill-rule:nonzero;stroke:none"
         d="m 13349.9,320.5 h -2834.1 c 0,0 -14.5,4.402 -38.9,12.5 h 2857 c 5.3,-4.199 10.6,-8.398 16,-12.5" /><path
         id="path508"
         style="fill:#dce9fa;fill-opacity:1;fill-rule:nonzero;stroke:none"
         d="m 13333.9,333 h -2857 c -43.8,14.402 -119.7,40.199 -200.8,71.699 -27.9,70.5 -76.6,177.102 -151.3,288.102 78.8,9.801 186.3,15.398 328.8,15.398 20.1,0 40.7,-0.097 62.2,-0.297 0,0 -608.75,452.398 85.1,452.398 82.6,0 183.6,-6.4 306.3,-20.7 1153.9,-134.9 1261.8,-478.998 1261.8,-478.998 0,0 62.4,110.3 256.7,110.3 176.4,0 461.7,-90.902 908.2,-437.902" /><path
         id="path510"
         style="fill:#e2f2ff;fill-opacity:1;fill-rule:nonzero;stroke:none"
         d="m 10276.1,404.699 c -242.9,94.504 -532.74,240.801 -151.3,288.102 74.7,-111 123.4,-217.602 151.3,-288.102" /><g
         transform="scale(1.08426)"
         id="g512"><path
           id="path514"
           style="fill:#f4fcff;fill-opacity:1;fill-rule:nonzero;stroke:none"
           d="m 15742.3,303.066 c -2,1.29 -4.2,2.673 -6.2,4.057 h 563.9 l -557.7,-4.057" /></g><g
         transform="scale(1.16024)"
         id="g516"><path
           id="path518"
           style="fill:#dce9fa;fill-opacity:1;fill-rule:nonzero;stroke:none"
           d="m 15232.6,287.01 h -527 c -453.2,296.403 -318.7,372.078 -62.8,372.078 267.5,0 667.2,-82.654 667.2,-82.654 21.9,39.044 67.7,55.073 128.2,55.073 277,0 861.8,-336.74 861.8,-336.74 l -1067.4,-7.757" /></g><g
         transform="scale(1.40209)"
         id="g520"><path
           id="path522"
           style="fill:#f4fcff;fill-opacity:1;fill-rule:nonzero;stroke:none"
           d="m 16300,233.296 h -2305.5 c 0,0 -1.2,1.499 -3.3,4.207 h 2305.3 c 2.4,-2.78 3.5,-4.207 3.5,-4.207" /></g><g
         transform="scale(1.40179)"
         id="g524"><path
           id="path526"
           style="fill:#dce9fa;fill-opacity:1;fill-rule:nonzero;stroke:none"
           d="m 16300,237.554 h -2305.8 c -20.5,26.682 -123.5,173.066 85.3,173.066 41.8,0 95.9,-5.849 165.5,-19.618 0,0 -131.6,169.427 -15.2,236.27 191.8,-237.34 485.3,-389.147 814.3,-389.147 330.7,0 625.7,153.518 817.5,393.071 263.4,-193.61 414,-365.107 438.4,-393.642" /></g><g
         transform="scale(1.36408)"
         id="g528"><path
           id="path530"
           style="fill:#d1d1d1;fill-opacity:1;fill-rule:nonzero;stroke:none"
           d="m 15459.9,244.708 c -338.1,0 -639.7,156.003 -836.8,399.903 29.3,16.861 74.1,27.345 139.9,27.345 66.9,0 155.6,-10.85 272.2,-36.875 l 424.7,-142.295 c 0,0 -182.9,231.44 -255.3,415.227 74.2,-46.039 161.7,-72.577 255.3,-72.577 125,0 239,47.285 325,124.993 201.8,-98.381 374.1,-208.199 515.1,-311.786 -197.1,-246.174 -500.2,-403.935 -840.1,-403.935" /></g><g
         transform="scale(1.32097)"
         id="g532"><path
           id="path534"
           style="fill:#ecebec;fill-opacity:1;fill-rule:nonzero;stroke:none"
           d="m 15964.5,862.701 c -96.8,0 -187.1,27.404 -263.7,74.945 -49.2,125.064 -48.9,228.844 87.7,228.844 59.6,0 145.3,-19.83 264.1,-66.24 86.6,-33.84 169.2,-70.4 247.4,-108.477 -88.8,-80.244 -206.4,-129.072 -335.5,-129.072" /></g><path
         id="path536"
         style="fill:#f4fcff;fill-opacity:1;fill-rule:nonzero;stroke:none"
         d="M 15238.3,328.602 H 14384 c 0,0 -0.7,1.5 -1.9,4.398 h 851.2 c 1.7,-1.5 3.3,-2.898 5,-4.398" /><path
         id="path538"
         style="fill:#dce9fa;fill-opacity:1;fill-rule:nonzero;stroke:none"
         d="m 15233.3,333 h -851.2 c -1.7,4.301 -4.5,11.5 -7.4,20.602 206,34 397.5,111 565,221.3 82.4,-62.703 179.6,-142.402 293.6,-241.902" /><path
         id="path540"
         style="fill:#d1d1d1;fill-opacity:1;fill-rule:nonzero;stroke:none"
         d="m 14374.7,353.602 c -13.8,43.898 -28.5,130.398 68.9,130.398 32.7,0 77.9,-9.699 140,-34 0,0 -168.6,329.398 -16.9,329.398 61.4,0 174.9,-53.597 373,-204.496 -167.5,-110.3 -359,-187.3 -565,-221.3" /><g
         transform="scale(1.06031)"
         id="g542"><path
           id="path544"
           style="fill:#ffffff;fill-opacity:1;fill-rule:nonzero;stroke:none"
           d="m 16300,9634.93 -39.5,-154.01 c 0,0 -344.8,279.41 -342.1,284.86 2.8,5.45 62.7,104.95 88.6,96.77 25.9,-8.18 241.2,-91.32 241.2,-96.77 0,-5.45 51.8,-130.85 51.8,-130.85" /></g><g
         transform="scale(1.07274)"
         id="g546"><path
           id="path548"
           style="fill:#ffc0bb;fill-opacity:1;fill-rule:nonzero;stroke:none"
           d="m 15872.7,9627.93 c 103.7,-101.02 205.3,-121.97 251.2,-126.03 14.6,52.46 24.6,90.45 24.6,90.45 0,0 114.7,35.52 151.5,76.29 0,0 -116,158.69 -117.6,233.09 -1.7,74.38 113.8,520.27 -207.2,772.87 -320.9,252.6 -511.7,-200.5 -511.7,-200.5 l -136.1,-469 -186.9,-283.63 c 0,0 44.7,-256.51 299.6,-436.85 254.9,-180.38 536,-111.5 583.7,-89.4 11.7,5.41 45.9,116.24 75.6,219.44 -166.1,57.21 -226.7,213.27 -226.7,213.27" /></g><g
         transform="scale(1.05531)"
         id="g550"><path
           id="path552"
           style="fill:#333333;fill-opacity:1;fill-rule:nonzero;stroke:none"
           d="m 16195.7,10079.5 c 13.8,-23.7 45.3,-32.3 70.3,-19.1 24.9,13.2 34,43.2 20.2,67 -13.9,23.8 -45.3,32.3 -70.3,19.1 -25,-13.2 -34.1,-43.2 -20.2,-67" /></g><g
         transform="scale(1.05931)"
         id="g554"><path
           id="path556"
           style="fill:#333333;fill-opacity:1;fill-rule:nonzero;stroke:none"
           d="m 16060.6,10132.2 c 18,15.2 35.7,28.6 54.1,39.9 18.3,11.2 37.4,19.9 57.2,25.6 19.7,5.5 40.2,9.4 61.5,8.9 l 8,0.3 c 2.7,0.1 5.4,-0.4 8.1,-0.5 l 16.4,-0.8 c 11.1,-0.7 22,-2.9 34.1,-3.2 -9.2,6.7 -18.9,12.9 -29.5,18 -10.8,3.8 -21.7,9.2 -33.7,10.6 -23.6,5.4 -49.3,3.3 -73.3,-3.5 -24.1,-7 -46.4,-19.9 -64.1,-36.5 -17.5,-16.8 -31.8,-36.6 -38.8,-58.8" /></g><g
         transform="scale(1.02167)"
         id="g558"><path
           id="path560"
           style="fill:#d12a56;fill-opacity:1;fill-rule:nonzero;stroke:none"
           d="m 16291.4,10767.2 c 0,0 -118.3,-100.3 -147.9,-561 -22.9,-357.44 -322,-415.5 -316.1,-413.5 6,2 84.1,785 99.2,811.4 15.1,26.4 115.7,324.4 131.4,331.9 15.7,7.6 219.4,-125.4 230.7,-128.7 11.3,-3.3 2.7,-40.1 2.7,-40.1" /></g><g
         transform="scale(1.08054)"
         id="g562"><path
           id="path564"
           style="fill:#ff5b7e;fill-opacity:1;fill-rule:nonzero;stroke:none"
           d="m 16300,10490 c 0,0 -114.1,748 -1073.4,707.5 -959.5,-40.5 -928,-1153.3 -928,-1153.3 0,0 -38.6,-806.23 535.6,-806.04 0,0 388.7,-24.99 388.7,460.08 0,469.16 142.8,469.16 142.8,469.16 l 934.3,322.6" /></g><path
         id="path566"
         style="fill:#caa3be;fill-opacity:1;fill-rule:nonzero;stroke:none"
         d="m 15449.6,10820.4 c 0,19.4 0.5,31.3 0.6,33.4 0,-0.4 0,-0.6 0,-0.6 0,0 -0.6,-11.9 -0.6,-32.8 m 0.5,48.6 c 0.1,82.2 12.3,488.5 226.5,812.4 0,-0.2 0,-0.5 0.1,-0.7 -213.6,-322.8 -226.4,-727.4 -226.6,-811.7" /><g
         transform="scale(1.00912)"
         id="g568"><path
           id="path570"
           style="fill:#ff3d5e;fill-opacity:1;fill-rule:nonzero;stroke:none"
           d="m 15894.2,9892.65 c -6.5,0 -10.2,0.2 -10.2,0.2 -0.1,0 -0.1,0 -0.2,0 -541.8,0 -573.9,670.95 -573.9,829.75 0,20.7 0.6,32.4 0.6,32.4 0,0 0,0.2 0,0.6 0,0.2 0,0.4 0,0.4 0,0 -0.2,5.1 -0.1,14.7 0.2,83.6 12.9,484.5 224.6,804.4 19,-514.6 201.1,-1010.3 765,-1209.8 -9.6,-451.33 -342.9,-472.65 -405.8,-472.65" /></g><path
         id="path572"
         style="fill:#d12a56;fill-opacity:1;fill-rule:nonzero;stroke:none"
         d="m 16131.1,10309.8 c 0,-64.9 -52.7,-117.6 -117.6,-117.6 -64.9,0 -117.5,52.7 -117.5,117.6 0,64.9 52.6,117.5 117.5,117.5 64.9,0 117.6,-52.6 117.6,-117.5" /><g
         transform="scale(1.09707)"
         id="g574"><path
           id="path576"
           style="fill:#1a1a1a;fill-opacity:1;fill-rule:nonzero;stroke:none"
           d="m 15134.2,10014.2 c 28.6,9.9 749.2,65.5 1087.7,91.2 57.8,4.4 78.1,78.9 30.5,112.1 l -198,138 -920.2,-341.3" /></g><g
         transform="scale(1.08471)"
         id="g578"><path
           id="path580"
           style="fill:#283f56;fill-opacity:1;fill-rule:nonzero;stroke:none"
           d="m 15306.6,10128.3 c 32.5,11.3 744.3,246.9 949.1,314.7 29.5,9.8 44.3,42.6 32.1,71.2 l -27.5,64.7 c -12.3,28.8 -46.7,40.8 -74.2,25.9 l -879.5,-476.5" /></g><g
         transform="scale(1.15815)"
         id="g582"><path
           id="path584"
           style="fill:#ffc0bb;fill-opacity:1;fill-rule:nonzero;stroke:none"
           d="m 15670.8,5945.58 c 0,0 226.1,137.64 324.4,137.64 98.3,0 304.8,-58.98 304.8,-157.32 0,-98.35 -59,-157.32 -59,-157.32 l -199.7,-172.26 c 0,0 -95.2,-73.48 -134.5,-34.19 -39.4,39.37 -157.3,-9.84 -352,97.83 -191.1,105.68 -11.9,167.59 17.7,197.12 29.5,29.53 98.3,88.5 98.3,88.5" /></g><g
         transform="scale(1.15795)"
         id="g586"><path
           id="path588"
           style="fill:#1a1a1a;fill-opacity:1;fill-rule:nonzero;stroke:none"
           d="m 16300,5801.28 c 0,-115.55 -93.7,-209.25 -209.2,-209.25 -115.6,0 -209.3,93.7 -209.3,209.25 0,115.55 93.7,209.25 209.3,209.25 115.5,0 209.2,-93.7 209.2,-209.25" /></g><g
         transform="scale(1.83358)"
         id="g590"><path
           id="path592"
           style="fill:#07085b;fill-opacity:1;fill-rule:nonzero;stroke:none"
           d="M 16242.7,22.7441 H 2421.03 c -31.62,0 -57.26,25.6309 -57.26,57.2652 V 124.13 c 0,31.577 25.64,57.265 57.26,57.265 H 16242.7 c 31.7,0 57.3,-25.688 57.3,-57.265 V 80.0093 c 0,-31.6343 -25.6,-57.2652 -57.3,-57.2652" /></g><g
         transform="scale(1.64099)"
         id="g594"><path
           id="path596"
           style="fill:#70c0fd;fill-opacity:1;fill-rule:nonzero;stroke:none"
           d="m 15169.8,1157.78 c -167.9,-3.11 -333.4,42.9 -474.1,134.61 -113,73.74 -218.9,182.33 -238.6,335.47 -44.7,350.16 157,338.58 206.4,481.36 49.5,142.78 -97.2,206.76 -33.8,466.85 34,139.73 141.6,200.24 309.5,424.74 167.9,224.56 371.3,339.62 519.8,255.89 148.4,-83.73 142.4,-263.81 252.8,-323.77 110.4,-59.97 280,-269.29 215.3,-667.28 -64.8,-397.99 372.9,-249.61 201.7,-710.06 -125.6,-337.6 -674.9,-392.57 -959,-397.81" /></g><g
         transform="scale(1.58786)"
         id="g598"><path
           id="path600"
           style="fill:#07085b;fill-opacity:1;fill-rule:nonzero;stroke:none"
           d="m 15883.8,1507.57 c -16.1,-228.55 -39.7,-1138.709 -5.4,-1217.808 51.1,-117.958 -217.1,29.032 -217.1,29.032 0,0 71.3,543.373 112.6,808.826 18.3,118.08 52.1,473.53 52.4,504.45 -1.5,2.84 -2.9,5.61 -4.4,8.44 -59.8,112.98 -184.8,230.31 -368.5,297.89 141.1,-35.65 273.6,-106.94 370.6,-216.9 -2.8,39.74 -8.2,71.29 -16.6,91.7 -27,65.18 -74.2,142.7 -206.1,240 -26.9,19.72 -55,37.86 -84.6,53.47 -14.8,7.81 -30,14.87 -45.6,21.29 -15.5,6.3 -31.5,11.71 -47.9,16.25 16.8,-2.27 33.6,-5.48 50.1,-9.64 16.5,-4.34 32.9,-9.38 49,-15.24 32.2,-11.78 63.5,-26.32 93.8,-42.76 19.2,-10.46 38,-21.6 56.6,-33.57 -79.1,155.94 -157,384.17 -124.9,687.6 0,0 9,-203.99 59.3,-390.22 8.2,30.23 19.7,59.14 32.9,86.91 29.8,59.71 46.6,81.56 73,117.84 9.5,12.03 19.3,23.8 28.8,35.64 -8.1,-12.97 -16.3,-25.76 -24.2,-38.73 -21.3,-38.29 -35.2,-61.59 -57.1,-123.12 -9.6,-28.34 -17,-57.25 -21.3,-86.34 -6.3,-48.81 -2.9,-84.4 -2.9,-84.4 10.1,-26.57 21.1,-51.89 33.4,-75.13 78.5,-148.31 173.6,-255.06 214,-341.97 15.2,28.22 30.6,56.24 46.3,84.14 33.6,59.45 68,118.34 103.9,176.34 5.8,9.45 11.7,18.83 17.6,28.15 14.1,41.69 22.7,91 27.3,133.01 5.6,53.34 5.8,82.63 4.9,126.84 5.3,-43.27 8.4,-72.81 8.3,-127.6 0,-21.41 -1.1,-42.89 -2.8,-64.3 -0.3,-3.59 -0.6,-7.11 -1,-10.64 l 0.6,0.88 c 18.7,28.53 37.8,56.87 57.5,84.64 19.8,27.78 40.1,55.24 61.4,81.88 21.3,26.64 43.6,52.45 67.7,76.45 -22.4,-25.57 -42.9,-52.71 -62.2,-80.61 -19.3,-27.9 -37.6,-56.43 -55.3,-85.34 -17.7,-28.9 -34.7,-58.25 -51.4,-87.79 -16.6,-29.47 -32.7,-59.32 -48.6,-89.3 -2,-3.84 -4,-7.68 -6,-11.53 6.7,1.77 16.8,4.54 38.4,9.33 82.2,18.01 149.6,22.98 209.7,26.64 -55.9,-8.76 -123.1,-19.78 -204.5,-45.85 -19.8,-6.43 -41.2,-13.86 -60.3,-22.11 -23.5,-45.72 -46.2,-91.88 -68.4,-138.24 -14.6,-30.54 -28.9,-61.27 -42.7,-92.07 -5.6,-12.47 -13.8,-24.06 -16.6,-37.34 -10.2,-48.37 -23.7,-259.09 -23.7,-259.09" /></g><path
         id="path602"
         style="fill:#07085b;fill-opacity:1;fill-rule:nonzero;stroke:none"
         d="m 4651.87,328.602 c 0,0 248.89,376.199 702.22,295.5 0,0 249.6,530.098 942.33,536.198 702.12,6.3 835.45,-482.8 835.45,-482.8 0,0 200,168.801 653.34,-4.5 453.33,-173.398 613.33,-485.898 613.33,-485.898 l -3746.67,141.5" /><g
         transform="scale(1.7084)"
         id="g604"><path
           id="path606"
           style="fill:#70c0fd;fill-opacity:1;fill-rule:nonzero;stroke:none"
           d="m 16300,557.83 c 0,0 -16.9,280.964 -261.5,254.916 0,0 -333,530.724 -681.5,-218.508 0,0 -314.8,170.101 -430.6,-199.835 0,0 -193.8,361.097 -469.6,241.454 C 14181.1,516.212 14087,187.602 14087,187.602 l 2035.3,-43.373 177.7,413.601" /></g><g
         transform="scale(1.82333)"
         id="g608"><path
           id="path610"
           style="fill:#07085b;fill-opacity:1;fill-rule:nonzero;stroke:none"
           d="m 16300,180.22 c 0,0 -136.5,206.326 -385.1,162.066 0,0 -136.9,290.733 -516.8,294.077 -385.1,3.456 -458.2,-264.79 -458.2,-264.79 0,0 -109.7,92.578 -358.3,-2.468 -248.7,-95.1 -336.4,-266.49 -336.4,-266.49 L 16300,180.22" /></g><g
         transform="scale(1.87758)"
         id="g612"><path
           id="path614"
           style="fill:#70c0fd;fill-opacity:1;fill-rule:nonzero;stroke:none"
           d="m 14391.9,1667.1 c -139,71.1 -255.9,189.55 -297.7,334.15 -40.2,139.38 -9,287.44 24.9,428.42 14.8,61.68 29.8,127.78 5.7,186.79 -15,36.75 -43.6,66.57 -69.6,97.25 -224.7,264.65 -275.9,628.1 -247.5,966.89 8,94.05 22,190.03 68.8,273.27 46.8,83.2 132.2,152.22 231.3,158.77 153.1,10.07 298.9,-125.32 444.7,-79.84 104.5,32.65 157.2,144.87 251.8,197.97 79.6,44.58 177.9,41.97 270.2,37.98 29.1,-1.23 58.8,-2.61 85.7,-13.16 61.1,-23.91 92.2,-87.82 111.6,-147.69 31.3,-96.82 46.8,-197.81 78.2,-294.58 31.5,-96.83 81.7,-192.32 166.5,-253.78 68.1,-49.38 152.6,-72.76 229.3,-108.92 189.8,-89.43 327.9,-255.22 430.4,-431.25 30.6,-52.67 58.9,-107.21 74.5,-165.53 49.3,-183.48 -45.8,-392.96 -220.1,-484.94 -64.8,-34.24 -137.7,-53.04 -202.3,-87.71 -148,-79.42 -234.2,-229.88 -318.9,-369.79 -84.7,-139.91 -186.8,-285.69 -346.3,-341.34 -218,-76.11 -573,-4.37 -771.2,97.04" /></g><g
         transform="scale(1.84672)"
         id="g616"><path
           id="path618"
           style="fill:#07085b;fill-opacity:1;fill-rule:nonzero;stroke:none"
           d="m 16196,2638.63 c -35.1,5.09 -70.5,7.69 -105.8,9.26 -35.4,1.46 -70.8,1.24 -106.2,0.16 -9.7,-0.32 -19.4,-0.76 -29,-1.24 45,21.49 89.4,45.64 131.5,75.05 45.6,31.89 89.1,70.23 123,119.4 -36.7,-46.03 -81.5,-79.87 -128,-107.33 -46.7,-27.4 -95.7,-48.52 -145.2,-66.77 -45.5,-16.62 -91.4,-30.75 -137.8,-43.69 6.9,12.23 13.3,24.9 19.2,37.85 13,28.81 23.5,59.07 31.3,90.32 7.9,31.19 12.8,63.25 15.3,95.41 2.2,32.22 1.8,64.49 -1.1,96.23 0.2,-31.95 -2,-63.79 -6.8,-94.88 -5,-31.02 -12.3,-61.29 -22.3,-89.99 -9.9,-28.81 -22.2,-56.16 -36.6,-81.44 -7.2,-12.68 -14.9,-24.86 -23.1,-36.39 -6.4,-9.05 -18.6,-25.78 -26.8,-30.98 -38,-10.02 -76.2,-19.6 -114.5,-29.35 -121.6,-31.51 -293.2,-71.64 -481.5,-232.68 -7.9,94.17 -16.5,202.03 -22.4,277.52 -5.1,64.28 -1.3,129.09 11.2,191.8 l 0.1,0.97 c 13.1,64.66 26.7,129.21 40.9,193.65 21.5,97.74 44,195.15 67.9,292.13 47.9,203.77 36.7,230.36 41,276.71 1.1,12.57 1.3,25.24 0.1,37.8 0,0.7 -0.1,1.3 -0.1,1.89 -3.4,42.24 -7.9,84.15 -13.8,125.74 -15.5,105.65 -28.5,161.53 -49.5,244.49 13.9,-85.5 22.1,-142.25 28.4,-247.68 2.4,-41.43 3.3,-82.96 3.2,-124.33 0,-20.69 -0.6,-41.32 -1.4,-61.9 -0.5,-10.23 -0.9,-20.52 -1.5,-30.7 -0.4,-5.09 -0.7,-10.18 -1.1,-15.22 -0.2,-3.03 -17.2,-75.86 -23.6,-96.17 -39.8,-125.19 -77.1,-251.52 -112.8,-378.67 -16.7,-59.56 -32.8,-119.35 -48.6,-179.45 0,0 -8,-27.83 -16.4,-80.74 -3.7,11.64 -34.8,97.58 -49.8,132.94 -76,178.64 -152.5,331.24 -279,514.53 -48.5,70.34 -54.9,77.11 -119.1,160.56 79.7,-117.29 56.3,-81.5 110.6,-169 115.5,-190.02 184.3,-348.24 249.6,-528.02 23.7,-71.26 36.2,-107.27 60.2,-201.17 2.9,-11.32 5.7,-22.63 8.2,-34.06 1.5,-6.39 2.9,-12.78 4.3,-19.17 -5.2,-88.43 -1.8,-177.23 8.5,-264.96 4.3,-35.79 46.1,-678.28 50.9,-913.83 10.8,-529.321 -82.6,-1128.221 -82.6,-1128.221 0,0 559.9,-174.364 446.1,36.443 -76.2,141.332 -259.5,1418.518 -299.3,1867.418 3,3.31 6,6.66 9,9.97 170.2,184.22 347.2,244.27 472.8,288.4 57.9,20.14 116.2,39.96 174.1,61.9 v -0.06 c 34.1,6.88 133.1,25.13 167.9,29.57 34.7,4.38 69.7,7.79 104.7,9.63 35,1.68 70,2.39 105.1,0.55 35,-2.01 70,-5.96 104.6,-14.08 -34,11.32 -68.9,18.57 -104,23.88" /></g></g></g></svg>